<?xml version="1.0" encoding="UTF-8" standalone="no"?>
<svg width="32px" height="32px" viewBox="0 0 32 32" version="1.1" xmlns="http://www.w3.org/2000/svg" xmlns:xlink="http://www.w3.org/1999/xlink">
    <!-- Generator: Sketch 41 (35326) - http://www.bohemiancoding.com/sketch -->
    <title>Fill 18 Copy</title>
    <desc>Created with Sketch.</desc>
    <defs></defs>
    <g id="Page-1" stroke="none" stroke-width="1" fill="none" fill-rule="evenodd">
        <g id="About" transform="translate(-640.000000, -760.000000)" fill="#215ED5">
            <g id="основные-направления-copy" transform="translate(32.000000, 679.000000)">
                <path d="M624,111.932 C618.760667,111.932 614.148667,109.218667 611.482,105.127333 C612.479333,105.127333 613.325333,105.056667 613.710667,105.020667 C613.760667,105.056667 613.815333,105.093333 613.867333,105.13 L613.867333,105.494667 C613.867333,105.676667 613.960667,105.848667 614.117333,105.945333 C615.088667,106.554667 616.174667,107.004667 617.463333,107.330667 C617.466,107.330667 617.466,107.333333 617.468667,107.333333 C617.474,107.335333 617.479333,107.335333 617.486667,107.338 C617.669333,107.382667 617.862,107.426667 618.054667,107.468667 C618.138,107.486667 618.221333,107.504667 618.304667,107.520667 C618.463333,107.552 618.627333,107.583333 618.794,107.609333 C618.922,107.632667 619.049333,107.653333 619.177333,107.671333 C619.318,107.695333 619.460667,107.716 619.606667,107.736667 C619.818,107.762667 620.031333,107.788667 620.242,107.812 C620.31,107.82 620.372667,107.828 620.44,107.835333 L620.442667,107.835333 C620.448,107.838 620.453333,107.838 620.458667,107.838 L620.479333,107.838 L620.482,107.840667 C620.713333,107.864 620.945333,107.885333 621.18,107.903333 L621.198,107.903333 C621.216,107.906 621.232,107.906 621.25,107.908667 C621.260667,107.908667 621.270667,107.911333 621.278667,107.911333 C621.489333,107.926667 621.700667,107.942667 621.911333,107.955333 C621.924667,107.958 621.934667,107.958 621.945333,107.958 L621.958667,107.958 C621.971333,107.960667 621.982,107.960667 621.994667,107.960667 L621.997333,107.960667 C622.010667,107.963333 622.023333,107.963333 622.036667,107.963333 C622.526,107.994667 623.015333,108.018 623.497333,108.038667 L623.510667,108.038667 C623.684667,108.046667 623.856667,108.054667 624.028667,108.062 L624.094,108.064667 C624.919333,108.098667 625.773333,108.135333 626.586,108.197333 C626.844,108.216 627.094,108.226 627.333333,108.226 C627.508,108.226 627.672,108.142667 627.770667,108 C627.841333,107.900667 627.87,107.783333 627.864667,107.666667 C629.072667,107.580667 630.002667,107.205333 630.638,106.546667 C631.354,105.802 631.453333,104.918667 631.466,104.578 C631.773333,103.838 633.375333,99.6353333 631.974,95.2386667 C631.508,93.7806667 631.010667,90.9973333 630.934667,90.5653333 C631.052,87.7833333 630.346667,85.7233333 628.830667,84.4366667 C626.807333,82.7153333 624.005333,82.96 623.106667,83.0966667 C623,82.95 622.851333,82.6666667 622.718667,82.1253333 C623.143333,82.088 623.568,82.068 624,82.068 C632.234667,82.068 638.932,88.7653333 638.932,97 C638.932,105.234 632.234667,111.932 624,111.932 L624,111.932 Z M612.138,87.9426667 L615.401333,100.481333 C615.138,100.424 614.877333,100.343333 614.627333,100.226 C614.463333,100.148 614.268,100.161333 614.114667,100.26 C614.041333,100.307333 613.982,100.372 613.937333,100.445333 C613.822667,100.369333 613.706,100.296667 613.601333,100.210667 C612.724,99.4866667 611.203333,98.7053333 609.096667,97.8906667 C609.078,97.596 609.068,97.2993333 609.068,97 C609.068,93.5966667 610.213333,90.4586667 612.138,87.9426667 L612.138,87.9426667 Z M623.888,106.986667 L621.539333,101.182 C621.94,101.023333 622.888,100.679333 624.151333,100.424 L625.086,103.020667 L626.565333,107.124667 C625.765333,107.067333 624.94,107.033333 624.140667,107 L624.075333,106.997333 C624.013333,106.992 623.950667,106.989333 623.888,106.986667 L623.888,106.986667 Z M614.932,104.854 L614.932,101.473333 C615.094,101.518 615.255333,101.552 615.416667,101.578 C615.505333,101.593333 615.598667,101.606667 615.698,101.622 L616.848667,106.046667 C616.146,105.814667 615.515333,105.530667 614.934667,105.192667 L614.934667,104.854 L614.932,104.854 Z M610.841333,104.049333 C610.822667,104.018 610.807333,103.984 610.792,103.952667 C610.617333,103.624667 610.458667,103.291333 610.31,102.955333 C610.292,102.911333 610.270667,102.869333 610.252667,102.828 C610.101333,102.473333 609.968667,102.116667 609.848667,101.754667 C609.825333,101.692667 609.804667,101.63 609.784,101.564667 C609.666667,101.197333 609.562667,100.825333 609.474,100.447333 C609.460667,100.400667 609.450667,100.354 609.44,100.307333 C609.348667,99.9033333 609.270667,99.4946667 609.216,99.0833333 C610.937333,99.7786667 612.208,100.445333 612.922,101.033333 C613.203333,101.265333 613.518,101.466 613.867333,101.635333 L613.867333,103.932 C613.846667,103.932 613.825333,103.934667 613.802,103.937333 C613.789333,103.937333 612.396,104.104 610.841333,104.049333 L610.841333,104.049333 Z M619.18,106.596 C619.174667,106.593333 619.169333,106.593333 619.164,106.593333 C618.781333,106.530667 618.406,106.458 618.036667,106.372 L616.638,101.007333 L612.979333,86.9473333 C613.07,86.8466667 613.158667,86.7446667 613.252667,86.6486667 C613.296667,86.6006667 613.341333,86.552 613.388,86.508 C613.408667,86.4846667 613.432,86.4586667 613.456,86.434 C613.520667,86.37 613.588667,86.3093333 613.653333,86.2446667 C613.82,86.088 613.986667,85.934 614.158667,85.7833333 L622.276,105.851333 L622.716,106.932 C622.69,106.932 622.664,106.929333 622.638,106.929333 C622.307333,106.911333 621.974,106.890667 621.640667,106.866667 C621.583333,106.862 621.528667,106.859333 621.471333,106.854 C621.112,106.828 620.755333,106.796667 620.396,106.757333 C620.356667,106.752 620.318,106.747333 620.278667,106.742 C619.908667,106.702667 619.541333,106.653333 619.18,106.596 L619.18,106.596 Z M621.653333,82.2546667 C621.87,83.206 622.184667,83.802 622.632667,84.1066667 C622.752667,84.19 622.903333,84.2186667 623.044,84.1866667 C623.075333,84.182 626.148667,83.5546667 628.140667,85.25 C629.401333,86.32 629.982,88.112 629.867333,90.5746667 C629.864667,90.614 629.867333,90.6533333 629.875333,90.69 C629.896,90.822 630.434667,93.9186667 630.958667,95.5626667 C632.344,99.9033333 630.466,104.205333 630.448,104.25 C630.414,104.325333 630.398667,104.414 630.401333,104.494667 C630.403333,104.526 630.427333,105.236667 629.859333,105.82 C629.37,106.32 628.580667,106.585333 627.515333,106.614 L625.960667,102.304667 L625.406,100.76 C625.489333,100.75 625.572667,100.739333 625.658667,100.728667 C625.875333,100.705333 626.054667,100.554667 626.114667,100.346 C626.172,100.135333 626.098667,99.9113333 625.927333,99.7786667 C625.901333,99.7573333 623.232,97.622 624.510667,93.4213333 C624.518,93.3986667 624.523333,93.3746667 624.528667,93.3486667 C624.643333,92.6226667 624.497333,91.114 623.109333,90.6266667 C622.830667,90.5306667 622.528667,90.6773333 622.43,90.956 C622.333333,91.2346667 622.479333,91.5393333 622.758,91.6353333 C623.580667,91.9246667 623.5,92.9586667 623.479333,93.1513333 C622.604,96.0626667 623.372667,98.1246667 624.156,99.3353333 C622.700667,99.6093333 621.606667,100.004667 621.140667,100.192667 L615.023333,85.0833333 C615.101333,85.0233333 615.174667,84.9626667 615.252667,84.9053333 C615.382667,84.8126667 615.513333,84.7186667 615.646,84.6266667 C615.896,84.4586667 616.153333,84.296 616.414,84.1426667 C616.539333,84.07 616.666667,83.9973333 616.794,83.9246667 C617.078,83.7673333 617.37,83.62 617.664,83.482 C617.765333,83.434 617.867333,83.388 617.971333,83.3413333 C618.302,83.1953333 618.638,83.0593333 618.979333,82.9366667 C619.039333,82.9166667 619.096667,82.8986667 619.156,82.8766667 C619.963333,82.6006667 620.796667,82.39 621.653333,82.2546667 L621.653333,82.2546667 Z M624,81 C623.328,81 622.666667,81.046 622.018,81.1266667 L622.013333,81.1266667 C622.002667,81.1293333 621.989333,81.1293333 621.979333,81.1326667 C621.75,81.1613333 621.520667,81.1953333 621.294,81.2346667 C621.263333,81.2386667 621.232,81.2446667 621.203333,81.25 C620.989333,81.2893333 620.776,81.3306667 620.565333,81.3746667 C620.513333,81.388 620.460667,81.4013333 620.408667,81.4113333 C620.221333,81.456 620.036667,81.5 619.851333,81.5486667 C619.760667,81.572 619.672,81.5986667 619.583333,81.6253333 C619.44,81.6666667 619.294,81.708 619.151333,81.7546667 C619.002667,81.802 618.856667,81.8506667 618.710667,81.9033333 C618.627333,81.932 618.541333,81.9586667 618.460667,81.9886667 C616.43,82.7366667 614.57,83.8953333 612.986667,85.4013333 C612.976667,85.408 612.968667,85.4186667 612.958667,85.4273333 C612.632667,85.7386667 612.318,86.0653333 612.015333,86.4053333 C612.008,86.4166667 611.997333,86.4273333 611.986667,86.4366667 C611.984667,86.44 611.982,86.4453333 611.976667,86.45 C611.885333,86.5546667 611.792,86.658 611.703333,86.7653333 C611.695333,86.7733333 611.692667,86.7866667 611.687333,86.7933333 C609.385333,89.568 608,93.1253333 608,97 C608,97.44 608.023333,97.8746667 608.057333,98.3046667 L608.057333,98.3093333 C608.057333,98.3146667 608.06,98.3173333 608.06,98.3226667 C608.080667,98.5933333 608.109333,98.864 608.146,99.1326667 C608.148667,99.1533333 608.151333,99.1713333 608.153333,99.19 C608.187333,99.44 608.229333,99.69 608.276,99.9346667 C608.284,99.976 608.289333,100.015333 608.296667,100.054667 C608.338667,100.276 608.388,100.492 608.44,100.708 C608.453333,100.773333 608.468667,100.835333 608.484667,100.900667 C608.531333,101.088 608.583333,101.276 608.638,101.460667 C608.664,101.546667 608.684667,101.632667 608.710667,101.718667 C608.760667,101.88 608.818,102.038667 608.872667,102.2 C608.956,102.442667 609.046667,102.682 609.140667,102.921333 C609.182,103.023333 609.221333,103.13 609.265333,103.231333 C609.325333,103.372 609.390667,103.512667 609.456,103.653333 C609.505333,103.76 609.552,103.866667 609.604,103.973333 C609.669333,104.112 609.742,104.247333 609.812667,104.382667 C609.867333,104.486667 609.922,104.590667 609.976667,104.695333 C610.002667,104.739333 610.023333,104.786 610.049333,104.830667 C610.057333,104.843333 610.07,104.856667 610.078,104.869333 C612.830667,109.718667 618.036667,113 624,113 C632.822667,113 640,105.822667 640,97 C640,88.1773333 632.822667,81 624,81 L624,81 Z" id="Fill-18-Copy"></path>
            </g>
        </g>
    </g>
</svg>