<?xml version="1.0" encoding="UTF-8" standalone="no"?>
<svg width="32px" height="32px" viewBox="0 0 32 32" version="1.1" xmlns="http://www.w3.org/2000/svg" xmlns:xlink="http://www.w3.org/1999/xlink">
    <!-- Generator: Sketch 41 (35326) - http://www.bohemiancoding.com/sketch -->
    <title>Page 1 Copy 2</title>
    <desc>Created with Sketch.</desc>
    <defs></defs>
    <g id="Page-1" stroke="none" stroke-width="1" fill="none" fill-rule="evenodd" opacity="0.802819293">
        <g id="-index" transform="translate(-948.000000, -419.000000)" fill="#215ED5">
            <g id="Group-7" transform="translate(936.000000, 243.000000)">
                <g id="Page-1-Copy-2" transform="translate(12.000000, 176.000000)">
                    <path d="M19.8922449,30.3203333 C19.5467755,30.4263333 19.2,30.5203333 18.8473469,30.593 C17.8481633,30.8203333 16.8097959,30.9336667 15.7518367,30.9336667 L15.6734694,30.9336667 C14.6155102,30.9336667 13.5771429,30.8203333 12.5786122,30.593 C12.2259592,30.5203333 11.8733061,30.4263333 11.5265306,30.313 C5.47265306,28.4936667 1.04555102,22.7596667 1.04555102,16.0003333 C1.04555102,7.76633333 7.60816327,1.067 15.6734694,1.067 L15.7518367,1.067 C23.8177959,1.067 30.3810612,7.76633333 30.3810612,16.0003333 C30.3810612,22.767 25.9526531,28.4936667 19.8922449,30.3203333 M15.7518367,0.000333333333 L15.6734694,0.000333333333 C7.03412245,0.000333333333 0,7.18033333 0,16.0003333 C0,23.3536667 4.89142857,29.5663333 11.5265306,31.4263333 C11.8733061,31.527 12.2259592,31.613 12.5786122,31.687 C13.5771429,31.893 14.6155102,32.0003333 15.6734694,32.0003333 L15.7518367,32.0003333 C16.8097959,32.0003333 17.8481633,31.893 18.8473469,31.687 C19.2,31.613 19.5467755,31.527 19.8922449,31.4263333 C26.5338776,29.5736667 31.4253061,23.3536667 31.4253061,16.0003333 C31.4253061,7.18033333 24.3924898,0.000333333333 15.7518367,0.000333333333" id="Fill-1"></path>
                    <path d="M26.0450828,16.0152853 C25.74232,17.3271577 25.1541123,18.5542949 24.3300243,19.6363458 L20.6395433,19.6363458 L19.4147575,11.7169523 C19.3813162,11.508467 19.2099298,11.3548463 19.0033107,11.3493598 C18.7823595,11.3335101 18.6175419,11.4889596 18.5739489,11.6956161 L17.0899933,18.9060377 L16.3686178,17.6679276 C16.2891948,17.5338142 16.1619986,17.4618807 15.9941952,17.455175 C15.8425152,17.4576134 15.7003899,17.5447871 15.6281329,17.6807293 L13.9274064,20.803132 L11.6963972,15.1124586 C11.634292,14.9503033 11.4820148,14.8442319 11.3112256,14.839355 C11.1458108,14.8271629 10.9809932,14.9356728 10.9129164,15.0953896 L8.88852635,19.6363458 L7.09643356,19.6363458 C6.26995691,18.5524661 5.68234634,17.3271577 5.37958358,16.0128469 C5.06846051,14.6692749 5.19505953,13.909096 5.19744819,13.9048288 L5.20401701,13.8597179 C5.49005915,10.5757696 7.72465136,8.19038075 10.5158015,8.19038075 C12.1830868,8.19038075 13.6998864,9.02919881 14.6804317,10.4885959 C14.9031743,10.8250985 15.256099,11.0189533 15.6442564,11.0207821 C16.0264421,11.0140764 16.3871299,10.833633 16.61883,10.5013977 C17.6160959,9.05541187 19.2206788,8.19281917 20.9082677,8.19281917 C23.7024037,8.19281917 25.9363987,10.5757696 26.226621,13.9023904 C26.2290097,13.909096 26.3579974,14.6692749 26.0450828,16.0152853 L26.0450828,16.0152853 Z M15.6508252,27.7745879 L8.27762634,20.943951 C8.12534921,20.803132 7.98083523,20.6562169 7.83930708,20.5099114 L9.16381951,20.5099114 C9.33162293,20.5099114 9.4833029,20.4093264 9.55257406,20.2538769 L11.2753957,16.3859258 L13.4663948,21.9815007 C13.5290972,22.1369503 13.673014,22.2430217 13.8378316,22.253385 L13.864704,22.253385 C14.0169812,22.253385 14.1614951,22.1686498 14.2385295,22.0302692 L16.0133045,18.7670475 L16.9150239,20.3136183 C17.0045987,20.4666294 17.1801653,20.5501454 17.3509545,20.5202747 C17.5241324,20.490404 17.6638691,20.3562907 17.699699,20.1795049 L18.9304565,14.1962205 L19.8506881,20.1410997 C19.8841293,20.3538523 20.0608902,20.5099114 20.2722867,20.5099114 L23.5853593,20.5099114 C23.4438311,20.6562169 23.3017058,20.803132 23.1494287,20.9421222 L15.6508252,27.7745879 Z M27.0716098,13.7658386 C26.7401831,10.0283433 24.1508748,7.31925356 20.9082677,7.31925356 C18.942997,7.31925356 17.0774529,8.32022686 15.9201467,9.99847259 C15.8305719,10.1301475 15.715319,10.1490453 15.6532138,10.1490453 C15.5881228,10.1539222 15.4758558,10.1301475 15.3838923,9.99603416 C14.2421124,8.2946234 12.4691289,7.31925356 10.5158015,7.31925356 C7.27558312,7.31925356 4.68388612,10.0283433 4.35245942,13.7658386 C4.32737849,13.9279938 4.21929158,14.7972922 4.54713528,16.2152361 C5.02009013,18.2604647 6.11111096,20.1197635 7.70375058,21.5913528 L15.6442564,28.9480798 L23.7209158,21.5913528 C24.129974,21.2121777 24.5055909,20.8098377 24.8453779,20.383723 C24.8519467,20.3776269 24.8561269,20.3690924 24.8620985,20.3623868 C25.8384636,19.1358592 26.5293838,17.7258402 26.8775311,16.2152361 C27.2053748,14.7972922 27.0990794,13.9279938 27.0716098,13.7658386 L27.0716098,13.7658386 Z" id="Fill-4"></path>
                </g>
            </g>
        </g>
    </g>
</svg>