<?xml version="1.0" encoding="UTF-8" standalone="no"?>
<svg width="26px" height="26px" viewBox="0 0 26 26" version="1.1" xmlns="http://www.w3.org/2000/svg" xmlns:xlink="http://www.w3.org/1999/xlink">
    <!-- Generator: Sketch 41 (35326) - http://www.bohemiancoding.com/sketch -->
    <title>Page 1</title>
    <desc>Created with Sketch.</desc>
    <defs></defs>
    <g id="Page-1" stroke="none" stroke-width="1" fill="none" fill-rule="evenodd">
        <g id="Contacts" transform="translate(-32.000000, -358.000000)" fill="#4D7EDD">
            <g id="Group-9" transform="translate(32.000000, 358.000000)">
                <g id="Page-1">
                    <polygon id="Fill-4" points="16.0767788 5.95199057 15.9355598 5.95199057 12.9208153 12.0206175 9.79712199 5.89967745 5.52058423 16.9569085 4.41599702 16.9569085 4.41599702 17.8456234 10.4700587 17.8456234 10.4700587 16.9569085 9.26866093 16.9569085 10.4700587 13.5021131 12.9208153 17.8456234 15.2753535 13.5021131 16.4758631 16.9569085 15.2753535 16.9569085 15.2753535 17.8456234 21.2808619 17.8456234 21.2808619 16.9569085 20.2402229 16.9569085"></polygon>
                    <path d="M16.212991,24.005691 C15.934889,24.0894883 15.6557355,24.1637991 15.3718506,24.221245 C14.5675101,24.4009612 13.7316269,24.4905558 12.8799722,24.4905558 L12.8168867,24.4905558 C11.965232,24.4905558 11.1293488,24.4009612 10.325534,24.221245 C10.0416491,24.1637991 9.75776422,24.0894883 9.47861075,23.9998937 C4.60525361,22.5616369 1.04144691,18.0286774 1.04144691,12.6851504 C1.04144691,6.17583961 6.32433428,0.879745014 12.8168867,0.879745014 L12.8799722,0.879745014 C19.3730503,0.879745014 24.6564634,6.17583961 24.6564634,12.6851504 C24.6564634,18.0344747 21.0916053,22.5616369 16.212991,24.005691 M12.8799722,0.0365017707 L12.8168867,0.0365017707 C5.86223278,0.0365017707 0.199780801,5.71258285 0.199780801,12.6851504 C0.199780801,18.4982585 4.13736926,23.4096234 9.47861075,24.8800288 C9.75776422,24.9596099 10.0416491,25.0275964 10.325534,25.0860964 C11.1293488,25.2489477 11.965232,25.3337991 12.8168867,25.3337991 L12.8799722,25.3337991 C13.7316269,25.3337991 14.5675101,25.2489477 15.3718506,25.0860964 C15.6557355,25.0275964 15.934889,24.9596099 16.212991,24.8800288 C21.5594896,23.4154207 25.4970781,18.4982585 25.4970781,12.6851504 C25.4970781,5.71258285 19.8356775,0.0365017707 12.8799722,0.0365017707" id="Fill-1"></path>
                </g>
            </g>
        </g>
    </g>
</svg>