<?xml version="1.0" encoding="UTF-8" standalone="no"?>
<svg width="26px" height="26px" viewBox="0 0 26 26" version="1.1" xmlns="http://www.w3.org/2000/svg" xmlns:xlink="http://www.w3.org/1999/xlink">
    <!-- Generator: Sketch 41 (35326) - http://www.bohemiancoding.com/sketch -->
    <title>Page 1 Copy 3</title>
    <desc>Created with Sketch.</desc>
    <defs>
        <polygon id="path-1" points="8.98408176 11.9270517 17.9681581 11.9270517 17.9681581 0.0442066869 8.98408176 0.0442066869 5.47112522e-06 0.0442066869 5.47112522e-06 11.9270517 8.98408176 11.9270517"></polygon>
    </defs>
    <g id="Page-1" stroke="none" stroke-width="1" fill="none" fill-rule="evenodd">
        <g id="Contacts" transform="translate(-32.000000, -408.000000)">
            <g id="Group-9" transform="translate(32.000000, 358.000000)">
                <g id="Page-1-Copy-3" transform="translate(0.000000, 50.000000)">
                    <g id="Page-1" transform="translate(4.000000, 7.000000)">
                        <path d="M4.31748875,10.2138839 C4.18202371,10.2138839 4.07172584,10.1033672 4.07172584,9.96795684 C4.07172584,9.83238237 4.18202371,9.72197508 4.31748875,9.72197508 C4.45322736,9.72197508 4.56347052,9.83216353 4.56347052,9.96795684 C4.56347052,10.1033672 4.45322736,10.2138839 4.31748875,10.2138839 M4.31748875,9.06544012 C3.81994468,9.06544012 3.41519088,9.47035805 3.41519088,9.96795684 C3.41519088,10.4655009 3.81994468,10.8704188 4.31748875,10.8704188 C4.81503283,10.8704188 5.22000547,10.4655009 5.22000547,9.96795684 C5.22000547,9.47035805 4.81503283,9.06544012 4.31748875,9.06544012" id="Fill-1" fill="#4D7EDD"></path>
                        <path d="M13.6504559,10.2138839 C13.5149362,10.2138839 13.404693,10.1033672 13.404693,9.96795684 C13.404693,9.83238237 13.5149362,9.72197508 13.6504559,9.72197508 C13.7859757,9.72197508 13.8964377,9.83216353 13.8964377,9.96795684 C13.8964377,10.1033672 13.7861398,10.2138839 13.6504559,10.2138839 M13.6504559,9.06544012 C13.1529119,9.06544012 12.7481581,9.47035805 12.7481581,9.96795684 C12.7481581,10.4655009 13.1529119,10.8704188 13.6504559,10.8704188 C14.148,10.8704188 14.5529726,10.4655009 14.5529726,9.96795684 C14.5529726,9.47035805 14.1482188,9.06544012 13.6504559,9.06544012" id="Fill-3" fill="#4D7EDD"></path>
                        <g id="Group-7" transform="translate(0.000000, 0.010505)">
                            <mask id="mask-2" fill="white">
                                <use xlink:href="#path-1"></use>
                            </mask>
                            <g id="Clip-6"></g>
                            <path d="M17.3114097,9.24620061 C17.3114097,9.4572766 17.1397805,9.62917933 16.928431,9.62917933 L15.5922729,9.62917933 C15.5422669,9.33269909 15.4257866,9.05848632 15.2586438,8.82262614 L16.928431,8.82262614 C17.1397805,8.82262614 17.3114097,8.99458359 17.3114097,9.20598784 L17.3114097,9.24620061 Z M13.6504614,11.2705167 C12.9265769,11.2705167 12.3376103,10.6812219 12.3376103,9.95744681 C12.3376103,9.23334347 12.9265769,8.6443769 13.6504614,8.6443769 C14.37451,8.6443769 14.9635313,9.23334347 14.9635313,9.95744681 C14.9635313,10.6812219 14.37451,11.2705167 13.6504614,11.2705167 L13.6504614,11.2705167 Z M11.7088687,9.62917933 L6.25908146,9.62917933 C6.10244316,8.69881459 5.29162249,7.98784195 4.31748875,7.98784195 C4.02620608,7.98784195 3.74964073,8.05196353 3.50064985,8.16609119 L1.07327599,8.16609119 L1.07327599,2.98789058 C1.07327599,1.72679635 2.09911185,0.700741641 3.36026079,0.700741641 L15.6566134,0.700741641 C16.2257198,0.700741641 16.7059751,1.08694833 16.8504128,1.61069909 L15.9938535,1.61069909 C15.5858717,1.61069909 15.2537745,1.94290578 15.2537745,2.35105167 L15.2537745,4.88182979 C15.2537745,5.28986626 15.5856529,5.62196353 15.9938535,5.62196353 L16.894893,5.62196353 L16.894893,8.16609119 L14.4675191,8.16609119 C14.2183094,8.05218237 13.9419629,7.98806079 13.6504614,7.98806079 C12.6763277,7.98784195 11.8657258,8.69908815 11.7088687,9.62917933 L11.7088687,9.62917933 Z M4.31748875,11.2705167 C3.59365897,11.2705167 3.00463769,10.6812219 3.00463769,9.95744681 C3.00463769,9.23334347 3.59365897,8.6443769 4.31748875,8.6443769 C5.04153739,8.6443769 5.63055866,9.23334347 5.63055866,9.95744681 C5.63055866,10.6812219 5.04153739,11.2705167 4.31748875,11.2705167 L4.31748875,11.2705167 Z M0.656540426,9.24620061 L0.656540426,9.20598784 C0.656540426,8.99458359 0.82838845,8.82262614 1.03951915,8.82262614 L2.70930638,8.82262614 C2.54238237,9.05848632 2.42590213,9.33269909 2.37589605,9.62917933 L1.03951915,9.62917933 C0.82838845,9.62917933 0.656540426,9.4572766 0.656540426,9.24620061 L0.656540426,9.24620061 Z M16.894893,4.96542857 L15.9938535,4.96542857 C15.947896,4.96542857 15.9103094,4.92806079 15.9103094,4.88182979 L15.9103094,2.35088754 C15.9103094,2.30487538 15.947896,2.26723404 15.9938535,2.26723404 L16.894893,2.26723404 L16.894893,4.96542857 Z M17.551428,8.37382979 L17.551428,1.93896657 C17.551428,0.894200608 16.7012699,0.0442066869 15.6566134,0.0442066869 L3.36026079,0.0442066869 C1.73730638,0.0442066869 0.416741033,1.36471733 0.416741033,2.98767173 L0.416741033,8.37382979 C0.163920365,8.56373252 5.47112522e-06,8.86601216 5.47112522e-06,9.20598784 L5.47112522e-06,9.24620061 C5.47112522e-06,9.81935562 0.466309422,10.2857143 1.03951915,10.2857143 L2.37589605,10.2857143 C2.53275319,11.2160243 3.34335502,11.9270517 4.31748875,11.9270517 C5.29162249,11.9270517 6.10244316,11.2160243 6.25908146,10.2857143 L11.7088687,10.2857143 C11.8657258,11.2160243 12.6763277,11.9270517 13.6504614,11.9270517 C14.6245951,11.9270517 15.4354158,11.2160243 15.5922729,10.2857143 L16.9286498,10.2857143 C17.5018049,10.2857143 17.9681635,9.81935562 17.9681635,9.24620061 L17.9681635,9.20598784 C17.9679447,8.86601216 17.8042486,8.56373252 17.551428,8.37382979 L17.551428,8.37382979 Z" id="Fill-5" fill="#4D7EDD" mask="url(#mask-2)"></path>
                        </g>
                        <path d="M13.628659,4.8923617 C13.628659,4.93831915 13.5912365,4.97596049 13.5451149,4.97596049 L11.6350906,4.97596049 L11.6350906,2.27776596 L13.5451149,2.27776596 C13.5910723,2.27776596 13.628659,2.31540729 13.628659,2.36136474 L13.628659,4.8923617 Z M2.51056778,4.8923617 L2.51056778,3.20506687 C2.51056778,2.69368085 2.92637325,2.27776596 3.43759514,2.27776596 L4.5043003,2.27776596 L4.5043003,4.97596049 L2.59411185,4.97596049 C2.54788085,4.97596049 2.51056778,4.93831915 2.51056778,4.8923617 L2.51056778,4.8923617 Z M5.16083526,4.97596049 L7.74145532,4.97596049 L7.74145532,2.27776596 L5.16083526,2.27776596 L5.16083526,4.97596049 Z M8.39799027,4.97596049 L10.9786103,4.97596049 L10.9786103,2.27776596 L8.39799027,2.27776596 L8.39799027,4.97596049 Z M14.2851939,4.8923617 L14.2851939,2.36136474 C14.2851939,1.95338298 13.9533155,1.621231 13.5451149,1.621231 L3.43759514,1.621231 C2.56440365,1.621231 1.85403283,2.33187538 1.85403283,3.20506687 L1.85403283,4.8923617 C1.85403283,5.30034347 2.18591125,5.63249544 2.59411185,5.63249544 L13.5451149,5.63249544 C13.9533155,5.63249544 14.2851939,5.30034347 14.2851939,4.8923617 L14.2851939,4.8923617 Z" id="Fill-8" fill="#4D7EDD"></path>
                        <path d="M16.1742255,7.66601945 C16.3554839,7.66601945 16.502493,7.51895562 16.502493,7.33775198 L16.502493,7.04603161 C16.502493,6.86455441 16.3554839,6.71776413 16.1742255,6.71776413 C15.9929672,6.71776413 15.8459581,6.86455441 15.8459581,7.04603161 L15.8459581,7.33775198 C15.8459581,7.51895562 15.9929672,7.66601945 16.1742255,7.66601945" id="Fill-10" fill="#4D7EDD"></path>
                    </g>
                    <path d="M16.212991,24.005691 C15.934889,24.0894883 15.6557355,24.1637991 15.3718506,24.221245 C14.5675101,24.4009612 13.7316269,24.4905558 12.8799722,24.4905558 L12.8168867,24.4905558 C11.965232,24.4905558 11.1293488,24.4009612 10.325534,24.221245 C10.0416491,24.1637991 9.75776422,24.0894883 9.47861075,23.9998937 C4.60525361,22.5616369 1.04144691,18.0286774 1.04144691,12.6851504 C1.04144691,6.17583961 6.32433428,0.879745014 12.8168867,0.879745014 L12.8799722,0.879745014 C19.3730503,0.879745014 24.6564634,6.17583961 24.6564634,12.6851504 C24.6564634,18.0344747 21.0916053,22.5616369 16.212991,24.005691 M12.8799722,0.0365017707 L12.8168867,0.0365017707 C5.86223278,0.0365017707 0.199780801,5.71258285 0.199780801,12.6851504 C0.199780801,18.4982585 4.13736926,23.4096234 9.47861075,24.8800288 C9.75776422,24.9596099 10.0416491,25.0275964 10.325534,25.0860964 C11.1293488,25.2489477 11.965232,25.3337991 12.8168867,25.3337991 L12.8799722,25.3337991 C13.7316269,25.3337991 14.5675101,25.2489477 15.3718506,25.0860964 C15.6557355,25.0275964 15.934889,24.9596099 16.212991,24.8800288 C21.5594896,23.4154207 25.4970781,18.4982585 25.4970781,12.6851504 C25.4970781,5.71258285 19.8356775,0.0365017707 12.8799722,0.0365017707" id="Fill-1" fill="#4D7EDD"></path>
                </g>
            </g>
        </g>
    </g>
</svg>