<?xml version="1.0" encoding="UTF-8"?>
<svg width="48px" height="69px" viewBox="0 0 48 69" version="1.1" xmlns="http://www.w3.org/2000/svg" xmlns:xlink="http://www.w3.org/1999/xlink">
    <!-- Generator: Sketch 41 (35326) - http://www.bohemiancoding.com/sketch -->
    <title>cont_map</title>
    <desc>Created with Sketch.</desc>
    <defs>
        <path d="M40.535,7.773 C36.119,3.33 30.25,0.876 24.008,0.876 C17.757,0.876 11.888,3.33 7.471,7.773 C-0.697,16.007 -1.715,31.49 5.275,40.874 L24.008,68.123 L42.702,40.915 C49.719,31.491 48.7,16.007 40.535,7.773" id="path-1"></path>
    </defs>
    <g id="Page-1" stroke="none" stroke-width="1" fill="none" fill-rule="evenodd">
        <g id="cont_map">
            <g id="Group">
                <mask id="mask-2" fill="white">
                    <use xlink:href="#path-1"></use>
                </mask>
                <use id="path-1" fill="#FFFFFF" xlink:href="#path-1"></use>
                <g id="Clipped" mask="url(#mask-2)">
                    <g transform="translate(-1.000000, -4.000000)" id="Group">
                        <g>
                            <path d="M0.433,23.631 L23.357,0.721 C23.163,0.667 22.968,0.611 22.777,0.557 L0.433,22.887 L0.433,23.631 L0.433,23.631 Z" id="Shape" fill="#90AEEA"></path>
                            <path d="M0.433,28.903 L27.416,1.935 C27.228,1.874 27.041,1.813 26.853,1.754 L0.433,28.16 L0.433,28.903 Z" id="Shape" fill="#90AEEA"></path>
                            <path d="M0.433,34.171 L31.326,3.296 C31.145,3.228 30.963,3.165 30.782,3.098 L0.432,33.431 L0.432,34.171 L0.433,34.171 Z" id="Shape" fill="#90AEEA"></path>
                            <path d="M0.433,39.44 L35.023,4.826 C34.852,4.749 34.683,4.67 34.509,4.595 L0.433,38.697 L0.433,39.44 Z" id="Shape" fill="#90AEEA"></path>
                            <path d="M38.103,6.322 L0.433,43.972 L0.433,44.02 C0.492,44.193 0.55,44.364 0.612,44.536 L38.584,6.584 C38.424,6.497 38.265,6.408 38.103,6.322 Z" id="Shape" fill="#90AEEA"></path>
                            <path d="M2.045,48.379 L41.843,8.554 C41.695,8.455 41.542,8.36 41.392,8.262 L1.826,47.855 C1.896,48.032 1.973,48.204 2.045,48.379 Z" id="Shape" fill="#90AEEA"></path>
                            <path d="M3.674,52.016 L44.897,10.817 C44.762,10.705 44.632,10.586 44.496,10.476 L3.438,51.51 C3.518,51.677 3.592,51.849 3.674,52.016 Z" id="Shape" fill="#90AEEA"></path>
                            <path d="M46.208,13.996 L5.268,54.966 C5.36,55.121 5.451,55.278 5.544,55.432 L46.208,14.74 L46.208,13.996 Z" id="Shape" fill="#90AEEA"></path>
                            <path d="M7.627,58.606 L50.085,16.17 C49.979,16.03 49.876,15.884 49.768,15.747 L7.313,58.178 C7.413,58.323 7.523,58.462 7.627,58.606 Z" id="Shape" fill="#90AEEA"></path>
                            <path d="M51.078,19.707 L9.54,61.222 C9.646,61.362 9.759,61.496 9.867,61.636 L51.078,20.449 L51.078,19.707 L51.078,19.707 Z" id="Shape" fill="#90AEEA"></path>
                            <polygon id="Shape" fill="#90AEEA" points="51.078 24.98 14.147 61.891 14.89 61.891 51.078 25.722"></polygon>
                            <polygon id="Shape" fill="#90AEEA" points="51.078 30.231 15.528 65.806 15.528 66.548 51.078 30.975"></polygon>
                            <path d="M51.078,35.521 L16.692,69.885 C16.806,70.018 16.921,70.154 17.035,70.286 L51.078,36.262 L51.078,35.521 Z" id="Shape" fill="#90AEEA"></path>
                            <path d="M51.078,40.791 L19.124,72.727 C19.238,72.861 19.352,72.994 19.466,73.127 L51.078,41.533 L51.078,40.791 L51.078,40.791 Z" id="Shape" fill="#90AEEA"></path>
                        </g>
                    </g>
                </g>
                <g mask="url(#mask-2)" id="Clipped">
                    <g transform="translate(-10.000000, -8.000000)">
                        <g transform="translate(0.000000, 1.000000)">
                            <path d="M48.866,21.39 C51.972,24.414 53.235,28.954 52.158,33.243 L50.262,39.899 L51.151,77.639 L21.951,77.639 C21.951,77.639 20.696,53.272 22.789,43.23 C23.327,40.646 24.762,36.551 24.762,36.551 C24.762,36.551 15.577,32.896 8.455,26.967 L0.898,0.258 C1.327,0.528 26.984,0.89 26.984,0.89 L48.866,21.39 Z" id="Shape" fill="#90AEEA"></path>
                        </g>
                        <g transform="translate(28.000000, 39.000000)">
                            <path d="M3.484,10.065 C4.205,10.475 4.613,11.279 4.523,12.111 L1.423,41.282 L9,41.282 L12.01,12.926 C12.101,12.093 12.67,11.397 13.463,11.151 C15.407,10.55 16.777,8.851 16.957,6.823 C17.186,4.195 15.325,1.838 12.72,1.456 C11.711,1.308 10.699,1.466 9.794,1.914 C9.552,2.033 9.26,2.001 9.05,1.833 C8.26,1.201 7.306,0.83 6.29,0.756 C3.663,0.568 1.34,2.472 1.002,5.088 C0.74,7.106 1.715,9.062 3.484,10.065 Z" id="Shape" fill="#4D7EDD"></path>
                        </g>
                        <g transform="translate(30.000000, 40.000000)">
                            <path d="M2.104,7.976 C3.26,8.633 3.915,9.917 3.772,11.247 L0.687,40.648 L5.739,40.648 L8.764,11.79 C8.909,10.46 9.822,9.344 11.094,8.952 C12.549,8.501 13.574,7.229 13.707,5.711 C13.879,3.746 12.487,1.982 10.539,1.697 C9.784,1.586 9.027,1.704 8.351,2.039 C7.674,2.372 6.857,2.283 6.268,1.812 C5.677,1.339 4.962,1.062 4.203,1.006 C2.238,0.867 0.5,2.291 0.248,4.247 C0.051,5.759 0.779,7.223 2.104,7.976 Z" id="Shape" fill="#FFFFFF"></path>
                        </g>
                        <g transform="translate(30.000000, 42.000000)">
                            <path d="M2.684,0.674 C2.435,0.434 2.038,0.443 1.797,0.692 C1.344,1.165 1.067,1.758 0.996,2.41 C0.958,2.756 1.206,3.064 1.551,3.101 C1.895,3.138 2.205,2.89 2.243,2.545 C2.283,2.173 2.441,1.832 2.7,1.563 C2.942,1.313 2.935,0.916 2.684,0.674 L2.684,0.674 Z" id="Shape" fill="#4D7EDD"></path>
                        </g>
                        <g transform="translate(33.000000, 41.000000)">
                            <path d="M1.229,0.809 C1.093,0.793 0.957,0.788 0.822,0.793 C0.475,0.803 0.204,1.092 0.213,1.439 C0.223,1.755 0.466,2.01 0.773,2.044 C0.801,2.047 0.831,2.048 0.861,2.047 C0.938,2.046 1.016,2.048 1.094,2.058 C1.439,2.093 1.748,1.844 1.784,1.5 C1.821,1.156 1.573,0.847 1.229,0.809 L1.229,0.809 Z" id="Shape" fill="#4D7EDD"></path>
                        </g>
                        <g transform="translate(0.000000, 1.000000)">
                            <path d="M34.217,15.883 C32.758,14.464 30.613,14.072 28.747,14.886 C27.985,15.219 27.1,15.065 26.487,14.494 L11.113,0.258 L0.898,0.995 L21.347,20.005 C21.958,20.576 22.175,21.451 21.897,22.233 C21.212,24.15 21.751,26.267 23.267,27.626 C25.231,29.385 28.232,29.308 30.1,27.449 C30.821,26.73 31.3,25.825 31.487,24.83 C31.536,24.565 31.736,24.351 31.997,24.283 C32.915,24.046 33.736,23.555 34.384,22.86 C34.428,22.813 34.471,22.767 34.512,22.718 C36.236,20.724 36.106,17.723 34.217,15.883 Z" id="Shape" fill="#4D7EDD"></path>
                        </g>
                        <g transform="translate(1.000000, 0.000000)">
                            <path d="M32.343,17.785 C31.252,16.721 29.645,16.429 28.248,17.039 C27.028,17.572 25.609,17.325 24.632,16.412 L7.783,0.67 L0.422,0.67 L21.204,20.086 C22.183,21 22.524,22.401 22.077,23.653 C21.566,25.091 21.97,26.674 23.105,27.689 C24.573,29.006 26.817,28.948 28.215,27.558 C28.755,27.02 29.114,26.344 29.253,25.599 C29.321,25.229 29.497,24.893 29.746,24.626 C29.994,24.359 30.316,24.16 30.682,24.066 C31.414,23.878 32.064,23.471 32.563,22.894 C33.854,21.405 33.755,19.159 32.343,17.785 Z" id="Shape" fill="#FFFFFF"></path>
                        </g>
                        <g transform="translate(10.000000, 8.000000)"></g>
                        <g transform="translate(31.000000, 26.000000)">
                            <path d="M6.697,12.193 C3.375,12.193 0.672,9.489 0.672,6.164 C0.672,2.84 3.375,0.136 6.697,0.136 C10.019,0.136 12.721,2.84 12.721,6.164 C12.722,9.489 10.02,12.193 6.697,12.193 Z" id="Shape" fill="#4D7EDD"></path>
                        </g>
                        <g transform="translate(32.000000, 27.000000)">
                            <path d="M5.697,0.316 C3.025,0.316 0.85,2.489 0.85,5.164 C0.85,7.838 3.025,10.014 5.697,10.014 C8.368,10.014 10.543,7.838 10.543,5.164 C10.543,2.489 8.368,0.316 5.697,0.316 Z" id="Shape" fill="#FFFFFF"></path>
                        </g>
                        <g transform="translate(9.000000, 27.000000)">
                            <path d="M13.231,17.113 C11.703,24.452 11.701,30.087 11.822,32.692 C11.836,33.006 12.443,50.195 12.459,50.42 L13.602,50.42 C13.586,50.201 12.98,33.011 12.965,32.69 C12.851,30.157 12.847,24.538 14.346,17.347 C14.868,14.827 16.283,10.78 16.297,10.74 L16.478,10.225 L15.971,10.024 C15.882,9.988 7.12,6.463 0.21,0.849 L0.21,2.294 C6.158,6.93 13.143,10.06 15.05,10.871 C14.647,12.055 13.664,15.034 13.231,17.113 Z" id="Shape" fill="#4D7EDD"></path>
                        </g>
                        <g transform="translate(26.000000, 2.000000)">
                            <path d="M25.611,32.086 L23.692,38.826 L24.502,76.333 L25.638,76.333 L24.832,38.974 L26.708,32.382 C27.836,27.899 26.515,23.149 23.254,19.976 L2.02,0.01 L0.355,0.01 L22.471,20.798 C25.432,23.681 26.634,28.014 25.611,32.086 Z" id="Shape" fill="#4D7EDD"></path>
                        </g>
                    </g>
                </g>
                <g id="path-1_3_" mask="url(#mask-2)" fill="#4D7EDD">
                    <path d="M24.011,69 L4.757,40.99 C-2.402,31.38 -1.348,15.527 7.027,7.084 C11.566,2.516 17.599,0 24.011,0 C30.419,0 36.449,2.516 40.989,7.084 C49.361,15.527 50.401,31.398 43.215,41.05 L24.011,69 Z M24.011,1.267 C17.939,1.267 12.225,3.651 7.924,7.978 C-0.041,16.007 -1.041,31.089 5.786,40.252 L24.011,66.763 L42.185,40.313 C49.039,31.108 48.053,16.008 40.09,7.978 C35.79,3.65 30.079,1.267 24.011,1.267 Z" id="Shape"></path>
                </g>
            </g>
        </g>
    </g>
</svg>