<?xml version="1.0" encoding="UTF-8" standalone="no"?>
<svg width="26px" height="26px" viewBox="0 0 26 26" version="1.1" xmlns="http://www.w3.org/2000/svg" xmlns:xlink="http://www.w3.org/1999/xlink">
    <!-- Generator: Sketch 41 (35326) - http://www.bohemiancoding.com/sketch -->
    <title>Page 1</title>
    <desc>Created with Sketch.</desc>
    <defs></defs>
    <g id="Page-1" stroke="none" stroke-width="1" fill="none" fill-rule="evenodd">
        <g id="Contacts" transform="translate(-32.000000, -458.000000)" fill="#4D7EDD">
            <g id="Group-9" transform="translate(32.000000, 358.000000)">
                <g id="Page-1" transform="translate(0.000000, 100.000000)">
                    <path d="M12.9734447,4.14460235 C13.283682,4.14460235 13.5377769,3.90108333 13.5377769,3.60343018 L13.5377769,3.33242117 C13.5377769,3.03476802 13.283682,2.791249 12.9734447,2.791249 C12.6632956,2.791249 12.4095532,3.03476802 12.4095532,3.33242117 L12.4095532,3.60343018 C12.4095532,3.90108333 12.6632956,4.14460235 12.9734447,4.14460235" id="Fill-1"></path>
                    <path d="M12.9734447,20.9259725 C12.6632956,20.9259725 12.4095532,21.1699144 12.4095532,21.4675676 L12.4095532,21.7382382 C12.4095532,22.0358914 12.6632956,22.2793258 12.9734447,22.2793258 C13.283682,22.2793258 13.5377769,22.0358914 13.5377769,21.7382382 L13.5377769,21.4675676 C13.5377769,21.1699144 13.283682,20.9259725 12.9734447,20.9259725" id="Fill-3"></path>
                    <path d="M3.66662576,11.9941195 L3.38423932,11.9941195 C3.07409017,11.9941195 2.8203478,12.2376385 2.8203478,12.5352916 C2.8203478,12.8330294 3.07409017,13.0768867 3.38423932,13.0768867 L3.66662576,13.0768867 C3.97677492,13.0768867 4.23051729,12.8330294 4.23051729,12.5352916 C4.23051729,12.2376385 3.97677492,11.9941195 3.66662576,11.9941195" id="Fill-5"></path>
                    <path d="M22.5627119,11.9941195 L22.2807661,11.9941195 C21.9705288,11.9941195 21.7164339,12.2376385 21.7164339,12.5352916 C21.7164339,12.8330294 21.9705288,13.0768867 22.2807661,13.0768867 L22.5627119,13.0768867 C22.8729492,13.0768867 23.1266034,12.8330294 23.1266034,12.5352916 C23.1266034,12.2376385 22.8729492,11.9941195 22.5627119,11.9941195" id="Fill-7"></path>
                    <path d="M6.59949627,5.66051882 C6.37395729,5.44372853 6.03551661,5.44372853 5.81006576,5.66051882 C5.58417424,5.87688619 5.58417424,6.20169099 5.81006576,6.41814294 L6.00731322,6.60778158 C6.12021492,6.7157961 6.26105559,6.77001481 6.40224881,6.77001481 C6.54300136,6.77001481 6.68419458,6.7157961 6.79709627,6.60778158 C7.02263525,6.39107588 7.02263525,6.06627107 6.79709627,5.84981912 L6.59949627,5.66051882 Z" id="Fill-9"></path>
                    <path d="M6.00733966,18.4631908 L5.8100922,18.6524911 C5.58420068,18.868943 5.58420068,19.1940862 5.8100922,19.410369 C5.92264136,19.5188064 6.06383458,19.5726022 6.20458712,19.5726022 C6.34578034,19.5726022 6.48697356,19.5188064 6.59952271,19.410369 L6.79712271,19.2208149 C7.02266169,19.004363 7.02266169,18.6796427 6.79712271,18.4631908 C6.57131932,18.2464005 6.23287864,18.2464005 6.00733966,18.4631908" id="Fill-11"></path>
                    <path d="M19.3474814,5.66051882 L19.1502339,5.84981912 C18.9243424,6.06627107 18.9243424,6.39107588 19.1502339,6.60778158 C19.2627831,6.7157961 19.4039763,6.77001481 19.5450814,6.77001481 C19.685922,6.77001481 19.8270271,6.7157961 19.9396644,6.60778158 L20.1372644,6.41814294 C20.3628034,6.20169099 20.3628034,5.87688619 20.1372644,5.66051882 C19.9117254,5.44372853 19.5730203,5.44372853 19.3474814,5.66051882" id="Fill-13"></path>
                    <path d="M13.5377681,12.3189158 L13.5377681,7.39245586 C13.5377681,7.0948027 13.2836732,6.85128368 12.9734359,6.85128368 C12.6633749,6.85128368 12.4095444,7.0948027 12.4095444,7.39245586 L12.4095444,12.5352832 C12.4095444,12.6707877 12.4659512,12.8058693 12.5786766,12.9143067 L18.7553071,18.8421636 C18.8679444,18.9501781 19.0090495,19.0043968 19.1502427,19.0043968 C19.2909953,19.0043968 19.4321885,18.9501781 19.5450902,18.8421636 C19.7706292,18.6254579 19.7706292,18.3005685 19.5450902,18.0842011 L13.5377681,12.3189158 Z" id="Fill-15"></path>
                    <path d="M12.9999294,24.0333115 C6.44356202,24.0333115 1.1305005,18.9169276 1.1305005,12.603027 C1.1305005,6.28946657 6.44356202,1.17316773 12.9999294,1.17316773 C19.5567384,1.17316773 24.8697999,6.28946657 24.8697999,12.603027 C24.8697999,18.9169276 19.5567384,24.0333115 12.9999294,24.0333115 M12.9999294,0.0845084585 C5.8219091,0.0845084585 -2.64406772e-05,5.6908358 -2.64406772e-05,12.603027 C-2.64406772e-05,19.5155583 5.8219091,25.1215455 12.9999294,25.1215455 C20.1783913,25.1215455 25.9999736,19.5155583 25.9999736,12.603027 C25.9999736,5.6908358 20.1783913,0.0845084585 12.9999294,0.0845084585" id="Fill-17"></path>
                </g>
            </g>
        </g>
    </g>
</svg>