<?xml version="1.0" encoding="UTF-8" standalone="no"?>
<svg width="128px" height="127px" viewBox="0 0 128 127" version="1.1" xmlns="http://www.w3.org/2000/svg" xmlns:xlink="http://www.w3.org/1999/xlink">
    <!-- Generator: Sketch 41 (35326) - http://www.bohemiancoding.com/sketch -->
    <title>Group 9</title>
    <desc>Created with Sketch.</desc>
    <defs></defs>
    <g id="Page-1" stroke="none" stroke-width="1" fill="none" fill-rule="evenodd">
        <g id="Education" transform="translate(-30.000000, -199.000000)">
            <g id="Group-9" transform="translate(32.000000, 200.000000)">
                <g id="Group-3" transform="translate(17.000000, 20.000000)">
                    <path d="M80.3225806,80.3192339 L69.6129032,80.3192339 L69.6129032,74.9643952 L66.9354839,74.9643952 L66.9354839,80.3192339 L62.9193548,80.3192339 L62.9193548,69.9509274 L70.2635161,56.4875242 C76.2542419,58.4701532 80.3225806,64.0083952 80.3225806,70.4475887 L80.3225806,80.3192339 Z M21.2627258,80.3192339 L20.159629,71.4917823 C21.1114516,70.6149274 21.8490806,69.5145081 22.2895161,68.2708468 L29.4516129,68.2708468 L29.4516129,57.6789758 L36.1451613,69.9509274 L36.1451613,80.3192339 L32.1290323,80.3192339 L32.1290323,74.9643952 L29.4516129,74.9643952 L29.4516129,80.3192339 L21.2627258,80.3192339 Z M6.69354839,65.5934274 L2.67741935,65.5934274 L2.67741935,33.4643952 L26.7741935,33.4643952 L26.7741935,65.5934274 L22.7580645,65.5934274 C22.7580645,61.1636371 19.1555968,57.5611694 14.7258065,57.5611694 C10.2960161,57.5611694 6.69354839,61.1636371 6.69354839,65.5934274 Z M49.5322581,50.867621 C51.9231935,50.867621 54.1856129,50.328121 56.2258065,49.3883468 L56.2258065,50.0402984 L49.5322581,53.3870726 L42.8387097,50.0402984 L42.8387097,49.3883468 C44.8789032,50.328121 47.1413226,50.867621 49.5322581,50.867621 Z M36.1451613,34.8031048 L36.1451613,26.7708468 L62.9193548,26.7708468 L62.9193548,34.8031048 C62.9193548,42.18475 56.9139032,48.1902016 49.5322581,48.1902016 C42.1506129,48.1902016 36.1451613,42.18475 36.1451613,34.8031048 Z M74.9677419,21.4160081 L72.2903226,21.4160081 L72.2903226,20.0772984 C72.2903226,19.3383306 72.8900645,18.7385887 73.6290323,18.7385887 C74.368,18.7385887 74.9677419,19.3383306 74.9677419,20.0772984 L74.9677419,21.4160081 Z M49.5322581,57.1140403 L51.7505,60.07125 L49.5322581,64.1369113 L47.3140161,60.07125 L49.5322581,57.1140403 Z M43.7155645,53.4714113 L47.5000968,55.3630081 L45.9070323,57.4875403 L43.7155645,53.4714113 Z M53.1588226,57.488879 L51.5657581,55.3643468 L55.3502903,53.47275 L53.1588226,57.488879 Z M69.3719355,53.4593629 L58.9032258,51.1326855 L58.9032258,47.8247339 C62.9488065,44.9050081 65.5967742,40.1632984 65.5967742,34.8031048 L65.5967742,26.7708468 L66.9354839,26.7708468 L66.9354839,15.8309113 C66.9354839,15.302121 66.8846129,14.7719919 66.8016129,14.2418629 L72.2903226,12.5269758 L72.2903226,16.3074919 C70.7360806,16.8617177 69.6129032,18.3342984 69.6129032,20.0772984 L69.6129032,24.0934274 L77.6451613,24.0934274 L77.6451613,20.0772984 C77.6451613,18.3342984 76.5219839,16.8617177 74.9677419,16.3074919 L74.9677419,9.36762097 C74.9677419,7.97670161 74.0761613,6.76516935 72.7508387,6.35284677 L55.1642097,0.857443548 C51.5135484,-0.285814516 47.549629,-0.285814516 43.9003065,0.857443548 L26.3136774,6.35150806 C24.9883548,6.76516935 24.0967742,7.97670161 24.0967742,9.36762097 C24.0967742,10.7585403 24.9883548,11.9700726 26.3136774,12.3823952 L32.2629032,14.2418629 C32.1799032,14.7719919 32.1290323,15.302121 32.1290323,15.8309113 L32.1290323,26.7708468 L33.4677419,26.7708468 L33.4677419,34.8031048 C33.4677419,40.1632984 36.1157097,44.9050081 40.1612903,47.8247339 L40.1612903,51.1326855 L29.6925806,53.4580242 C29.6149355,53.4754274 29.5305968,53.5008629 29.4516129,53.5209435 L29.4516129,30.7869758 L0,30.7869758 L0,68.2708468 L7.16209677,68.2708468 C7.60387097,69.5145081 8.3415,70.6149274 9.29198387,71.4917823 L7.85420968,82.9966532 L10.9265484,82.9966532 L14.7258065,81.7302339 L18.5250645,82.9966532 L83,82.9966532 L83,70.4475887 C83,62.2265726 77.3961613,55.2425242 69.3719355,53.4593629 L69.3719355,53.4593629 Z" id="Fill-1" fill="#4D7EDD"></path>
                    <path d="M26.7741935,9.36762097 C26.7741935,9.15610484 26.9107419,8.9713629 27.1115484,8.90710484 L44.6981774,3.41170161 C46.2658065,2.92307258 47.891,2.67407258 49.5322581,2.67407258 C51.1735161,2.67407258 52.7987097,2.92307258 54.3663387,3.41170161 L71.9529677,8.90844355 C72.1537742,8.9713629 72.2903226,9.15610484 72.2903226,9.36762097 C72.2903226,9.5791371 72.1537742,9.76387903 71.9529677,9.8281371 L54.3663387,15.3235403 C51.2310806,16.3007984 47.8320968,16.3007984 44.6968387,15.3235403 L27.1115484,9.82679839 C26.9107419,9.76387903 26.7741935,9.5791371 26.7741935,9.36762097 Z" id="Path" stroke="#7A9EE6" fill="#7A9EE6"></path>
                    <path d="M14.7258065,78.9082339 L10.905129,80.1813468 L11.7940323,73.0634274 C12.7043548,73.4222016 13.6909839,73.6256855 14.7258065,73.6256855 C15.760629,73.6256855 16.7472581,73.4222016 17.6575806,73.0634274 L18.5478226,80.1813468 L14.7258065,78.9082339 Z" id="Path" fill="#4D7EDD"></path>
                    <path d="M14.75,72 C11.303125,72 8.5,69.309 8.5,66 C8.5,62.691 11.303125,60 14.75,60 C18.196875,60 21,62.691 21,66 C21,69.309 18.196875,72 14.75,72 Z" id="Path" fill="#7A9EE6"></path>
                    <polygon id="Path" stroke="#7A9EE6" fill="#7A9EE6" points="40.8065484 53.731121 48.1935484 67.2735081 48.1935484 80.3192339 38.8225806 80.3192339 38.8225806 69.2681855 31.4784194 55.8047823"></polygon>
                    <polygon id="Path" stroke="#7A9EE6" fill="#7A9EE6" points="67.5860968 55.8047823 60.2419355 69.2681855 60.2419355 80.3192339 50.8709677 80.3192339 50.8709677 67.2735081 58.2579677 53.7324597"></polygon>
                    <polygon id="Fill-4" fill="#4D7EDD" points="16.0645161 38.1418145 24.0967742 38.1418145 24.0967742 36.1418145 16.0645161 36.1418145"></polygon>
                    <polygon id="Fill-5" fill="#4D7EDD" points="5.35483871 43.4966532 24.0967742 43.4966532 24.0967742 41.4966532 5.35483871 41.4966532"></polygon>
                    <polygon id="Fill-6" fill="#4D7EDD" points="5.35483871 48.8514919 24.0967742 48.8514919 24.0967742 46.8514919 5.35483871 46.8514919"></polygon>
                    <polygon id="Fill-7" fill="#4D7EDD" points="5.35483871 54.2063306 16.0645161 54.2063306 16.0645161 52.2063306 5.35483871 52.2063306"></polygon>
                    <path d="M43.9003065,17.8777984 C45.7249677,18.4494274 47.6192419,18.7385887 49.5322581,18.7385887 C51.4452742,18.7385887 53.3395484,18.4494274 55.1642097,17.8777984 L64.2031774,15.0544597 C64.2299516,15.3141694 64.2580645,15.573879 64.2580645,15.8309113 L64.2580645,24.0934274 L34.8064516,24.0934274 L34.8064516,15.8309113 C34.8064516,15.5725403 34.8345645,15.3128306 34.8626774,15.053121 L43.9003065,17.8777984 Z" id="Path" stroke="#7A9EE6" fill="#7A9EE6"></path>
                </g>
                <circle id="Oval" stroke="#4D7EDD" stroke-width="2.5" cx="62" cy="62.5" r="62"></circle>
            </g>
        </g>
    </g>
</svg>