<?xml version="1.0" encoding="UTF-8" standalone="no"?>
<svg width="124px" height="124px" viewBox="0 0 124 124" version="1.1" xmlns="http://www.w3.org/2000/svg" xmlns:xlink="http://www.w3.org/1999/xlink">
    <!-- Generator: Sketch 41 (35326) - http://www.bohemiancoding.com/sketch -->
    <title>Page 1 Copy 3</title>
    <desc>Created with Sketch.</desc>
    <defs></defs>
    <g id="Page-1" stroke="none" stroke-width="1" fill="none" fill-rule="evenodd">
        <g id="Team" transform="translate(-31.000000, -186.000000)">
            <g id="Page-1-Copy-3" transform="translate(32.000000, 187.000000)">
                <path d="M78.3792965,119.494643 C76.9425646,119.927634 75.5004007,120.311607 74.0337934,120.608438 C69.8784061,121.537054 65.5600623,122 61.1602404,122 L60.8343277,122 C56.4345058,122 52.1161621,121.537054 47.9634907,120.608438 C46.4968833,120.311607 45.030276,119.927634 43.5881122,119.464687 C18.4113535,112.033036 0,88.6106696 0,61 C0,27.3655804 27.2924755,2.13162821e-14 60.8343277,2.13162821e-14 L61.1602404,2.13162821e-14 C94.7048085,2.13162821e-14 122,27.3655804 122,61 C122,88.640625 103.583215,112.033036 78.3792965,119.494643" id="Fill-1" stroke="#4D7EDD" stroke-width="2"></path>
                <path d="M96.2006588,103.54933 L83.9995196,103.54933 L83.9995196,97.6463289 L81.8927395,97.6463289 C83.1739638,96.5618264 83.9995196,94.9911905 83.9995196,93.217667 C83.9995196,90.4745331 82.0495471,88.1839948 79.4249931,87.524859 L79.4249931,76.0366371 L83.0655366,76.8199627 C90.799204,78.4825787 96.2006588,84.9992234 96.2006588,92.6667822 L96.2006588,103.54933 Z M80.9505215,103.54933 L41.3008509,103.54933 L41.3008509,97.6463289 L38.2501372,97.6463289 L38.2501372,103.54933 L26.0507137,103.54933 L26.0507137,92.6667822 C26.0507137,84.9992234 31.4521685,78.4825787 39.1844634,76.8199627 L42.8246637,76.0366371 L42.8246637,87.3146661 L38.2501372,87.3146661 C34.8861515,87.3146661 32.1504255,89.9634954 32.1504255,93.217667 L32.1504255,100.596999 L36.724952,100.596999 L36.724952,97.6463289 L35.2011392,97.6463289 L35.2011392,93.217667 C35.2011392,91.589917 36.5681444,90.2669967 38.2501372,90.2669967 L50.4499039,90.2669967 C52.1318968,90.2669967 53.5006176,91.589917 53.5006176,93.217667 L53.5006176,97.6463289 L51.9750892,97.6463289 L51.9750892,100.596999 L56.5496157,100.596999 L56.5496157,93.217667 C56.5496157,89.9621671 53.8142328,87.3146661 50.4499039,87.3146661 L45.8753774,87.3146661 L45.8753774,75.3801578 L48.5788498,74.7990557 L47.2746363,83.6294828 L61.1255147,92.0076464 L74.9757068,83.6294828 L73.6711502,74.7990557 L76.3759951,75.3801578 L76.3759951,87.524859 C73.7500686,88.1839948 71.8000961,90.4745331 71.8000961,93.217667 C71.8000961,96.4734988 74.535479,99.1209999 77.8998079,99.1209999 C79.0163327,99.1209999 80.0484491,98.8082009 80.9505215,98.3011479 L80.9505215,103.54933 Z M53.5006176,72.147902 L53.5006176,69.4499281 C55.8245951,70.4859501 58.4021411,71.0816628 61.1255147,71.0816628 C63.8492314,71.0816628 66.4264343,70.4859501 68.7507549,69.4499281 L68.7507549,72.147902 L61.1255147,84.4470104 L53.5006176,72.147902 Z M45.8753774,53.3706678 L45.8753774,38.5319774 C45.8753774,35.3216375 48.5747324,32.7093346 51.8920533,32.7093346 C54.7509607,32.7093346 57.2320889,34.6784405 57.792067,37.3903609 L58.3510156,40.0883348 L63.9013862,40.0883348 L64.4589624,37.3903609 C65.0192836,34.6784405 67.5000686,32.7093346 70.3589761,32.7093346 C73.6759539,32.7093346 76.3759951,35.3216375 76.3759951,38.5319774 L76.3759951,53.3706678 C76.3759951,61.5090853 69.5347928,68.1293322 61.1255147,68.1293322 C52.7162366,68.1293322 45.8753774,61.5090853 45.8753774,53.3706678 L45.8753774,53.3706678 Z M71.8000961,71.373542 L71.8000961,67.7258813 C76.4092781,64.5079041 79.4249931,59.2803098 79.4249931,53.3706678 L79.4249931,52.7351082 C83.1993549,50.5431912 85.525048,46.659769 85.525048,42.3453352 L85.525048,28.8049929 C85.525048,21.1922237 79.1261323,15 71.2596761,15 L52.0262147,15 C48.5867417,15 45.541518,16.9963347 44.2657837,20.0818206 L43.8982981,20.9730652 C43.415866,22.1432387 42.5083036,23.0965782 41.3437414,23.6580888 C38.4954708,25.0381232 36.724952,27.8101461 36.724952,30.8933077 L36.724952,42.3453352 C36.724952,46.6584408 39.0503019,50.5445194 42.8246637,52.7351082 L42.8246637,53.3706678 C42.8246637,59.2789816 45.8417513,64.5079041 50.4499039,67.7258813 L50.4499039,71.373542 L38.5249794,73.9363682 C29.3838183,75.9041458 23,83.602254 23,92.6667822 L23,106.5 L99.25,106.5 L99.25,92.6667822 C99.25,83.6039143 92.8672111,75.9041458 83.72605,73.9376964 L71.8000961,71.373542 Z" id="Fill-1" stroke="#FFFFFF" stroke-width="1.5" fill="#4D7EDD"></path>
                <path d="M78.0493412,90 C79.7313341,90 81.1000549,91.3229204 81.1000549,92.9506703 C81.1000549,94.5787523 79.7313341,95.9030009 78.0493412,95.9030009 C76.3673483,95.9030009 75,94.5787523 75,92.9506703 C75,91.3229204 76.3673483,90 78.0493412,90 L78.0493412,90 Z" id="Path" fill="#7A9EE6"></path>
                <polygon id="Path" fill="#638EE1" points="59.905092 87.6361475 51 82.2521538 52.0695169 75"></polygon>
                <path d="M43.0489981,38.5809751 L43.0489981,49.1510557 C41.1271617,47.438963 40,45.0146051 40,42.3930046 L40,30.9409771 C40,28.9838253 41.1230442,27.2209277 42.9337085,26.3479463 C44.7632446,25.4620147 46.1923552,23.9614431 46.9575213,22.1195156 L47.3246637,21.228271 C48.1344359,19.2671346 50.0682816,18 52.250549,18 L71.4853829,18 C77.6684738,18 82.7000412,22.8693033 82.7000412,28.8539905 L82.7000412,42.3943329 C82.7000412,45.0159334 81.5728795,47.4402912 79.6493275,49.1523839 L79.6493275,38.5823033 C79.6493275,33.7428852 75.5829673,29.80733 70.5833105,29.80733 C66.2757343,29.80733 62.5374005,32.773939 61.6929728,36.8595847 L61.6260637,37.1866621 L61.0750069,37.1866621 L61.0080977,36.8595847 C60.1636701,32.773939 56.4256794,29.80733 52.1163876,29.80733 C47.1170738,29.80733 43.0489981,33.7428852 43.0489981,38.5809751 L43.0489981,38.5809751 Z" id="Path" fill="#638EE1"></path>
                <polygon id="Path" fill="#638EE1" points="70.8355751 75 71.9064645 82.2494974 63 87.6351514"></polygon>
            </g>
        </g>
    </g>
</svg>