<?xml version="1.0" encoding="UTF-8" standalone="no"?>
<svg width="20px" height="20px" viewBox="0 0 20 20" version="1.1" xmlns="http://www.w3.org/2000/svg" xmlns:xlink="http://www.w3.org/1999/xlink">
    <!-- Generator: Sketch 41 (35326) - http://www.bohemiancoding.com/sketch -->
    <title>Fill 1</title>
    <desc>Created with Sketch.</desc>
    <defs></defs>
    <g id="Page-1" stroke="none" stroke-width="1" fill="none" fill-rule="evenodd">
        <g id="index" transform="translate(-240.000000, -14.000000)" fill="#FFFFFF">
            <g id="Group-2">
                <path d="M258.470527,30.6519856 C258.317463,30.8098247 258.154397,30.9630341 257.996394,31.1160583 C257.680203,31.4271067 257.349317,31.7433403 257.043004,32.0887096 C256.56881,32.6174117 255.971189,32.8393863 255.141411,32.7951272 C254.059717,32.7358064 252.928566,32.4048197 251.589954,31.7532168 C249.041098,30.513591 246.813311,28.7703865 244.960989,26.5680476 C243.474315,24.8000901 242.422197,23.0468857 241.735479,21.2000395 C241.315682,20.0691171 241.157678,19.1950457 241.216953,18.3653569 C241.256345,17.8271487 241.448987,17.4123969 241.824514,17.0567807 C242.145583,16.7505471 242.456712,16.4346838 242.763024,16.1284502 C242.965297,15.9258583 243.173066,15.7137601 243.375402,15.515983 C243.528465,15.367897 243.770625,15.1851198 244.062057,15.1851198 C244.353366,15.1851198 244.595588,15.3628353 244.753467,15.515983 C245.040021,15.797587 245.326637,16.0841294 245.603251,16.3654248 L245.998227,16.7604853 C246.121715,16.88388 246.245204,17.0073981 246.368692,17.125978 C246.645367,17.4025204 246.931983,17.6839392 247.208596,17.9652964 C247.68279,18.4444307 247.687545,18.9086268 247.213412,19.3876994 L246.92692,19.6789948 C246.526942,20.0838701 246.111836,20.4988071 245.697102,20.8989293 C245.484578,21.1062126 245.272364,21.4568288 245.484578,21.960531 C245.805524,22.7358372 246.274902,23.4816374 246.951679,24.3160175 C248.211196,25.8616301 249.52017,27.0519968 250.952817,27.950636 C251.174911,28.0887219 251.402129,28.2022401 251.624531,28.3111287 C251.752773,28.3752643 251.876262,28.4345851 251.994995,28.4987207 C252.148121,28.5825476 252.301184,28.6221771 252.454371,28.6221771 C252.701347,28.6221771 252.928566,28.518412 253.126085,28.3111287 C253.5904,27.8318709 254.06941,27.3579835 254.538727,26.8937874 L254.657399,26.780084 C254.810339,26.6271215 255.052499,26.449406 255.338992,26.449406 C255.625546,26.449406 255.872522,26.6321832 256.025647,26.780084 C256.830728,27.5802667 257.665508,28.4100173 258.500226,29.2492122 C258.939967,29.7087169 258.939967,30.1826044 258.470527,30.6519856 M256.840669,25.9357039 C256.396112,25.4961374 255.867459,25.2592245 255.319234,25.2592245 C254.770946,25.2592245 254.247419,25.4912608 253.802861,25.9308891 L253.684189,26.0444073 C253.249573,26.4738504 252.805077,26.9134787 252.370214,27.3630452 C252.286304,27.3186626 252.207395,27.2789714 252.123238,27.2395888 C251.920902,27.1407002 251.732954,27.0468116 251.560317,26.9384169 C250.241279,26.1085429 249.026218,25.0023117 247.850549,23.5604643 C247.287381,22.8691702 246.892343,22.2518264 246.615668,21.6345443 C247.001198,21.2641751 247.376416,20.8791146 247.746881,20.5087453 L248.033373,20.2222647 C248.967067,19.2840578 248.961942,18.0740615 248.02831,17.1308545 L246.428028,15.5309212 C246.146598,15.2492554 245.860106,14.9580217 245.56855,14.6715411 C245.123931,14.2322832 244.595588,14 244.0473,14 C243.49889,14 242.9753,14.2322832 242.530681,14.6715411 C242.318467,14.8788862 242.110883,15.0913547 241.903423,15.2986997 C241.606928,15.5998716 241.300863,15.9111669 240.989488,16.2024623 C240.406809,16.7556088 240.0808,17.4567795 240.016648,18.2814065 C239.917734,19.5752914 240.278258,20.7457199 240.60439,21.619853 C241.340441,23.5952173 242.461528,25.4668165 244.03242,27.3380453 C245.993411,29.6691492 248.354504,31.5161805 251.051423,32.8294481 C252.538343,33.5505569 253.81274,33.9209262 255.057315,33.9901235 C255.151352,33.9949383 255.24014,34 255.329174,34 C256.386233,34 257.255466,33.6296308 257.912484,32.8935837 C258.193975,32.5825352 258.490347,32.2913016 258.811416,31.9802531 C258.969542,31.8221672 259.137486,31.6640813 259.30049,31.5012423 C260.229059,30.5629118 260.233937,29.353039 259.310431,28.4247086 C258.485531,27.5703902 257.650566,26.7357632 256.840669,25.9357039" id="Fill-1"></path>
            </g>
        </g>
    </g>
</svg>