<?xml version="1.0" encoding="UTF-8"?>
<svg width="84px" height="69px" viewBox="0 0 84 69" version="1.1" xmlns="http://www.w3.org/2000/svg" xmlns:xlink="http://www.w3.org/1999/xlink">
    <!-- Generator: Sketch 41 (35326) - http://www.bohemiancoding.com/sketch -->
    <title>Untitled-2</title>
    <desc>Created with Sketch.</desc>
    <defs></defs>
    <g id="Page-1" stroke="none" stroke-width="1" fill="none" fill-rule="evenodd">
        <g id="Untitled-2" fill="#FFFFFF">
            <g id="Group">
                <path d="M8.929,60.018 C8.983,59.993 9.061,59.957 9.135,59.922 L7.154,58.72 C7.156,58.8 7.165,58.878 7.173,58.951 L8.929,60.018 Z" id="Shape"></path>
                <path d="M4.73,55.364 C4.732,55.376 4.731,55.385 4.734,55.397 C4.756,55.493 4.797,55.575 4.841,55.652 L5.82,56.247 C5.931,56.262 6.05,56.286 6.211,56.369 C6.27,56.399 6.52,56.539 6.731,56.8 L13.55,60.938 C13.632,60.936 13.712,60.938 13.8,60.923 C13.822,60.919 13.836,60.908 13.857,60.903 L4.73,55.364 Z" id="Shape"></path>
                <path d="M2.204,51.971 C2.34,52.078 2.389,52.093 2.593,52.182 L2.132,51.903 C2.158,51.925 2.177,51.949 2.204,51.971 Z" id="Shape"></path>
                <path d="M4.666,53.44 C4.711,53.529 4.74,53.624 4.765,53.719 L15.246,60.078 C15.288,60.035 15.333,59.986 15.377,59.938 L4.666,53.44 Z" id="Shape"></path>
                <path d="M0.84,49.234 C0.839,49.306 0.835,49.377 0.841,49.454 L16.276,58.821 C16.315,58.772 16.356,58.724 16.401,58.677 L0.84,49.234 Z" id="Shape"></path>
                <path d="M17.939,57.944 C18.032,57.938 18.14,57.932 18.27,57.925 L1.333,47.648 C1.301,47.703 1.274,47.758 1.247,47.815 L17.939,57.944 Z" id="Shape"></path>
                <path d="M33.595,67.226 C33.615,67.315 33.635,67.403 33.665,67.488 L35.793,68.78 C35.905,68.778 36.017,68.773 36.129,68.765 L33.595,67.226 Z" id="Shape"></path>
                <path d="M21.691,58.337 C21.763,58.317 21.828,58.278 21.892,58.24 L2.565,46.512 C2.531,46.566 2.498,46.613 2.477,46.641 C2.47,46.651 2.462,46.655 2.455,46.664 L21.691,58.337 Z" id="Shape"></path>
                <path d="M33.944,65.554 C33.913,65.609 33.881,65.668 33.854,65.718 L38.521,68.549 C38.631,68.544 38.743,68.536 38.853,68.532 L33.944,65.554 Z" id="Shape"></path>
                <path d="M34.635,64.088 C34.611,64.148 34.587,64.207 34.564,64.264 L41.639,68.557 C41.768,68.563 41.897,68.569 42.029,68.576 L34.635,64.088 Z" id="Shape"></path>
                <path d="M22.246,56.641 C22.24,56.609 22.235,56.589 22.23,56.56 L0.534,43.395 C0.531,43.463 0.523,43.531 0.531,43.604 C0.531,43.606 0.532,43.61 0.532,43.612 L22.276,56.807 C22.267,56.755 22.258,56.703 22.246,56.641 Z" id="Shape"></path>
                <path d="M35.166,62.524 C35.148,62.587 35.131,62.65 35.113,62.712 L45.081,68.761 C45.207,68.768 45.334,68.773 45.471,68.779 L35.166,62.524 Z" id="Shape"></path>
                <path d="M21.714,54.581 C21.72,54.522 21.731,54.454 21.744,54.38 L1.173,41.896 C1.141,41.941 1.104,41.994 1.065,42.05 L21.714,54.581 Z" id="Shape"></path>
                <path d="M22.42,53.124 C22.466,53.083 22.51,53.042 22.566,52.995 L1.393,40.145 C1.402,40.211 1.409,40.289 1.415,40.376 L22.42,53.124 Z" id="Shape"></path>
                <path d="M35.536,60.864 C35.529,60.931 35.523,60.999 35.512,61.068 L48.019,68.658 C48.11,68.64 48.187,68.615 48.271,68.593 L35.536,60.864 Z" id="Shape"></path>
                <path d="M23.759,52.052 C23.821,52.004 23.87,51.97 23.922,51.932 L1.456,38.298 C1.429,38.358 1.411,38.418 1.392,38.479 L23.759,52.052 Z" id="Shape"></path>
                <path d="M35.179,58.763 C35.215,58.858 35.25,58.953 35.286,59.047 L49.51,67.679 C49.547,67.611 49.572,67.558 49.592,67.51 L35.179,58.763 Z" id="Shape"></path>
                <path d="M25.686,51.336 C25.801,51.329 25.916,51.324 26.028,51.324 L2.689,37.161 C2.636,37.193 2.576,37.227 2.506,37.269 L25.686,51.336 Z" id="Shape"></path>
                <path d="M35,56.769 C34.987,56.83 34.974,56.894 34.964,56.966 L49.481,65.776 C49.45,65.678 49.418,65.588 49.386,65.5 L35,56.769 Z" id="Shape"></path>
                <path d="M30.725,52.509 C31.006,52.598 31.259,52.678 31.476,52.746 L2.943,35.431 C2.938,35.507 2.938,35.577 2.937,35.646 L30.725,52.509 Z" id="Shape"></path>
                <path d="M34.568,54.622 C34.651,54.734 34.729,54.852 34.799,54.98 L48.41,63.24 C48.374,63.148 48.338,63.052 48.301,62.956 L34.568,54.622 Z" id="Shape"></path>
                <path d="M3.478,33.871 C3.469,33.885 3.459,33.901 3.45,33.914 C3.428,33.948 3.405,33.994 3.382,34.031 L47.676,60.91 C47.659,60.832 47.645,60.746 47.629,60.663 L3.478,33.871 Z" id="Shape"></path>
                <path d="M4.707,32.731 C4.637,32.758 4.569,32.792 4.501,32.826 L47.459,58.893 C47.458,58.82 47.456,58.746 47.457,58.673 L4.707,32.731 Z" id="Shape"></path>
                <path d="M6.812,32.123 C6.777,32.174 6.74,32.224 6.69,32.269 L47.561,57.07 C47.569,57.011 47.578,56.936 47.585,56.866 L6.812,32.123 Z" id="Shape"></path>
                <path d="M4.885,29.069 C4.951,29.142 5.018,29.213 5.084,29.282 C5.222,29.428 5.342,29.538 5.454,29.634 L47.732,55.29 C47.739,55.218 47.745,55.146 47.751,55.082 L4.885,29.069 Z" id="Shape"></path>
                <path d="M3.978,26.634 C3.976,26.698 3.98,26.779 3.981,26.855 L48.254,53.721 C48.292,53.674 48.333,53.629 48.381,53.58 L3.978,26.634 Z" id="Shape"></path>
                <path d="M4.344,24.971 C4.328,25.037 4.312,25.106 4.298,25.162 L50.272,53.061 C50.43,53.071 50.569,53.085 50.702,53.102 L4.344,24.971 Z" id="Shape"></path>
                <path d="M4.737,23.324 L4.64,23.485 L54.231,53.578 C54.35,53.578 54.468,53.576 54.578,53.57 L4.737,23.324 Z" id="Shape"></path>
                <path d="M5.573,21.947 L5.476,22.107 L57.131,53.453 C57.262,53.455 57.383,53.457 57.502,53.459 L5.573,21.947 Z" id="Shape"></path>
                <path d="M6.892,20.862 C6.804,20.884 6.716,20.906 6.642,20.929 L65.846,56.856 C66.2,56.986 66.488,57.085 66.722,57.169 L6.892,20.862 Z" id="Shape"></path>
                <path d="M68.041,57.971 C68.228,58.206 68.623,58.68 69.257,58.822 C69.284,58.828 69.377,58.842 69.492,58.852 L68.041,57.971 Z" id="Shape"></path>
                <path d="M9.581,20.608 C9.56,20.607 9.543,20.604 9.521,20.603 C9.408,20.597 9.31,20.6 9.204,20.598 L71.2,58.222 C71.215,58.214 71.227,58.205 71.242,58.199 C71.307,58.17 71.357,58.151 71.429,58.142 L9.581,20.608 Z" id="Shape"></path>
                <path d="M12.31,20.38 C12.253,20.422 12.197,20.463 12.14,20.496 L74.375,58.264 C74.562,58.27 74.676,58.271 74.748,58.271 L12.31,20.38 Z" id="Shape"></path>
                <path d="M12.946,18.88 C12.938,18.949 12.926,19.025 12.921,19.086 L77.018,57.982 C77.052,57.937 77.085,57.886 77.121,57.826 L12.946,18.88 Z" id="Shape"></path>
                <path d="M13.444,17.298 C13.42,17.359 13.394,17.421 13.373,17.474 L77.924,56.645 C77.967,56.593 78.006,56.549 78.048,56.501 L13.444,17.298 Z" id="Shape"></path>
                <path d="M14.042,15.777 C14.02,15.835 14,15.887 13.974,15.955 L79.12,55.488 C79.176,55.444 79.231,55.402 79.283,55.368 L14.042,15.777 Z" id="Shape"></path>
                <path d="M80.854,54.436 L14.66,14.267 C14.634,14.322 14.607,14.381 14.58,14.438 L80.785,54.614 C80.805,54.565 80.829,54.5 80.854,54.436 Z" id="Shape"></path>
                <path d="M15.336,13.011 L81.286,53.033 C81.286,52.95 81.286,52.874 81.278,52.809 L15.43,12.85 C15.398,12.905 15.367,12.958 15.336,13.011 Z" id="Shape"></path>
                <path d="M16.292,11.487 C16.256,11.536 16.219,11.586 16.182,11.639 L82.158,51.675 C82.236,51.649 82.315,51.621 82.392,51.599 L16.292,11.487 Z" id="Shape"></path>
                <path d="M83.609,50.453 L17.505,10.338 C17.441,10.372 17.373,10.403 17.315,10.442 L83.587,50.659 C83.598,50.598 83.605,50.528 83.609,50.453 Z" id="Shape"></path>
                <path d="M22.271,11.346 C22.184,11.381 22.114,11.403 22.051,11.421 C22.047,11.422 22.044,11.422 22.04,11.424 L83.635,48.804 C83.646,48.745 83.658,48.68 83.673,48.608 L22.271,11.346 Z" id="Shape"></path>
                <path d="M23.858,10.424 C23.826,10.445 23.799,10.464 23.764,10.487 C23.736,10.506 23.713,10.52 23.686,10.537 L84.008,47.145 C84.015,47.071 84.016,46.999 84.015,46.929 L23.858,10.424 Z" id="Shape"></path>
                <path d="M28.104,11.115 C27.854,11.011 27.665,10.887 27.51,10.754 L25.912,9.784 C25.791,9.762 25.65,9.75 25.489,9.748 L82.644,44.432 C82.506,44.291 82.352,44.123 82.183,43.933 L28.104,11.115 Z" id="Shape"></path>
                <path d="M31.615,11.36 C31.542,11.397 31.472,11.427 31.406,11.453 L80.905,41.49 C80.911,41.428 80.921,41.363 80.935,41.289 L31.615,11.36 Z" id="Shape"></path>
                <path d="M32.597,10.072 C32.578,10.14 32.559,10.203 32.543,10.259 L81.819,40.161 C81.881,40.129 81.943,40.094 82.007,40.056 L32.597,10.072 Z" id="Shape"></path>
                <path d="M33.06,8.468 C33.043,8.524 33.023,8.591 33.004,8.654 L82.858,38.905 C82.876,38.841 82.898,38.777 82.91,38.718 L33.06,8.468 Z" id="Shape"></path>
                <path d="M74.188,31.759 C74.211,31.712 74.248,31.659 74.292,31.603 L33.69,6.965 C33.66,7.018 33.628,7.07 33.598,7.128 L74.188,31.759 Z" id="Shape"></path>
                <path d="M75.979,32.846 L82.235,36.642 C81.951,36.407 81.655,36.356 81.049,35.822 C80.922,35.709 80.805,35.599 80.693,35.487 L76.214,32.77 C76.14,32.795 76.061,32.82 75.979,32.846 Z" id="Shape"></path>
                <path d="M78.676,32.435 C78.528,32.377 78.391,32.352 78.252,32.342 L79.481,33.088 C79.298,32.838 79.038,32.578 78.676,32.435 Z" id="Shape"></path>
                <path d="M34.865,6.013 L75.434,30.632 C75.499,30.589 75.557,30.552 75.61,30.52 L35.104,5.938 C35.012,5.967 34.934,5.992 34.865,6.013 Z" id="Shape"></path>
                <path d="M36.897,5.141 C36.865,5.192 36.823,5.241 36.777,5.288 L76.718,29.526 C76.756,29.472 76.786,29.422 76.82,29.369 L36.897,5.141 Z" id="Shape"></path>
                <path d="M37.279,3.488 C37.257,3.551 37.236,3.612 37.218,3.672 L77.381,28.044 C77.396,27.984 77.407,27.919 77.421,27.849 L37.279,3.488 Z" id="Shape"></path>
                <path d="M38.212,2.17 C38.168,2.209 38.119,2.259 38.073,2.304 L77.444,26.197 C77.432,26.115 77.418,26.034 77.402,25.952 L38.212,2.17 Z" id="Shape"></path>
                <path d="M39.85,1.278 C39.769,1.301 39.683,1.323 39.605,1.349 L76.754,23.892 C76.714,23.793 76.675,23.696 76.635,23.6 L39.85,1.278 Z" id="Shape"></path>
                <path d="M60.866,12.147 C60.836,12.165 60.808,12.183 60.773,12.199 C60.749,12.211 60.706,12.229 60.668,12.245 L75.879,21.475 C75.867,21.395 75.865,21.321 75.865,21.248 L60.866,12.147 Z" id="Shape"></path>
                <path d="M58.503,10.932 C58.505,10.875 58.507,10.802 58.509,10.717 L42.184,0.81 C42.079,0.82 41.977,0.831 41.88,0.844 L58.503,10.932 Z" id="Shape"></path>
                <path d="M58.345,8.951 C58.276,8.824 58.198,8.696 58.102,8.584 L51.164,4.373 C51.019,4.369 50.885,4.361 50.763,4.349 L58.345,8.951 Z" id="Shape"></path>
                <path d="M49.092,3.335 C49.078,3.317 49.073,3.307 49.059,3.287 C49.041,3.262 48.924,3.107 48.742,2.904 L46.246,1.389 C46.236,1.386 46.229,1.383 46.22,1.38 C45.972,1.298 45.731,1.222 45.489,1.149 L49.092,3.335 Z" id="Shape"></path>
                <path d="M62.014,10.958 C61.965,11.005 61.92,11.05 61.877,11.094 L76.631,20.048 C76.651,20.012 76.672,19.985 76.69,19.944 C76.697,19.928 76.707,19.901 76.715,19.88 L62.014,10.958 Z" id="Shape"></path>
                <path d="M63.857,10.192 C63.663,10.169 63.528,10.156 63.426,10.15 L75.955,17.754 C75.909,17.647 75.878,17.554 75.863,17.479 L63.857,10.192 Z" id="Shape"></path>
                <path d="M55.853,5.555 C55.714,5.386 55.511,5.174 55.249,4.968 L54.546,4.541 C54.248,4.404 53.978,4.326 53.756,4.282 L55.853,5.555 Z" id="Shape"></path>
                <path d="M71.4,12.886 C71.306,12.87 71.203,12.85 71.086,12.822 C70.992,12.8 70.912,12.779 70.827,12.757 L73.357,14.293 C73.337,14.222 73.304,14.131 73.259,14.015 L71.4,12.886 Z" id="Shape"></path>
                <path d="M69.637,12.033 C69.592,11.942 69.559,11.849 69.545,11.759 L66.881,10.143 C66.792,10.167 66.711,10.192 66.641,10.216 L69.637,12.033 Z" id="Shape"></path>
            </g>
            <path d="M47.093,29.805 C47.093,32.194 45.157,34.13 42.768,34.13 C40.379,34.13 38.442,32.193 38.442,29.805 C38.442,27.417 40.379,25.48 42.768,25.48 C45.157,25.48 47.093,27.416 47.093,29.805" id="Shape"></path>
            <path d="M38.133,26.883 C38.133,28.964 36.446,30.652 34.364,30.652 C32.283,30.652 30.596,28.964 30.596,26.883 C30.596,24.802 32.283,23.113 34.364,23.113 C36.446,23.113 38.133,24.802 38.133,26.883" id="Shape"></path>
            <path d="M35.67,18.81 C35.67,20.891 33.983,22.58 31.901,22.58 C29.82,22.58 28.133,20.892 28.133,18.81 C28.133,16.728 29.82,15.041 31.901,15.041 C33.983,15.041 35.67,16.729 35.67,18.81" id="Shape"></path>
            <path d="M54.917,32.857 C54.917,34.938 53.23,36.626 51.148,36.626 C49.066,36.626 47.379,34.938 47.379,32.857 C47.379,30.776 49.066,29.087 51.148,29.087 C53.23,29.087 54.917,30.776 54.917,32.857" id="Shape"></path>
            <path d="M57.334,40.839 C57.334,42.92 55.647,44.608 53.565,44.608 C51.484,44.608 49.796,42.92 49.796,40.839 C49.796,38.758 51.484,37.069 53.565,37.069 C55.647,37.069 57.334,38.758 57.334,40.839" id="Shape"></path>
            <path d="M51.514,47.19 C51.514,49.171 49.909,50.777 47.928,50.777 C45.947,50.777 44.343,49.172 44.343,47.19 C44.343,45.21 45.948,43.604 47.928,43.604 C49.908,43.604 51.514,45.21 51.514,47.19" id="Shape"></path>
            <path d="M41.13,12.482 C41.13,14.462 39.524,16.068 37.544,16.068 C35.563,16.068 33.958,14.463 33.958,12.482 C33.958,10.501 35.563,8.896 37.544,8.896 C39.524,8.896 41.13,10.501 41.13,12.482" id="Shape"></path>
            <path d="M47.881,11.285 C47.881,12.744 46.698,13.926 45.24,13.926 C43.781,13.926 42.598,12.744 42.598,11.285 C42.598,9.826 43.781,8.644 45.24,8.644 C46.698,8.645 47.881,9.826 47.881,11.285" id="Shape"></path>
            <path d="M42.872,48.392 C42.872,49.851 41.689,51.033 40.231,51.033 C38.772,51.033 37.589,49.851 37.589,48.392 C37.589,46.933 38.772,45.75 40.231,45.75 C41.689,45.75 42.872,46.933 42.872,48.392" id="Shape"></path>
            <path d="M36.108,46.62 C36.108,47.615 35.301,48.422 34.306,48.422 C33.311,48.422 32.505,47.615 32.505,46.62 C32.505,45.625 33.311,44.818 34.306,44.818 C35.301,44.818 36.108,45.625 36.108,46.62" id="Shape"></path>
            <path d="M52.98,13.065 C52.98,14.06 52.173,14.868 51.178,14.868 C50.185,14.868 49.377,14.06 49.377,13.065 C49.377,12.07 50.185,11.263 51.178,11.263 C52.174,11.264 52.98,12.07 52.98,13.065" id="Shape"></path>
            <path d="M31.969,43.752 C31.969,44.43 31.42,44.979 30.743,44.979 C30.066,44.979 29.518,44.43 29.518,43.752 C29.518,43.075 30.066,42.526 30.743,42.526 C31.42,42.526 31.969,43.075 31.969,43.752" id="Shape"></path>
            <path d="M55.941,15.94 C55.941,16.617 55.392,17.167 54.714,17.167 C54.037,17.167 53.489,16.617 53.489,15.94 C53.489,15.263 54.037,14.714 54.714,14.714 C55.393,14.715 55.941,15.264 55.941,15.94" id="Shape"></path>
            <path d="M29.609,39.995 C29.609,40.354 29.318,40.645 28.959,40.645 C28.6,40.645 28.309,40.354 28.309,39.995 C28.309,39.637 28.6,39.346 28.959,39.346 C29.318,39.346 29.609,39.637 29.609,39.995" id="Shape"></path>
            <path d="M57.141,19.685 C57.141,20.044 56.85,20.335 56.492,20.335 C56.134,20.335 55.843,20.044 55.843,19.685 C55.843,19.326 56.134,19.035 56.492,19.035 C56.85,19.035 57.141,19.325 57.141,19.685" id="Shape"></path>
        </g>
    </g>
</svg>