<?xml version="1.0" encoding="UTF-8" standalone="no"?>
<svg width="28px" height="28px" viewBox="0 0 28 28" version="1.1" xmlns="http://www.w3.org/2000/svg" xmlns:xlink="http://www.w3.org/1999/xlink">
    <!-- Generator: Sketch 41 (35326) - http://www.bohemiancoding.com/sketch -->
    <title>Group 7</title>
    <desc>Created with Sketch.</desc>
    <defs></defs>
    <g id="Page-1" stroke="none" stroke-width="1" fill="none" fill-rule="evenodd">
        <g id="Education" transform="translate(-351.000000, -598.000000)" stroke="#4D7EDD">
            <g id="Group-7" transform="translate(352.000000, 599.000000)">
                <circle id="Oval-Copy" cx="13" cy="13" r="13"></circle>
                <g id="Page-1" transform="translate(6.000000, 3.000000)" stroke-width="0.5" fill="#4D7EDD">
                    <path d="M7.06873696,9.27378261 C6.06119348,9.27378261 5.24265,8.45523913 5.24265,7.44769565 C5.24265,6.44152174 6.06119348,5.6216087 7.06873696,5.6216087 C8.07536739,5.6216087 8.89482391,6.44152174 8.89482391,7.44769565 C8.89482391,8.45523913 8.07536739,9.27378261 7.06873696,9.27378261 M7.06873696,4.89208696 C5.6585413,4.89208696 4.5117587,6.03886957 4.5117587,7.44769565 C4.5117587,8.8578913 5.6585413,10.0046739 7.06873696,10.0046739 C8.47756304,10.0046739 9.62434565,8.8578913 9.62434565,7.44769565 C9.62434565,6.03886957 8.47756304,4.89208696 7.06873696,4.89208696" id="Fill-1"></path>
                    <path d="M12.0140087,11.9881696 L7.00459565,19.2240391 L1.98513913,11.9767565 C0.0873782609,9.44488696 0.358552174,5.28597391 2.56811739,3.0764087 C3.75370435,1.89264783 5.32824783,1.23982174 7.00459565,1.23982174 C8.67911739,1.23982174 10.2541174,1.89264783 11.4397043,3.0764087 C13.648813,5.28597391 13.9222696,9.44488696 12.0140087,11.9881696 M11.956487,2.55962609 C10.6339435,1.23799565 8.87496522,0.508473913 7.00459565,0.508473913 C5.1324,0.508473913 3.37433478,1.23799565 2.05087826,2.55962609 C-0.396078261,5.00795217 -0.701034783,9.61243043 1.39257391,12.4026913 L7.00459565,20.5059522 L12.6061174,12.4145609 C14.7084,9.61243043 14.4034435,5.00795217 11.956487,2.55962609" id="Fill-3"></path>
                </g>
            </g>
        </g>
    </g>
</svg>