<?xml version="1.0" encoding="UTF-8" standalone="no"?>
<svg width="32px" height="32px" viewBox="0 0 32 32" version="1.1" xmlns="http://www.w3.org/2000/svg" xmlns:xlink="http://www.w3.org/1999/xlink">
    <!-- Generator: Sketch 41 (35326) - http://www.bohemiancoding.com/sketch -->
    <title>Group 6 Copy</title>
    <desc>Created with Sketch.</desc>
    <defs></defs>
    <g id="Page-1" stroke="none" stroke-width="1" fill="none" fill-rule="evenodd" opacity="0.802819293">
        <g id="-index" transform="translate(-948.000000, -247.000000)" fill="#215ED5">
            <g id="Group-7" transform="translate(936.000000, 243.000000)">
                <g id="Group-6-Copy" transform="translate(12.000000, 4.000000)">
                    <path d="M18.4081633,16.7260082 C18.2468571,16.8873143 18.2468571,17.1478857 18.4081633,17.3085388 C18.7810612,17.6814367 18.9867755,18.1758041 18.9867755,18.7021714 C18.9867755,19.2265796 18.7810612,19.7222531 18.4081633,20.0931918 C18.2468571,20.254498 18.2468571,20.5176816 18.4081633,20.6789878 C18.4891429,20.7593143 18.5955918,20.799151 18.7007347,20.799151 C18.8071837,20.799151 18.9123265,20.7593143 18.9933061,20.6789878 C19.5216327,20.1500082 19.8115918,19.4486204 19.8115918,18.7021714 C19.8115918,17.9563755 19.5216327,17.2543347 18.9933061,16.7260082 C18.8313469,16.564049 18.5714286,16.564049 18.4081633,16.7260082" id="Fill-20"></path>
                    <path d="M23.7806367,12.7968 C22.7096163,12.9848816 21.6869224,12.2684735 21.4994939,11.1981061 C21.233698,9.6810449 19.7812898,8.66684082 18.2629224,8.92937143 C18.0389224,8.96986122 17.8880653,9.18341224 17.927902,9.40741224 C17.9664327,9.63010612 18.1799837,9.77835102 18.4065959,9.74373878 C19.4769633,9.5563102 20.4996571,10.2727184 20.6870857,11.3411265 C20.9248,12.6968816 22.1068408,13.6536163 23.4377796,13.6536163 C23.5971265,13.6536163 23.7603918,13.639902 23.9236571,13.6118204 C24.1476571,13.5719837 24.2965551,13.3577796 24.2586776,13.1344327 C24.2181878,12.9084735 24.0020245,12.7589224 23.7806367,12.7968" id="Fill-22"></path>
                    <path d="M26.2831673,16.6048653 C26.1865143,16.7557224 26.0128,16.9699265 25.8292898,17.1952327 C25.6359837,17.4355592 25.4341878,17.6856816 25.2526367,17.9397224 C24.754351,16.7478857 23.5749224,15.9073959 22.2034939,15.9073959 C20.8379429,15.9073959 19.7270857,14.7952327 19.7270857,13.4309878 C19.7270857,13.2011102 19.5416163,13.0169469 19.313698,13.0169469 C19.0857796,13.0169469 18.9003102,13.2011102 18.9003102,13.4309878 C18.9003102,15.2517224 20.3821061,16.7335184 22.2034939,16.7335184 C23.5710041,16.7335184 24.6818612,17.8443755 24.6818612,19.2125388 C24.6818612,19.2223347 24.6883918,19.2308245 24.6883918,19.2425796 C24.6883918,19.2706612 24.6818612,19.3013551 24.6818612,19.3313959 C24.754351,20.5356408 23.9843918,22.020049 23.0302694,22.5098449 C22.9453714,22.5516408 22.8748408,22.6006204 22.8082286,22.6489469 C22.3732898,21.6020898 21.3408,20.8634776 20.1385143,20.8634776 C19.9105959,20.8634776 19.7251265,21.0502531 19.7251265,21.2775184 C19.7251265,21.5054367 19.9105959,21.6909061 20.1385143,21.6909061 C21.2781061,21.6909061 22.2034939,22.6162939 22.2034939,23.7558857 C22.2034939,23.7728653 22.2113306,23.7859265 22.2139429,23.8042122 C22.1812898,23.9256816 22.1427592,24.0484571 22.0846367,24.1738449 C21.8867592,24.5833143 21.6144327,24.6858449 21.2722286,24.8171102 C20.8483918,24.9784163 20.2678204,25.1998041 20.1424327,26.1075592 C20.0797388,26.5549061 19.890351,27.1139265 19.3378612,27.2347429 C18.7024327,27.3758041 17.8697796,26.9023347 17.3590857,26.1075592 C17.1553306,25.7927837 16.8052898,25.6033959 16.4219429,25.6033959 C16.3305143,25.6033959 16.242351,25.6158041 16.1554939,25.6353959 C16.1084735,25.6197224 16.0608,25.6073143 16.007902,25.6073143 C15.8008816,25.6073143 15.6369633,25.7620898 15.6069224,25.9619265 C15.5644735,26.0082939 15.5187592,26.0533551 15.4834939,26.1075592 C15.4070857,26.2283755 15.3202286,26.3374367 15.2301061,26.4419265 C15.2137796,26.4406204 15.1994122,26.4321306 15.1830857,26.4321306 C14.9551673,26.4321306 14.770351,26.6176 14.770351,26.8461714 C14.770351,26.8533551 14.7736163,26.8598857 14.7736163,26.8677224 C14.3883102,27.1498449 13.969698,27.2889469 13.6000653,27.2445388 C13.7940245,27.2105796 13.9429224,27.0492735 13.9429224,26.8461714 C13.9429224,26.6176 13.7574531,26.4321306 13.5295347,26.4321306 C13.3016163,26.4321306 13.1181061,26.6176 13.1181061,26.8461714 C13.1181061,26.948702 13.1585959,27.0394776 13.2212898,27.1119673 C12.9790041,26.9545796 12.8418612,26.6900898 12.7654531,26.4197224 C12.9633306,26.3896816 13.1181061,26.2264163 13.1181061,26.020702 C13.1181061,25.7908245 12.9326367,25.6073143 12.7047184,25.6073143 C12.6563918,25.6073143 12.6100245,25.6197224 12.5675755,25.6334367 C12.4905143,25.4623347 12.3958204,25.326498 12.2854531,25.2220082 C12.2874122,25.2122122 12.2913306,25.2037224 12.2913306,25.1939265 C12.2913306,24.9666612 12.1058612,24.7805388 11.8779429,24.7805388 C11.7976163,24.7805388 11.7244735,24.8105796 11.6598204,24.8510694 C11.6297796,24.8406204 11.5997388,24.8269061 11.5710041,24.8171102 C11.4704327,24.7785796 11.3750857,24.7426612 11.2869224,24.7002122 C11.3920653,24.623151 11.4665143,24.5069061 11.4665143,24.367151 C11.4665143,24.1392327 11.2810449,23.9557224 11.0531265,23.9557224 C10.9218612,23.9557224 10.8114939,24.0184163 10.7363918,24.1131102 C10.6658612,23.9498449 10.6234122,23.790498 10.5868408,23.6370286 C10.4921469,23.2458449 10.3850449,22.8037224 9.81296327,22.5098449 C9.17557551,22.1833143 8.62700408,21.4100898 8.35075918,20.5754776 C8.41541224,20.6198857 8.48986122,20.6499265 8.57475918,20.6499265 C8.80202449,20.6499265 8.98814694,20.4664163 8.98814694,20.238498 C8.98814694,20.0092735 8.80202449,19.8257633 8.57475918,19.8257633 C8.41737143,19.8257633 8.28610612,19.9158857 8.21557551,20.0458449 C8.17116735,19.8029061 8.14700408,19.5606204 8.16137143,19.3313959 C8.18357551,18.9663347 8.00398367,18.5692735 7.74798367,18.1715592 L7.74798367,18.1735184 C7.97524898,18.1735184 8.16137143,17.988049 8.16137143,17.7607837 C8.16137143,17.5322122 7.97524898,17.3473959 7.74798367,17.3473959 C7.56577959,17.3473959 7.41492245,17.4675592 7.36006531,17.6334367 C7.27386122,17.5204571 7.18700408,17.4113959 7.10014694,17.3023347 C7.23794286,17.2357224 7.3365551,17.0966204 7.3365551,16.9333551 C7.3365551,16.7054367 7.15108571,16.5199673 6.92251429,16.5199673 C6.79320816,16.5199673 6.6848,16.5826612 6.60839184,16.6727837 C6.59206531,16.6512327 6.57377959,16.6244571 6.56006531,16.6048653 C5.94096327,15.6422531 5.94096327,14.2982531 6.56006531,13.3336816 C6.99108571,12.6636408 7.19745306,11.4215184 7.14847347,10.606498 C7.07598367,9.4133551 7.71924898,8.18886531 8.67924898,7.69449796 C8.84251429,7.61025306 9.00577959,7.56388571 9.16512653,7.51751837 C9.06063673,7.59196735 8.98814694,7.70951837 8.98814694,7.84862041 C8.98814694,8.07588571 9.17361633,8.26004898 9.40088163,8.26004898 C9.62945306,8.26004898 9.81296327,8.07588571 9.81296327,7.84862041 C9.81296327,7.62657959 9.63924898,7.44829388 9.41916735,7.43849796 C9.57067755,7.38690612 9.72218776,7.31768163 9.86520816,7.21057959 C9.93573878,7.3418449 10.0689633,7.43523265 10.226351,7.43523265 C10.4542694,7.43523265 10.6397388,7.2491102 10.6397388,7.0218449 C10.6397388,6.82527347 10.5006367,6.67049796 10.3184327,6.6260898 C10.4359837,6.38968163 10.5470041,6.20878367 10.663902,6.06968163 C10.6514939,6.11017143 10.6397388,6.15000816 10.6397388,6.19506939 C10.6397388,6.42233469 10.8252082,6.60780408 11.0531265,6.60780408 C11.2810449,6.60780408 11.4665143,6.42233469 11.4665143,6.19506939 C11.4665143,5.96715102 11.2810449,5.78102857 11.0531265,5.78102857 C11.0368,5.78102857 11.0250449,5.78886531 11.0106776,5.79082449 C11.1700245,5.71049796 11.3574531,5.67196735 11.5873306,5.66217143 C11.6617796,5.73596735 11.7649633,5.78102857 11.8779429,5.78102857 C11.9870041,5.78102857 12.0836571,5.73792653 12.1587592,5.67066122 C12.1940245,5.67196735 12.2273306,5.67196735 12.2652082,5.67392653 C12.615902,5.69678367 12.8862694,5.54331429 13.1226776,5.34804898 C13.1226776,5.35523265 13.1181061,5.36176327 13.1181061,5.37025306 C13.1181061,5.59817143 13.3035755,5.78102857 13.5314939,5.78102857 C13.7594122,5.78102857 13.9429224,5.59817143 13.9429224,5.37025306 C13.9429224,5.14364082 13.7633306,4.9620898 13.5399837,4.95817143 C13.671249,4.82951837 13.8077388,4.71196735 13.9585959,4.61857959 C13.9971265,4.80927347 14.1571265,4.95621224 14.3563102,4.95621224 C14.5842286,4.95621224 14.770351,4.77074286 14.770351,4.54282449 C14.770351,4.46772245 14.7455347,4.4011102 14.7109224,4.34298776 C14.9172898,4.34168163 15.3169633,4.49253878 15.6696163,4.80274286 C16.0790857,5.16257959 16.679902,5.17629388 17.127249,4.83670204 C17.4198204,4.61596735 17.8475755,4.47425306 18.2929633,4.44421224 L18.4869224,4.44551837 C18.8637388,4.44551837 19.0981878,4.67017143 19.4403918,5.03457959 C19.7349224,5.3493551 20.0738612,5.69874286 20.5780245,5.67653878 C21.7313306,5.60143673 22.0748408,5.69025306 22.5528816,6.68290612 C22.5842286,6.74690612 22.6188408,6.80568163 22.6528,6.85988571 C21.6934531,7.03751837 20.9652898,7.87670204 20.9652898,8.88698776 C20.9652898,9.11425306 21.1507592,9.29972245 21.3786776,9.29972245 C21.6065959,9.29972245 21.7901061,9.11425306 21.7901061,8.88698776 C21.7901061,8.20323265 22.3465143,7.64878367 23.0302694,7.64878367 C23.1876571,7.64878367 23.3208816,7.55800816 23.3888,7.4260898 C23.4802286,7.45874286 23.5729633,7.48747755 23.6598204,7.51098776 C23.8230857,7.55996735 23.9941878,7.60829388 24.1659429,7.69645714 C25.1239837,8.18886531 25.767249,9.4133551 25.6967184,10.606498 C25.6457796,11.4215184 25.8514939,12.6636408 26.2831673,13.3336816 C26.9022694,14.2956408 26.9022694,15.6409469 26.2831673,16.6048653 M26.9793306,12.8863347 C26.6586776,12.3900082 26.4810449,11.3124571 26.5215347,10.6580898 C26.6142694,9.12666122 25.799249,7.60633469 24.5427592,6.96045714 C24.3004735,6.83572245 24.0810449,6.77302857 23.889698,6.71882449 C23.5585959,6.62217143 23.4214531,6.58364082 23.2967184,6.32372245 C22.6371265,4.95425306 21.9109224,4.76094694 20.5257796,4.85172245 C20.3964735,4.85368163 20.2234122,4.66168163 20.0438204,4.47033469 C19.7388408,4.14380408 19.3300245,3.7056 18.6802286,3.63115102 L18.4725551,3.61155918 C17.7790041,3.61155918 17.105698,3.81923265 16.6289633,4.17776327 C16.4937796,4.28029388 16.3265959,4.28029388 16.2136163,4.18233469 C15.6474122,3.68339592 14.7938612,3.31637551 14.2074122,3.64094694 C13.5641469,3.76829388 13.1501061,4.17580408 12.8457796,4.47882449 C12.6061061,4.71588571 12.4545959,4.86674286 12.3174531,4.85172245 C10.9362286,4.76290612 10.2061061,4.95425306 9.54651429,6.32372245 C9.42177959,6.58168163 9.28463673,6.62217143 8.95353469,6.71686531 C8.76218776,6.77302857 8.54406531,6.83572245 8.29982041,6.96045714 C7.04398367,7.60633469 6.23092245,9.12666122 6.32169796,10.6580898 C6.36218776,11.3124571 6.18520816,12.3900082 5.8645551,12.8863347 C5.07565714,14.1121306 5.07565714,15.8244571 5.8645551,17.0509061 C5.98537143,17.2402939 6.16496327,17.4597224 6.37002449,17.7157224 C6.73965714,18.1696 7.35614694,18.9317224 7.3365551,19.2811102 C7.24120816,20.8236408 8.18357551,22.6006204 9.43353469,23.2438857 C9.65949388,23.3588245 9.69802449,23.4757224 9.78226939,23.8303347 C9.82863673,24.0262531 9.88741224,24.2678857 10.0147592,24.5310694 C10.3556571,25.2383347 10.887249,25.4394776 11.2764735,25.5890286 C11.6643918,25.7340082 11.8237388,25.796702 11.8818612,26.2205388 C12.0170449,27.204049 12.5453714,27.8682122 13.3264327,28.0419265 C13.4570449,28.0700082 13.5915755,28.0837224 13.7293714,28.0837224 C14.610351,28.0837224 15.570351,27.4992327 16.1796571,26.5549061 C16.2528,26.4419265 16.3736163,26.4301714 16.4219429,26.4301714 C16.4702694,26.4301714 16.5910857,26.4419265 16.6635755,26.5549061 C17.3675755,27.6461714 18.5411265,28.2554776 19.5174531,28.0419265 C20.2998204,27.8682122 20.8261878,27.204049 20.9613714,26.2205388 C21.0194939,25.796702 21.1794939,25.7366204 21.5661061,25.5890286 C21.9559837,25.4394776 22.4875755,25.2383347 22.8284735,24.5310694 C22.9538612,24.2698449 23.0145959,24.0262531 23.0603102,23.8303347 C23.1452082,23.4776816 23.1837388,23.3588245 23.409698,23.2438857 C24.6603102,22.6025796 25.6020245,20.8236408 25.5066776,19.2811102 C25.4870857,18.9317224 26.1035755,18.1696 26.4732082,17.7157224 C26.6782694,17.4597224 26.855902,17.2402939 26.9793306,17.0509061 C27.7675755,15.8244571 27.7675755,14.1147429 26.9793306,12.8863347" id="Fill-24"></path>
                    <path d="M13.1179755,22.7158204 C13.1179755,22.9437388 12.9325061,23.1292082 12.7052408,23.1292082 C12.4766694,23.1292082 12.2912,22.9437388 12.2912,22.7158204 C12.2912,22.487249 12.4766694,22.3017796 12.7052408,22.3017796 C12.9325061,22.3017796 13.1179755,22.487249 13.1179755,22.7158204" id="Fill-26"></path>
                    <path d="M16.4218776,22.7158204 C16.4218776,22.9437388 16.2357551,23.1292082 16.0078367,23.1292082 C15.7805714,23.1292082 15.5964082,22.9437388 15.5964082,22.7158204 C15.5964082,22.487249 15.7805714,22.3017796 16.0078367,22.3017796 C16.2357551,22.3017796 16.4218776,22.487249 16.4218776,22.7158204" id="Fill-28"></path>
                    <path d="M15.5966041,21.8905469 C15.5966041,22.1191184 15.4111347,22.3019755 15.1832163,22.3019755 C14.955298,22.3019755 14.7704816,22.1191184 14.7704816,21.8905469 C14.7704816,21.6606694 14.955298,21.4771592 15.1832163,21.4771592 C15.4111347,21.4771592 15.5966041,21.6606694 15.5966041,21.8905469" id="Fill-30"></path>
                    <path d="M14.7704163,21.0640327 C14.7704163,21.291951 14.5842939,21.4774204 14.3563755,21.4774204 C14.1284571,21.4774204 13.9429878,21.291951 13.9429878,21.0640327 C13.9429878,20.8354612 14.1284571,20.6499918 14.3563755,20.6499918 C14.5842939,20.6499918 14.7704163,20.8354612 14.7704163,21.0640327" id="Fill-32"></path>
                    <path d="M13.1179755,21.0640327 C13.1179755,21.291951 12.9325061,21.4774204 12.7052408,21.4774204 C12.4766694,21.4774204 12.2912,21.291951 12.2912,21.0640327 C12.2912,20.8354612 12.4766694,20.6499918 12.7052408,20.6499918 C12.9325061,20.6499918 13.1179755,20.8354612 13.1179755,21.0640327" id="Fill-34"></path>
                    <path d="M16.4218776,21.0640327 C16.4218776,21.291951 16.2357551,21.4774204 16.0078367,21.4774204 C15.7805714,21.4774204 15.5964082,21.291951 15.5964082,21.0640327 C15.5964082,20.8354612 15.7805714,20.6499918 16.0078367,20.6499918 C16.2357551,20.6499918 16.4218776,20.8354612 16.4218776,21.0640327" id="Fill-36"></path>
                    <path d="M13.9429224,20.2368653 C13.9429224,20.4647837 13.7594122,20.6502531 13.5314939,20.6502531 C13.3016163,20.6502531 13.1181061,20.4647837 13.1181061,20.2368653 C13.1181061,20.0089469 13.3016163,19.8254367 13.5314939,19.8254367 C13.7594122,19.8254367 13.9429224,20.0089469 13.9429224,20.2368653" id="Fill-38"></path>
                    <path d="M16.4218776,19.4115918 C16.4218776,19.6401633 16.2357551,19.8256327 16.0078367,19.8256327 C15.7805714,19.8256327 15.5964082,19.6401633 15.5964082,19.4115918 C15.5964082,19.1836735 15.7805714,18.9982041 16.0078367,18.9982041 C16.2357551,18.9982041 16.4218776,19.1836735 16.4218776,19.4115918" id="Fill-40"></path>
                    <path d="M13.9429224,18.5850776 C13.9429224,18.8129959 13.7594122,18.9984653 13.5314939,18.9984653 C13.3016163,18.9984653 13.1181061,18.8129959 13.1181061,18.5850776 C13.1181061,18.3571592 13.3016163,18.1716898 13.5314939,18.1716898 C13.7594122,18.1716898 13.9429224,18.3571592 13.9429224,18.5850776" id="Fill-42"></path>
                    <path d="M15.5966041,18.5850776 C15.5966041,18.8129959 15.4111347,18.9984653 15.1832163,18.9984653 C14.955298,18.9984653 14.7704816,18.8129959 14.7704816,18.5850776 C14.7704816,18.3571592 14.955298,18.1716898 15.1832163,18.1716898 C15.4111347,18.1716898 15.5966041,18.3571592 15.5966041,18.5850776" id="Fill-44"></path>
                    <path d="M16.4218776,17.7604571 C16.4218776,17.9883755 16.2357551,18.1718857 16.0078367,18.1718857 C15.7805714,18.1718857 15.5964082,17.9883755 15.5964082,17.7604571 C15.5964082,17.5299265 15.7805714,17.3470694 16.0078367,17.3470694 C16.2357551,17.3470694 16.4218776,17.5299265 16.4218776,17.7604571" id="Fill-46"></path>
                    <path d="M15.5966041,16.9332898 C15.5966041,17.1612082 15.4111347,17.3473306 15.1832163,17.3473306 C14.955298,17.3473306 14.7704816,17.1612082 14.7704816,16.9332898 C14.7704816,16.7053714 14.955298,16.519902 15.1832163,16.519902 C15.4111347,16.519902 15.5966041,16.7053714 15.5966041,16.9332898" id="Fill-48"></path>
                    <path d="M14.7704163,16.1067755 C14.7704163,16.3346939 14.5842939,16.5201633 14.3563755,16.5201633 C14.1284571,16.5201633 13.9429878,16.3346939 13.9429878,16.1067755 C13.9429878,15.8782041 14.1284571,15.6953469 14.3563755,15.6953469 C14.5842939,15.6953469 14.7704163,15.8782041 14.7704163,16.1067755" id="Fill-50"></path>
                    <path d="M13.1179755,16.1067755 C13.1179755,16.3346939 12.9325061,16.5201633 12.7052408,16.5201633 C12.4766694,16.5201633 12.2912,16.3346939 12.2912,16.1067755 C12.2912,15.8782041 12.4766694,15.6953469 12.7052408,15.6953469 C12.9325061,15.6953469 13.1179755,15.8782041 13.1179755,16.1067755" id="Fill-52"></path>
                    <path d="M16.4218776,16.1067755 C16.4218776,16.3346939 16.2357551,16.5201633 16.0078367,16.5201633 C15.7805714,16.5201633 15.5964082,16.3346939 15.5964082,16.1067755 C15.5964082,15.8782041 15.7805714,15.6953469 16.0078367,15.6953469 C16.2357551,15.6953469 16.4218776,15.8782041 16.4218776,16.1067755" id="Fill-54"></path>
                    <path d="M13.9429224,15.2821551 C13.9429224,15.5100735 13.7594122,15.6955429 13.5314939,15.6955429 C13.3016163,15.6955429 13.1181061,15.5100735 13.1181061,15.2821551 C13.1181061,15.0535837 13.3016163,14.8681143 13.5314939,14.8681143 C13.7594122,14.8681143 13.9429224,15.0535837 13.9429224,15.2821551" id="Fill-56"></path>
                    <path d="M14.7704163,14.4549878 C14.7704163,14.6835592 14.5842939,14.8683755 14.3563755,14.8683755 C14.1284571,14.8683755 13.9429878,14.6835592 13.9429878,14.4549878 C13.9429878,14.2270694 14.1284571,14.0409469 14.3563755,14.0409469 C14.5842939,14.0409469 14.7704163,14.2270694 14.7704163,14.4549878" id="Fill-58"></path>
                    <path d="M13.1179755,14.4549878 C13.1179755,14.6835592 12.9325061,14.8683755 12.7052408,14.8683755 C12.4766694,14.8683755 12.2912,14.6835592 12.2912,14.4549878 C12.2912,14.2270694 12.4766694,14.0409469 12.7052408,14.0409469 C12.9325061,14.0409469 13.1179755,14.2270694 13.1179755,14.4549878" id="Fill-60"></path>
                    <path d="M16.4218776,14.4549878 C16.4218776,14.6835592 16.2357551,14.8683755 16.0078367,14.8683755 C15.7805714,14.8683755 15.5964082,14.6835592 15.5964082,14.4549878 C15.5964082,14.2270694 15.7805714,14.0409469 16.0078367,14.0409469 C16.2357551,14.0409469 16.4218776,14.2270694 16.4218776,14.4549878" id="Fill-62"></path>
                    <path d="M15.5966041,13.6303673 C15.5966041,13.8582857 15.4111347,14.0411429 15.1832163,14.0411429 C14.955298,14.0411429 14.7704816,13.8582857 14.7704816,13.6303673 C14.7704816,13.3998367 14.955298,13.2169796 15.1832163,13.2169796 C15.4111347,13.2169796 15.5966041,13.3998367 15.5966041,13.6303673" id="Fill-64"></path>
                    <path d="M14.7704163,12.8032 C14.7704163,13.0311184 14.5842939,13.2172408 14.3563755,13.2172408 C14.1284571,13.2172408 13.9429878,13.0311184 13.9429878,12.8032 C13.9429878,12.5752816 14.1284571,12.3898122 14.3563755,12.3898122 C14.5842939,12.3898122 14.7704163,12.5752816 14.7704163,12.8032" id="Fill-66"></path>
                    <path d="M13.9429224,11.9760327 C13.9429224,12.2046041 13.7594122,12.3900735 13.5314939,12.3900735 C13.3016163,12.3900735 13.1181061,12.2046041 13.1181061,11.9760327 C13.1181061,11.7481143 13.3016163,11.5652571 13.5314939,11.5652571 C13.7594122,11.5652571 13.9429224,11.7481143 13.9429224,11.9760327" id="Fill-68"></path>
                    <path d="M15.5966041,11.9760327 C15.5966041,12.2046041 15.4111347,12.3900735 15.1832163,12.3900735 C14.955298,12.3900735 14.7704816,12.2046041 14.7704816,11.9760327 C14.7704816,11.7481143 14.955298,11.5652571 15.1832163,11.5652571 C15.4111347,11.5652571 15.5966041,11.7481143 15.5966041,11.9760327" id="Fill-70"></path>
                    <path d="M16.4218776,11.1520653 C16.4218776,11.3799837 16.2357551,11.5654531 16.0078367,11.5654531 C15.7805714,11.5654531 15.5964082,11.3799837 15.5964082,11.1520653 C15.5964082,10.9234939 15.7805714,10.7380245 16.0078367,10.7380245 C16.2357551,10.7380245 16.4218776,10.9234939 16.4218776,11.1520653" id="Fill-72"></path>
                    <path d="M13.9429224,10.324898 C13.9429224,10.5534694 13.7594122,10.7382857 13.5314939,10.7382857 C13.3016163,10.7382857 13.1181061,10.5534694 13.1181061,10.324898 C13.1181061,10.0969796 13.3016163,9.91085714 13.5314939,9.91085714 C13.7594122,9.91085714 13.9429224,10.0969796 13.9429224,10.324898" id="Fill-74"></path>
                    <path d="M15.5966041,10.324898 C15.5966041,10.5534694 15.4111347,10.7382857 15.1832163,10.7382857 C14.955298,10.7382857 14.7704816,10.5534694 14.7704816,10.324898 C14.7704816,10.0969796 14.955298,9.91085714 15.1832163,9.91085714 C15.4111347,9.91085714 15.5966041,10.0969796 15.5966041,10.324898" id="Fill-76"></path>
                    <path d="M14.7704163,9.50027755 C14.7704163,9.72819592 14.5842939,9.91105306 14.3563755,9.91105306 C14.1284571,9.91105306 13.9429878,9.72819592 13.9429878,9.50027755 C13.9429878,9.26974694 14.1284571,9.08623673 14.3563755,9.08623673 C14.5842939,9.08623673 14.7704163,9.26974694 14.7704163,9.50027755" id="Fill-78"></path>
                    <path d="M13.1179755,9.50027755 C13.1179755,9.72819592 12.9325061,9.91105306 12.7052408,9.91105306 C12.4766694,9.91105306 12.2912,9.72819592 12.2912,9.50027755 C12.2912,9.26974694 12.4766694,9.08623673 12.7052408,9.08623673 C12.9325061,9.08623673 13.1179755,9.26974694 13.1179755,9.50027755" id="Fill-80"></path>
                    <path d="M13.9429224,8.6731102 C13.9429224,8.90102857 13.7594122,9.08649796 13.5314939,9.08649796 C13.3016163,9.08649796 13.1181061,8.90102857 13.1181061,8.6731102 C13.1181061,8.44519184 13.3016163,8.25972245 13.5314939,8.25972245 C13.7594122,8.25972245 13.9429224,8.44519184 13.9429224,8.6731102" id="Fill-82"></path>
                    <path d="M15.5966041,8.6731102 C15.5966041,8.90102857 15.4111347,9.08649796 15.1832163,9.08649796 C14.955298,9.08649796 14.7704816,8.90102857 14.7704816,8.6731102 C14.7704816,8.44519184 14.955298,8.25972245 15.1832163,8.25972245 C15.4111347,8.25972245 15.5966041,8.44519184 15.5966041,8.6731102" id="Fill-84"></path>
                    <path d="M16.4218776,7.84594286 C16.4218776,8.07451429 16.2357551,8.25998367 16.0078367,8.25998367 C15.7805714,8.25998367 15.5964082,8.07451429 15.5964082,7.84594286 C15.5964082,7.61802449 15.7805714,7.43516735 16.0078367,7.43516735 C16.2357551,7.43516735 16.4218776,7.61802449 16.4218776,7.84594286" id="Fill-86"></path>
                    <path d="M13.9429224,7.0219102 C13.9429224,7.24917551 13.7594122,7.43529796 13.5314939,7.43529796 C13.3016163,7.43529796 13.1181061,7.24917551 13.1181061,7.0219102 C13.1181061,6.79333878 13.3016163,6.60786939 13.5314939,6.60786939 C13.7594122,6.60786939 13.9429224,6.79333878 13.9429224,7.0219102" id="Fill-88"></path>
                    <path d="M13.1179755,6.19474286 C13.1179755,6.42266122 12.9325061,6.60813061 12.7052408,6.60813061 C12.4766694,6.60813061 12.2912,6.42266122 12.2912,6.19474286 C12.2912,5.96682449 12.4766694,5.78070204 12.7052408,5.78070204 C12.9325061,5.78070204 13.1179755,5.96682449 13.1179755,6.19474286" id="Fill-90"></path>
                    <path d="M16.4218776,6.19474286 C16.4218776,6.42266122 16.2357551,6.60813061 16.0078367,6.60813061 C15.7805714,6.60813061 15.5964082,6.42266122 15.5964082,6.19474286 C15.5964082,5.96682449 15.7805714,5.78070204 16.0078367,5.78070204 C16.2357551,5.78070204 16.4218776,5.96682449 16.4218776,6.19474286" id="Fill-92"></path>
                    <path d="M15.5966041,5.37012245 C15.5966041,5.59804082 15.4111347,5.78089796 15.1832163,5.78089796 C14.955298,5.78089796 14.7704816,5.59804082 14.7704816,5.37012245 C14.7704816,5.13959184 14.955298,4.95608163 15.1832163,4.95608163 C15.4111347,4.95608163 15.5966041,5.13959184 15.5966041,5.37012245" id="Fill-94"></path>
                    <path d="M12.2914612,23.5423347 C12.2914612,23.7702531 12.1059918,23.9557224 11.8780735,23.9557224 C11.6501551,23.9557224 11.4666449,23.7702531 11.4666449,23.5423347 C11.4666449,23.3144163 11.6501551,23.1289469 11.8780735,23.1289469 C12.1059918,23.1289469 12.2914612,23.3144163 12.2914612,23.5423347" id="Fill-96"></path>
                    <path d="M11.4665143,22.7158204 C11.4665143,22.9437388 11.2810449,23.1292082 11.0531265,23.1292082 C10.8252082,23.1292082 10.6397388,22.9437388 10.6397388,22.7158204 C10.6397388,22.487249 10.8252082,22.3017796 11.0531265,22.3017796 C11.2810449,22.3017796 11.4665143,22.487249 11.4665143,22.7158204" id="Fill-98"></path>
                    <path d="M10.6396735,21.8905469 C10.6396735,22.1191184 10.4542041,22.3019755 10.2262857,22.3019755 C9.99836735,22.3019755 9.81289796,22.1191184 9.81289796,21.8905469 C9.81289796,21.6606694 9.99836735,21.4771592 10.2262857,21.4771592 C10.4542041,21.4771592 10.6396735,21.6606694 10.6396735,21.8905469" id="Fill-100"></path>
                    <path d="M9.81283265,21.0640327 C9.81283265,21.291951 9.62932245,21.4774204 9.40140408,21.4774204 C9.17152653,21.4774204 8.98801633,21.291951 8.98801633,21.0640327 C8.98801633,20.8354612 9.17152653,20.6499918 9.40140408,20.6499918 C9.62932245,20.6499918 9.81283265,20.8354612 9.81283265,21.0640327" id="Fill-102"></path>
                    <path d="M11.4665143,21.0640327 C11.4665143,21.291951 11.2810449,21.4774204 11.0531265,21.4774204 C10.8252082,21.4774204 10.6397388,21.291951 10.6397388,21.0640327 C10.6397388,20.8354612 10.8252082,20.6499918 11.0531265,20.6499918 C11.2810449,20.6499918 11.4665143,20.8354612 11.4665143,21.0640327" id="Fill-104"></path>
                    <path d="M10.6396735,20.2368653 C10.6396735,20.4647837 10.4542041,20.6502531 10.2262857,20.6502531 C9.99836735,20.6502531 9.81289796,20.4647837 9.81289796,20.2368653 C9.81289796,20.0089469 9.99836735,19.8254367 10.2262857,19.8254367 C10.4542041,19.8254367 10.6396735,20.0089469 10.6396735,20.2368653" id="Fill-106"></path>
                    <path d="M9.81283265,19.4115918 C9.81283265,19.6401633 9.62932245,19.8256327 9.40140408,19.8256327 C9.17152653,19.8256327 8.98801633,19.6401633 8.98801633,19.4115918 C8.98801633,19.1836735 9.17152653,18.9982041 9.40140408,18.9982041 C9.62932245,18.9982041 9.81283265,19.1836735 9.81283265,19.4115918" id="Fill-108"></path>
                    <path d="M10.6396735,18.5850776 C10.6396735,18.8129959 10.4542041,18.9984653 10.2262857,18.9984653 C9.99836735,18.9984653 9.81289796,18.8129959 9.81289796,18.5850776 C9.81289796,18.3571592 9.99836735,18.1716898 10.2262857,18.1716898 C10.4542041,18.1716898 10.6396735,18.3571592 10.6396735,18.5850776" id="Fill-110"></path>
                    <path d="M8.98788571,18.5850776 C8.98788571,18.8129959 8.80241633,18.9984653 8.57515102,18.9984653 C8.34657959,18.9984653 8.1611102,18.8129959 8.1611102,18.5850776 C8.1611102,18.3571592 8.34657959,18.1716898 8.57515102,18.1716898 C8.80241633,18.1716898 8.98788571,18.3571592 8.98788571,18.5850776" id="Fill-112"></path>
                    <path d="M12.2914612,18.5850776 C12.2914612,18.8129959 12.1059918,18.9984653 11.8780735,18.9984653 C11.6501551,18.9984653 11.4666449,18.8129959 11.4666449,18.5850776 C11.4666449,18.3571592 11.6501551,18.1716898 11.8780735,18.1716898 C12.1059918,18.1716898 12.2914612,18.3571592 12.2914612,18.5850776" id="Fill-114"></path>
                    <path d="M10.6396735,16.9332898 C10.6396735,17.1612082 10.4542041,17.3473306 10.2262857,17.3473306 C9.99836735,17.3473306 9.81289796,17.1612082 9.81289796,16.9332898 C9.81289796,16.7053714 9.99836735,16.519902 10.2262857,16.519902 C10.4542041,16.519902 10.6396735,16.7053714 10.6396735,16.9332898" id="Fill-116"></path>
                    <path d="M8.98788571,16.9332898 C8.98788571,17.1612082 8.80241633,17.3473306 8.57515102,17.3473306 C8.34657959,17.3473306 8.1611102,17.1612082 8.1611102,16.9332898 C8.1611102,16.7053714 8.34657959,16.519902 8.57515102,16.519902 C8.80241633,16.519902 8.98788571,16.7053714 8.98788571,16.9332898" id="Fill-118"></path>
                    <path d="M12.2914612,16.9332898 C12.2914612,17.1612082 12.1059918,17.3473306 11.8780735,17.3473306 C11.6501551,17.3473306 11.4666449,17.1612082 11.4666449,16.9332898 C11.4666449,16.7053714 11.6501551,16.519902 11.8780735,16.519902 C12.1059918,16.519902 12.2914612,16.7053714 12.2914612,16.9332898" id="Fill-120"></path>
                    <path d="M10.6396735,15.2821551 C10.6396735,15.5100735 10.4542041,15.6955429 10.2262857,15.6955429 C9.99836735,15.6955429 9.81289796,15.5100735 9.81289796,15.2821551 C9.81289796,15.0535837 9.99836735,14.8681143 10.2262857,14.8681143 C10.4542041,14.8681143 10.6396735,15.0535837 10.6396735,15.2821551" id="Fill-122"></path>
                    <path d="M8.98788571,15.2821551 C8.98788571,15.5100735 8.80241633,15.6955429 8.57515102,15.6955429 C8.34657959,15.6955429 8.1611102,15.5100735 8.1611102,15.2821551 C8.1611102,15.0535837 8.34657959,14.8681143 8.57515102,14.8681143 C8.80241633,14.8681143 8.98788571,15.0535837 8.98788571,15.2821551" id="Fill-124"></path>
                    <path d="M11.4665143,14.4549878 C11.4665143,14.6835592 11.2810449,14.8683755 11.0531265,14.8683755 C10.8252082,14.8683755 10.6397388,14.6835592 10.6397388,14.4549878 C10.6397388,14.2270694 10.8252082,14.0409469 11.0531265,14.0409469 C11.2810449,14.0409469 11.4665143,14.2270694 11.4665143,14.4549878" id="Fill-126"></path>
                    <path d="M10.6396735,13.6303673 C10.6396735,13.8582857 10.4542041,14.0411429 10.2262857,14.0411429 C9.99836735,14.0411429 9.81289796,13.8582857 9.81289796,13.6303673 C9.81289796,13.3998367 9.99836735,13.2169796 10.2262857,13.2169796 C10.4542041,13.2169796 10.6396735,13.3998367 10.6396735,13.6303673" id="Fill-128"></path>
                    <path d="M9.81283265,12.8032 C9.81283265,13.0311184 9.62932245,13.2172408 9.40140408,13.2172408 C9.17152653,13.2172408 8.98801633,13.0311184 8.98801633,12.8032 C8.98801633,12.5752816 9.17152653,12.3898122 9.40140408,12.3898122 C9.62932245,12.3898122 9.81283265,12.5752816 9.81283265,12.8032" id="Fill-130"></path>
                    <path d="M11.4665143,12.8032 C11.4665143,13.0311184 11.2810449,13.2172408 11.0531265,13.2172408 C10.8252082,13.2172408 10.6397388,13.0311184 10.6397388,12.8032 C10.6397388,12.5752816 10.8252082,12.3898122 11.0531265,12.3898122 C11.2810449,12.3898122 11.4665143,12.5752816 11.4665143,12.8032" id="Fill-132"></path>
                    <path d="M10.6396735,11.9760327 C10.6396735,12.2046041 10.4542041,12.3900735 10.2262857,12.3900735 C9.99836735,12.3900735 9.81289796,12.2046041 9.81289796,11.9760327 C9.81289796,11.7481143 9.99836735,11.5652571 10.2262857,11.5652571 C10.4542041,11.5652571 10.6396735,11.7481143 10.6396735,11.9760327" id="Fill-134"></path>
                    <path d="M12.2914612,11.9760327 C12.2914612,12.2046041 12.1059918,12.3900735 11.8780735,12.3900735 C11.6501551,12.3900735 11.4666449,12.2046041 11.4666449,11.9760327 C11.4666449,11.7481143 11.6501551,11.5652571 11.8780735,11.5652571 C12.1059918,11.5652571 12.2914612,11.7481143 12.2914612,11.9760327" id="Fill-136"></path>
                    <path d="M9.81283265,11.1520653 C9.81283265,11.3799837 9.62932245,11.5654531 9.40140408,11.5654531 C9.17152653,11.5654531 8.98801633,11.3799837 8.98801633,11.1520653 C8.98801633,10.9234939 9.17152653,10.7380245 9.40140408,10.7380245 C9.62932245,10.7380245 9.81283265,10.9234939 9.81283265,11.1520653" id="Fill-138"></path>
                    <path d="M8.98788571,10.324898 C8.98788571,10.5534694 8.80241633,10.7382857 8.57515102,10.7382857 C8.34657959,10.7382857 8.1611102,10.5534694 8.1611102,10.324898 C8.1611102,10.0969796 8.34657959,9.91085714 8.57515102,9.91085714 C8.80241633,9.91085714 8.98788571,10.0969796 8.98788571,10.324898" id="Fill-140"></path>
                    <path d="M9.81283265,9.50027755 C9.81283265,9.72819592 9.62932245,9.91105306 9.40140408,9.91105306 C9.17152653,9.91105306 8.98801633,9.72819592 8.98801633,9.50027755 C8.98801633,9.26974694 9.17152653,9.08623673 9.40140408,9.08623673 C9.62932245,9.08623673 9.81283265,9.26974694 9.81283265,9.50027755" id="Fill-142"></path>
                    <path d="M11.4665143,9.50027755 C11.4665143,9.72819592 11.2810449,9.91105306 11.0531265,9.91105306 C10.8252082,9.91105306 10.6397388,9.72819592 10.6397388,9.50027755 C10.6397388,9.26974694 10.8252082,9.08623673 11.0531265,9.08623673 C11.2810449,9.08623673 11.4665143,9.26974694 11.4665143,9.50027755" id="Fill-144"></path>
                    <path d="M8.98788571,8.6731102 C8.98788571,8.90102857 8.80241633,9.08649796 8.57515102,9.08649796 C8.34657959,9.08649796 8.1611102,8.90102857 8.1611102,8.6731102 C8.1611102,8.44519184 8.34657959,8.25972245 8.57515102,8.25972245 C8.80241633,8.25972245 8.98788571,8.44519184 8.98788571,8.6731102" id="Fill-146"></path>
                    <path d="M12.2914612,8.6731102 C12.2914612,8.90102857 12.1059918,9.08649796 11.8780735,9.08649796 C11.6501551,9.08649796 11.4666449,8.90102857 11.4666449,8.6731102 C11.4666449,8.44519184 11.6501551,8.25972245 11.8780735,8.25972245 C12.1059918,8.25972245 12.2914612,8.44519184 12.2914612,8.6731102" id="Fill-148"></path>
                    <path d="M11.4665143,7.84594286 C11.4665143,8.07451429 11.2810449,8.25998367 11.0531265,8.25998367 C10.8252082,8.25998367 10.6397388,8.07451429 10.6397388,7.84594286 C10.6397388,7.61802449 10.8252082,7.43516735 11.0531265,7.43516735 C11.2810449,7.43516735 11.4665143,7.61802449 11.4665143,7.84594286" id="Fill-150"></path>
                    <path d="M7.33642449,15.2821551 C7.33642449,15.5100735 7.1509551,15.6955429 6.92238367,15.6955429 C6.69511837,15.6955429 6.50964898,15.5100735 6.50964898,15.2821551 C6.50964898,15.0535837 6.69511837,14.8681143 6.92238367,14.8681143 C7.1509551,14.8681143 7.33642449,15.0535837 7.33642449,15.2821551" id="Fill-152"></path>
                    <path d="M8.16137143,14.4549878 C8.16137143,14.6835592 7.97524898,14.8683755 7.74798367,14.8683755 C7.52006531,14.8683755 7.3365551,14.6835592 7.3365551,14.4549878 C7.3365551,14.2270694 7.52006531,14.0409469 7.74798367,14.0409469 C7.97524898,14.0409469 8.16137143,14.2270694 8.16137143,14.4549878" id="Fill-154"></path>
                    <path d="M7.33642449,13.6303673 C7.33642449,13.8582857 7.1509551,14.0411429 6.92238367,14.0411429 C6.69511837,14.0411429 6.50964898,13.8582857 6.50964898,13.6303673 C6.50964898,13.3998367 6.69511837,13.2169796 6.92238367,13.2169796 C7.1509551,13.2169796 7.33642449,13.3998367 7.33642449,13.6303673" id="Fill-156"></path>
                    <path d="M8.16137143,12.8032 C8.16137143,13.0311184 7.97524898,13.2172408 7.74798367,13.2172408 C7.52006531,13.2172408 7.3365551,13.0311184 7.3365551,12.8032 C7.3365551,12.5752816 7.52006531,12.3898122 7.74798367,12.3898122 C7.97524898,12.3898122 8.16137143,12.5752816 8.16137143,12.8032" id="Fill-158"></path>
                    <path d="M8.16137143,11.1520653 C8.16137143,11.3799837 7.97524898,11.5654531 7.74798367,11.5654531 C7.52006531,11.5654531 7.3365551,11.3799837 7.3365551,11.1520653 C7.3365551,10.9234939 7.52006531,10.7380245 7.74798367,10.7380245 C7.97524898,10.7380245 8.16137143,10.9234939 8.16137143,11.1520653" id="Fill-160"></path>
                    <path d="M8.16137143,9.50027755 C8.16137143,9.72819592 7.97524898,9.91105306 7.74798367,9.91105306 C7.52006531,9.91105306 7.3365551,9.72819592 7.3365551,9.50027755 C7.3365551,9.26974694 7.52006531,9.08623673 7.74798367,9.08623673 C7.97524898,9.08623673 8.16137143,9.26974694 8.16137143,9.50027755" id="Fill-162"></path>
                    <path d="M16.2496653,30.5691429 C16.2366041,30.5691429 16.2241959,30.5678367 16.2111347,30.5678367 L16.2111347,30.5671837 C16.1987265,30.5671837 16.1863184,30.5684898 16.1732571,30.5684898 C8.1066449,30.5684898 1.54533878,24.0078367 1.54533878,15.9418776 C1.54533878,7.87526531 8.1066449,1.31395918 16.1732571,1.31395918 C16.1856653,1.31395918 16.1987265,1.31526531 16.2111347,1.31526531 L16.2111347,1.31591837 C16.2241959,1.31591837 16.2366041,1.31395918 16.2496653,1.31395918 C24.3162776,1.31395918 30.8769306,7.87461224 30.8769306,15.9418776 C30.8769306,24.0078367 24.3162776,30.5691429 16.2496653,30.5691429 M16.2496653,0.268408163 C16.2366041,0.268408163 16.2241959,0.269714286 16.2111347,0.269714286 C16.1987265,0.269714286 16.1856653,0.268408163 16.1732571,0.268408163 C7.52999184,0.268408163 0.499787755,7.29861224 0.499787755,15.9418776 C0.499787755,24.5838367 7.52999184,31.6153469 16.1732571,31.6153469 C16.1856653,31.6153469 16.1987265,31.6140408 16.2111347,31.6140408 C16.2241959,31.6140408 16.2366041,31.6153469 16.2496653,31.6153469 C24.8922776,31.6153469 31.9231347,24.5844898 31.9231347,15.9418776 C31.9231347,7.29861224 24.8922776,0.268408163 16.2496653,0.268408163" id="Fill-164"></path>
                    <path d="M13.9429224,25.1941224 C13.9429224,25.4220408 13.7594122,25.6075102 13.5314939,25.6075102 C13.3016163,25.6075102 13.1181061,25.4220408 13.1181061,25.1941224 C13.1181061,24.9662041 13.3016163,24.7800816 13.5314939,24.7800816 C13.7594122,24.7800816 13.9429224,24.9662041 13.9429224,25.1941224" id="Fill-3"></path>
                    <path d="M15.5966041,25.1941224 C15.5966041,25.4220408 15.4111347,25.6075102 15.1832163,25.6075102 C14.955298,25.6075102 14.7704816,25.4220408 14.7704816,25.1941224 C14.7704816,24.9662041 14.955298,24.7800816 15.1832163,24.7800816 C15.4111347,24.7800816 15.5966041,24.9662041 15.5966041,25.1941224" id="Fill-5"></path>
                    <path d="M14.7704163,24.3669551 C14.7704163,24.5955265 14.5842939,24.7803429 14.3563755,24.7803429 C14.1284571,24.7803429 13.9429878,24.5955265 13.9429878,24.3669551 C13.9429878,24.1390367 14.1284571,23.9555265 14.3563755,23.9555265 C14.5842939,23.9555265 14.7704163,24.1390367 14.7704163,24.3669551" id="Fill-7"></path>
                    <path d="M13.1179755,24.3669551 C13.1179755,24.5955265 12.9325061,24.7803429 12.7052408,24.7803429 C12.4766694,24.7803429 12.2912,24.5955265 12.2912,24.3669551 C12.2912,24.1390367 12.4766694,23.9555265 12.7052408,23.9555265 C12.9325061,23.9555265 13.1179755,24.1390367 13.1179755,24.3669551" id="Fill-9"></path>
                    <path d="M16.4218776,24.3669551 C16.4218776,24.5955265 16.2357551,24.7803429 16.0078367,24.7803429 C15.7805714,24.7803429 15.5964082,24.5955265 15.5964082,24.3669551 C15.5964082,24.1390367 15.7805714,23.9555265 16.0078367,23.9555265 C16.2357551,23.9555265 16.4218776,24.1390367 16.4218776,24.3669551" id="Fill-11"></path>
                </g>
            </g>
        </g>
    </g>
</svg>