<?xml version="1.0" encoding="UTF-8" standalone="no"?>
<svg width="32px" height="32px" viewBox="0 0 32 32" version="1.1" xmlns="http://www.w3.org/2000/svg" xmlns:xlink="http://www.w3.org/1999/xlink">
    <!-- Generator: Sketch 41 (35326) - http://www.bohemiancoding.com/sketch -->
    <title>Group 15 Copy</title>
    <desc>Created with Sketch.</desc>
    <defs></defs>
    <g id="Page-1" stroke="none" stroke-width="1" fill="none" fill-rule="evenodd" opacity="0.802819293">
        <g id="-index" transform="translate(-948.000000, -290.000000)" fill="#215ED5">
            <g id="Group-7" transform="translate(936.000000, 243.000000)">
                <g id="Group-15-Copy" transform="translate(12.000000, 47.000000)">
                    <path d="M26.6692667,17.5548735 L27.0806,15.9450776 C27.8492667,12.9377306 26.9166,9.7227102 24.6539333,7.55715918 L18.2966,1.48107755 C25.4452667,2.56450612 30.9326,8.63340408 30.9326,15.9352816 C30.9326,19.7204245 29.4586,23.1725061 27.0419333,25.7716898 L26.6692667,17.5548735 Z M1.06793333,15.9352816 C1.06793333,14.7924245 1.20593333,13.6796082 1.4606,12.6112 L7.8746,18.1517714 C7.35926667,19.2025469 5.89326667,22.3561796 5.0366,25.8533224 C2.57526667,23.246302 1.06793333,19.7589551 1.06793333,15.9352816 L1.06793333,15.9352816 Z M9.3386,2.86556735 C10.4712667,3.46246531 11.7606,3.77985306 12.9686,3.75699592 C13.8672667,3.71846531 14.7472667,4.11813878 15.3592667,4.79405714 L15.3619333,4.79405714 C16.3439333,5.87422041 16.4166,7.51601633 15.5286,8.61381224 C15.1772667,9.0474449 14.7106,9.36809796 14.1819333,9.54442449 C13.4766,9.77626122 12.9139333,10.328098 12.6746,11.0196898 C12.4972667,11.5375673 12.1692667,11.9934041 11.7266,12.3382204 C10.6066,13.2074449 8.92993333,13.1388735 7.82526667,12.1749551 C7.13526667,11.5721796 6.74993333,10.7186286 6.76793333,9.82981224 C6.7966,8.29185306 6.3386,6.80287347 5.47126667,5.58752653 C6.60126667,4.48646531 7.91126667,3.56956735 9.3386,2.86556735 L9.3386,2.86556735 Z M19.8619333,30.0649143 C19.8592667,30.0649143 19.8539333,30.0649143 19.8512667,30.0675265 C19.5286,30.1517714 19.2032667,30.2255673 18.8752667,30.2895673 C18.8412667,30.2947918 18.8019333,30.3026286 18.7679333,30.3072 C18.4819333,30.360751 18.1926,30.4045061 17.9039333,30.4397714 C17.8539333,30.4476082 17.8019333,30.4528327 17.7526,30.4580571 C17.7266,30.4632816 17.7006,30.4658939 17.6746,30.4678531 C17.3752667,30.5011592 17.0726,30.5266286 16.7706,30.542302 C16.7579333,30.542302 16.7446,30.5449143 16.7319333,30.5449143 C16.6846,30.5475265 16.6352667,30.5475265 16.5859333,30.5494857 C16.3126,30.5599347 16.0392667,30.5625469 15.7632667,30.5573224 C15.7239333,30.5573224 15.6819333,30.5547102 15.6432667,30.5547102 L15.6432667,30.4195265 C15.6432667,28.5321796 14.8332667,26.7284245 13.3646,25.3406694 C12.7106,24.7254857 12.3699333,23.8556082 12.4219333,22.9504653 C12.5052667,21.5039347 13.6406,20.2944653 15.0599333,20.1338122 C15.6226,20.0704653 16.1819333,20.1645061 16.6846,20.4094041 C17.3512667,20.7333224 18.1486,20.7307102 18.8152667,20.4094041 C19.3152667,20.1645061 19.8772667,20.0704653 20.4372667,20.1338122 C21.8566,20.2944653 22.9919333,21.5039347 23.0752667,22.9504653 C23.1299333,23.8556082 22.7866,24.7254857 22.1326,25.3432816 C20.7812667,26.6187102 19.9946,28.2689959 19.8932667,30.0577306 L19.8619333,30.0649143 Z M26.0466,15.6923429 L25.5966,17.4503837 L26.0206,26.7715265 C24.9632667,27.7080163 23.7732667,28.5014857 22.4766,29.1134041 L22.4452667,29.1290776 C22.2472667,29.2231184 22.0446,29.3125878 21.8412667,29.3968327 C21.8046,29.4118531 21.7679333,29.4275265 21.7319333,29.4399347 C21.5546,29.5137306 21.3752667,29.5829551 21.1926,29.6495673 L21.0206,29.710302 L20.9972667,29.7181388 C21.1639333,28.3636898 21.8152667,27.0954449 22.8726,26.0956082 C23.7499333,25.2668735 24.2132667,24.0985469 24.1406,22.8890776 C24.0259333,20.9449143 22.4872667,19.3122612 20.5599333,19.0954449 C19.7919333,19.0092408 19.0259333,19.1392 18.3412667,19.4709551 C17.9712667,19.6518531 17.5286,19.6518531 17.1559333,19.4735673 C16.4712667,19.1392 15.7032667,19.0066286 14.9372667,19.0954449 C13.0106,19.3122612 11.4712667,20.9449143 11.3566,22.8890776 C11.2839333,24.0985469 11.7472667,25.2668735 12.6226,26.0929959 C13.8826,27.2822204 14.5752667,28.8201796 14.5752667,30.4195265 L14.5752667,30.4959347 C14.5626,30.4933224 14.5492667,30.4933224 14.5339333,30.4913633 C14.4426,30.4835265 14.3512667,30.4704653 14.2579333,30.4606694 C14.1092667,30.4423837 13.9586,30.4273633 13.8099333,30.4045061 C13.7186,30.3914449 13.6272667,30.3764245 13.5366,30.360751 C13.3879333,30.3352816 13.2366,30.3098122 13.0912667,30.2817306 C13.0052667,30.2667102 12.9192667,30.2464653 12.8359333,30.2307918 C12.6799333,30.1974857 12.5259333,30.1622204 12.3746,30.126302 C12.2992667,30.1060571 12.2239333,30.0877714 12.1486,30.0675265 C11.9846,30.0244245 11.8226,29.9806694 11.6612667,29.9323429 C11.5986,29.9147102 11.5366,29.8944653 11.4739333,29.8735673 C11.2992667,29.8200163 11.1272667,29.7638531 10.9559333,29.7031184 C10.9059333,29.6848327 10.8592667,29.6698122 10.8099333,29.6515265 C10.6226,29.5829551 10.4372667,29.5117714 10.2526,29.4347102 C10.2212667,29.422302 10.1899333,29.4092408 10.1586,29.3968327 C9.9586,29.3125878 9.75793333,29.2257306 9.5626,29.133649 C9.5466,29.1264653 9.53393333,29.1186286 9.51793333,29.1107918 C8.20326667,28.4884245 6.9946,27.6799347 5.92726667,26.7232 C6.87993333,22.3940571 8.9866,18.3026286 9.00793333,18.2614857 L9.19793333,17.901649 L1.77326667,11.4905469 C1.7786,11.4781388 1.78126667,11.4683429 1.7866,11.4559347 C1.89593333,11.1163429 2.02326667,10.7813224 2.1586,10.4528327 C2.17193333,10.4201796 2.1846,10.3842612 2.2006,10.350302 C2.3386,10.0211592 2.48926667,9.70311837 2.65126667,9.38703673 C2.6746,9.34262857 2.69793333,9.29952653 2.7186,9.25577143 C3.2706,8.21283265 3.94526667,7.24891429 4.72126667,6.37315918 C5.37726667,7.37430204 5.72393333,8.5707102 5.7006,9.81022041 C5.67993333,11.0033633 6.19526667,12.1494857 7.11726667,12.9534041 C7.90326667,13.6410776 8.90593333,13.9891592 9.90593333,13.9891592 C10.7919333,13.9891592 11.6719333,13.7135673 12.3879333,13.1571592 C12.9946,12.6869551 13.4426,12.0619755 13.6872667,11.352751 C13.8179333,10.968751 14.1326,10.6618122 14.5232667,10.5325061 C15.2472667,10.2941388 15.8852667,9.85397551 16.3646,9.26099592 C17.5706,7.77201633 17.4819333,5.55291429 16.1586,4.09854694 C15.3539333,3.21364898 14.2159333,2.71079184 13.0259333,2.71079184 L12.9479333,2.71079184 C12.1872667,2.72385306 11.3986,2.58017959 10.6486,2.30262857 C11.9399333,1.81022041 13.3072667,1.4836898 14.7212667,1.36417959 C14.7786,1.3589551 14.8359333,1.35307755 14.8932667,1.35111837 C15.2606,1.32303673 15.6272667,1.30801633 15.9999333,1.30801633 C16.2032667,1.30801633 16.4032667,1.31193469 16.6039333,1.32303673 L23.9086,8.30426122 C25.9012667,10.2125061 26.7212667,13.0415673 26.0466,15.6923429 L26.0466,15.6923429 Z M31.9999333,15.9352816 C31.9999333,7.64466939 25.3906,0.837812245 17.0626,0.300342857 L17.0599333,0.294465306 L16.8592667,0.284669388 L16.8539333,0.284669388 C16.5726,0.26964898 16.2866,0.261812245 15.9999333,0.261812245 C15.5939333,0.261812245 15.1899333,0.281404082 14.7919333,0.309485714 C14.7319333,0.315363265 14.6719333,0.319934694 14.6146,0.3232 C12.7579333,0.480587755 10.9892667,0.950791837 9.36726667,1.67764898 L9.3566,1.66915918 L9.0986,1.78932245 C9.0466,1.81479184 8.99993333,1.84548571 8.94793333,1.86834286 C8.63793333,2.01854694 8.33326667,2.18181224 8.03126667,2.3509551 C7.91393333,2.41691429 7.79193333,2.48287347 7.6746,2.55536327 C7.37726667,2.73364898 7.0886,2.92173061 6.8046,3.1189551 C6.68993333,3.19797551 6.57526667,3.27373061 6.46326667,3.35536327 C6.17193333,3.56956735 5.8906,3.79487347 5.6146,4.02736327 C5.51793333,4.10638367 5.42193333,4.18475102 5.32793333,4.26964898 C5.04126667,4.52107755 4.76793333,4.78164898 4.50526667,5.05005714 C4.4606,5.09250612 4.41393333,5.1316898 4.3726,5.17413878 L4.05193333,5.50589388 L4.05993333,5.51634286 C3.36726667,6.27911837 2.74726667,7.10785306 2.21593333,7.99079184 C2.20326667,8.0116898 2.1926,8.03128163 2.17993333,8.05283265 C1.76793333,8.74050612 1.41126667,9.46279184 1.10926667,10.2125061 C1.09126667,10.2595265 1.0726,10.3045878 1.0546,10.350302 C0.9086,10.7186286 0.7786,11.0928327 0.663933333,11.4755265 C0.661266667,11.4879347 0.653266667,11.4990367 0.651266667,11.512098 L0.5546,11.8301388 L0.559933333,11.8360163 C0.197933333,13.1421388 -6.66666662e-05,14.5168327 -6.66666662e-05,15.9352816 C-6.66666662e-05,20.2892408 1.82526667,24.2356898 4.76326667,27.0778122 L4.7606,27.0882612 L4.97393333,27.2867918 C5.04926667,27.3560163 5.12526667,27.4219755 5.2006,27.4885878 C5.2346,27.5166694 5.26526667,27.5473633 5.29926667,27.5754449 C5.4586,27.7158531 5.6226,27.8556082 5.7866,27.9888327 C5.81526667,28.014302 5.84393333,28.0371592 5.8726,28.0600163 C6.0466,28.1978122 6.22126667,28.3329959 6.3986,28.4655673 C6.42193333,28.4805878 6.44526667,28.4988735 6.4686,28.5165061 C6.65326667,28.6516898 6.84393333,28.781649 7.03393333,28.909649 C7.05193333,28.9220571 7.06993333,28.9325061 7.0886,28.9449143 C7.28393333,29.0755265 7.4846,29.2002612 7.6846,29.3204245 C7.7006,29.3302204 7.7186,29.3406694 7.7346,29.3504653 C7.93726667,29.4706286 8.14326667,29.5855673 8.35126667,29.6978939 C8.36993333,29.7076898 8.38793333,29.7181388 8.40593333,29.7285878 C8.61193333,29.838302 8.81993333,29.9401796 9.0286,30.0394449 C9.05193333,30.0525061 9.07793333,30.0649143 9.10126667,30.0753633 C9.30726667,30.1720163 9.5106,30.2614857 9.7186,30.3483429 C9.7526,30.3633633 9.7866,30.3764245 9.8226,30.3914449 C10.0179333,30.4730776 10.2186,30.5494857 10.4192667,30.6239347 C10.4659333,30.6415673 10.5132667,30.6565878 10.5599333,30.6748735 C10.7499333,30.7408327 10.9399333,30.8048327 11.1299333,30.8636082 C11.1899333,30.8838531 11.2526,30.9014857 11.3126,30.9223837 C11.4919333,30.9759347 11.6719333,31.0242612 11.8539333,31.0725878 C11.9272667,31.0908735 12.0026,31.1111184 12.0752667,31.1313633 C12.2472667,31.1725061 12.4192667,31.2103837 12.5912667,31.246302 C12.6772667,31.2639347 12.7632667,31.2841796 12.8486,31.3024653 C13.0132667,31.3331592 13.1772667,31.3612408 13.3412667,31.3893224 C13.4372667,31.4043429 13.5312667,31.4219755 13.6272667,31.4350367 C13.7919333,31.4578939 13.9532667,31.4781388 14.1172667,31.4964245 C14.2159333,31.5088327 14.3126,31.5218939 14.4139333,31.5316898 C14.4659333,31.5369143 14.5206,31.5395265 14.5752667,31.544751 L14.5752667,31.5525878 L15.0699333,31.5806694 C15.1146,31.5826286 15.1586,31.5878531 15.2032667,31.5904653 C15.4686,31.6009143 15.7346,31.608751 15.9999333,31.608751 C16.2652667,31.608751 16.5292667,31.6009143 16.7919333,31.5878531 C16.8772667,31.5852408 16.9606,31.5780571 17.0439333,31.5702204 C17.1172667,31.5676082 17.1899333,31.5623837 17.2632667,31.5571592 C17.3672667,31.5473633 17.4712667,31.5421388 17.5752667,31.5316898 C17.6826,31.5218939 17.7892667,31.5062204 17.8959333,31.4938122 C18.0492667,31.4755265 18.2006,31.4605061 18.3539333,31.437649 C18.4606,31.4219755 18.5679333,31.4043429 18.6746,31.3867102 C18.8252667,31.3612408 18.9766,31.3357714 19.1252667,31.3076898 C19.2159333,31.2894041 19.3046,31.2691592 19.3959333,31.2515265 L19.4946,31.2280163 C19.6272667,31.2005878 19.7579333,31.1698939 19.8906,31.1365878 C19.9846,31.1137306 20.0779333,31.0908735 20.1719333,31.064751 C20.3019333,31.0294857 20.4346,30.9961796 20.5652667,30.957649 L20.5679333,30.9556898 L20.5706,30.9556898 L20.6486,30.9321796 C20.7319333,30.9067102 20.8126,30.8812408 20.8932667,30.8557714 C21.0626,30.8022204 21.2319333,30.7460571 21.4012667,30.6872816 C21.4659333,30.6644245 21.5339333,30.6389551 21.5992667,30.616098 C21.7812667,30.5475265 21.9632667,30.478302 22.1406,30.4071184 C22.1926,30.3842612 22.2446,30.3633633 22.2946,30.3431184 C22.4872667,30.2614857 22.6799333,30.1772408 22.8699333,30.0877714 C22.9059333,30.0701388 22.9426,30.0551184 22.9792667,30.0368327 C23.1799333,29.9401796 23.3799333,29.8402612 23.5779333,29.7357714 L23.6486,29.6978939 C23.8566,29.5881796 24.0626,29.4706286 24.2659333,29.3504653 L24.3046,29.3276082 C24.5159333,29.2028735 24.7239333,29.070302 24.9299333,28.9351184 C24.9346,28.9325061 24.9399333,28.9272816 24.9452667,28.9246694 C25.1539333,28.7868735 25.3592667,28.6438531 25.5626,28.493649 L25.5679333,28.4910367 C25.7732667,28.3408327 25.9739333,28.184751 26.1692667,28.0267102 C26.1719333,28.0267102 26.1719333,28.0267102 26.1719333,28.024098 C26.4299333,27.8177306 26.6826,27.6035265 26.9299333,27.3788735 L27.1066,27.2129959 L27.1066,27.2025469 C30.1199333,24.3480163 31.9999333,20.3532408 31.9999333,15.9352816 L31.9999333,15.9352816 Z" id="Fill-13"></path>
                    <path d="M17.7474,17.5012571 C15.9847333,17.5012571 14.5494,16.0958694 14.5494,14.3691755 C14.5494,12.6392163 15.9847333,11.2331755 17.7474,11.2331755 C19.5127333,11.2331755 20.9480667,12.6392163 20.9480667,14.3691755 C20.9480667,16.0958694 19.5127333,17.5012571 17.7474,17.5012571 M17.7474,10.1876245 C15.3960667,10.1876245 13.4820667,12.0619102 13.4820667,14.3691755 C13.4820667,16.6718694 15.3960667,18.5474612 17.7474,18.5474612 C20.1014,18.5474612 22.0154,16.6718694 22.0154,14.3691755 C22.0154,12.0619102 20.1014,10.1876245 17.7474,10.1876245" id="Fill-16"></path>
                </g>
            </g>
        </g>
    </g>
</svg>