<?xml version="1.0" encoding="UTF-8" standalone="no"?>
<svg width="128px" height="128px" viewBox="0 0 128 128" version="1.1" xmlns="http://www.w3.org/2000/svg" xmlns:xlink="http://www.w3.org/1999/xlink">
    <!-- Generator: Sketch 41 (35326) - http://www.bohemiancoding.com/sketch -->
    <title>Group 4</title>
    <desc>Created with Sketch.</desc>
    <defs></defs>
    <g id="Page-1" stroke="none" stroke-width="1" fill="none" fill-rule="evenodd">
        <g id="Complex-" transform="translate(-30.000000, -192.000000)">
            <g id="Group-4" transform="translate(32.000000, 194.000000)">
                <path d="M51.4748652,54.9631105 L47.1750856,54.9631105 C46.3788836,54.9631105 45.7326906,54.3169175 45.7326906,53.5207155 L45.7326906,39.0967652 C45.7326906,38.3005631 46.3788836,37.6543702 47.1750856,37.6543702 L51.4748652,37.6543702 C53.2937253,40.0689394 54.3870608,43.0604667 54.3870608,46.3087403 C54.3870608,49.5570139 53.2937253,52.5485412 51.4748652,54.9631105 Z M94.7741216,45.6683169 L94.7741216,43.4239503 C94.7741216,40.2420268 92.1864649,37.6543702 89.0045414,37.6543702 C87.808796,37.6543702 86.6967094,38.0207385 85.775019,38.6452956 C84.9860289,36.3966017 82.8657082,34.7695801 80.3501713,34.7695801 C77.8346343,34.7695801 75.7128713,36.3966017 74.9253236,38.6452956 C74.0036332,38.0207385 72.8915466,37.6543702 71.6958011,37.6543702 C69.0143888,37.6543702 66.7757917,39.5006358 66.1310411,41.9815552 L56.7021048,41.9815552 C56.01264,39.3174516 54.7101573,36.9043248 52.9446657,34.8979533 C49.6574475,31.2385971 45.0720737,29 39.9631105,29 L21.2119751,29 C17.235292,29 14,32.235292 14,36.2119751 L14,56.4055055 C14,60.3821886 17.235292,63.6174807 21.2119751,63.6174807 L39.9631105,63.6174807 C45.0720737,63.6174807 49.6574475,61.3788836 52.8278318,57.8479006 C54.7101573,55.7131559 56.01264,53.300029 56.7021048,50.6359254 L65.926221,50.6359254 L65.926221,77.4442794 L64.483826,76.0018844 L64.483826,68.6658633 C64.483826,65.0872812 61.5716304,62.1750856 57.9930483,62.1750856 C54.4144663,62.1750856 51.5022707,65.0872812 51.5022707,68.6658633 L51.5022707,82.7364268 L59.0330152,96.5415896 C60.0253829,98.3618921 61.5283586,99.8129415 63.3818362,100.738959 L65.926221,102.011152 L65.926221,123.428492 L68.8110111,123.428492 L68.8110111,100.228351 L64.6713373,98.1585144 C63.3486611,97.4964551 62.2740768,96.4608154 61.5658608,95.1612175 L54.3870608,82.0008053 L54.3870608,68.6658633 C54.3870608,66.6768005 56.0039856,65.0598757 57.9930483,65.0598757 C59.9821111,65.0598757 61.5990359,66.6768005 61.5990359,68.6658633 L61.5990359,77.1961875 L65.3290695,80.926221 L68.8110111,80.926221 L68.8110111,50.6359254 L71.6958011,50.6359254 L71.6958011,41.9815552 L69.2119969,41.9815552 C69.7125079,41.1233302 70.632756,40.5391602 71.6958011,40.5391602 C73.2853204,40.5391602 74.5805912,41.834431 74.5805912,43.4239503 L74.5805912,67.9446657 L77.4653812,67.9446657 L77.4653812,40.5391602 C77.4653812,38.9496409 78.7592096,37.6543702 80.3501713,37.6543702 C81.9396906,37.6543702 83.2349613,38.9496409 83.2349613,40.5391602 L83.2349613,67.9446657 L86.1197514,67.9446657 L86.1197514,43.4239503 C86.1197514,41.834431 87.4135797,40.5391602 89.0045414,40.5391602 C90.5940608,40.5391602 91.8893315,41.834431 91.8893315,43.4239503 L91.8893315,67.9446657 L94.7741216,67.9446657 L94.7741216,50.6359254 C94.7741216,49.0464061 96.0679499,47.7511354 97.6589116,47.7511354 C99.2484309,47.7511354 100.543702,49.0464061 100.543702,50.6359254 L100.543702,93.9077762 C100.543702,96.6569812 99.0162053,99.1292462 96.5569218,100.358167 L94.7741216,101.249567 L94.7741216,113.428492 L97.6589116,113.428492 L97.6589116,103.032367 C101.290862,101.217834 103.428492,97.7575286 103.428492,93.9077762 L103.428492,50.6359254 C103.428492,47.454002 100.840835,44.8663453 97.6589116,44.8663453 C96.6030785,44.8663453 95.626577,45.1721331 94.7741216,45.6683169 Z" id="Fill-1" fill="#4D7EDD"></path>
                <path d="M68.8110111,47.7511354 L57.1982887,47.7511354 C57.2386757,47.2737026 57.2718508,46.7948275 57.2718508,46.3087403 C57.2718508,45.8226532 57.2386757,45.3437781 57.1982887,44.8663453 L68.8110111,44.8663453 L68.8110111,47.7511354 Z" id="Path" fill="#638EE1"></path>
                <path d="M39.9631105,60.7326906 L21.2119751,60.7326906 C18.8262538,60.7326906 16.8847901,58.7912269 16.8847901,56.4055055 L16.8847901,36.2119751 C16.8847901,33.8262538 18.8262538,31.8847901 21.2119751,31.8847901 L39.9631105,31.8847901 C43.1955178,31.8847901 46.1726211,32.9665863 48.5799784,34.7695801 L47.1750856,34.7695801 C44.7893643,34.7695801 42.8479006,36.7110438 42.8479006,39.0967652 L42.8479006,53.5207155 C42.8479006,55.9064368 44.7893643,57.8479006 47.1750856,57.8479006 L48.5799784,57.8479006 C46.1726211,59.6508943 43.1955178,60.7326906 39.9631105,60.7326906 Z" id="Path" fill="#90AEEA"></path>
                <path d="M74.0395466,77 L72,79.0395466 L75.5843516,82.6238982 C78.5802061,85.6226375 80.2317484,89.6050901 80.2317484,93.8442891 L80.2317484,99.6556987 L83.1165385,99.6556987 L83.1165385,93.8442891 C83.1165385,88.8348512 81.164978,84.1268738 77.6238982,80.585794 L74.0395466,77" id="Fill-4" fill="#4D7EDD"></path>
                <polygon id="Path" stroke="#4D7EDD" stroke-width="2" fill="#FFFFFF" points="21 56 37 56 37 36 21 36"></polygon>
                <polygon id="Fill-6" fill="#4D7EDD" points="25 51.8847901 27.8847901 51.8847901 27.8847901 49 25 49"></polygon>
                <polygon id="Fill-7" fill="#4D7EDD" points="31 51.8847901 33.8847901 51.8847901 33.8847901 49 31 49"></polygon>
                <circle id="Oval" stroke="#4D7EDD" stroke-width="2.5" cx="62" cy="62" r="62"></circle>
            </g>
        </g>
    </g>
</svg>