<?xml version="1.0" encoding="utf-8"?>
<!-- Generator: Adobe Illustrator 15.0.0, SVG Export Plug-In . SVG Version: 6.00 Build 0)  -->
<!DOCTYPE svg PUBLIC "-//W3C//DTD SVG 1.1//EN" "http://www.w3.org/Graphics/SVG/1.1/DTD/svg11.dtd">
<svg version="1.1" id="Layer_1" xmlns="http://www.w3.org/2000/svg" xmlns:xlink="http://www.w3.org/1999/xlink" x="0px" y="0px"
	 width="124px" height="124px" viewBox="0 0 124 124" enable-background="new 0 0 124 124" xml:space="preserve">
<g>
	<g>
		<g>
			<g>
				<path fill="#FFFFFF" d="M55.252,35.643l-0.2-0.261h-4.639c-1.165,0-2.108,0.943-2.108,2.099v14.479
					c0,1.164,0.944,2.107,2.108,2.107h4.639l0.2-0.261c1.999-2.661,3.052-5.793,3.052-9.086
					C58.305,41.436,57.251,38.293,55.252,35.643z M54.399,52.762h-3.986c-0.441,0-0.803-0.362-0.803-0.803V37.48
					c0-0.442,0.362-0.794,0.803-0.794h3.986C56.096,39.057,57,41.828,57,44.72C57,47.621,56.096,50.392,54.399,52.762z
					 M55.252,35.643l-0.2-0.261h-4.639c-1.165,0-2.108,0.943-2.108,2.099v14.479c0,1.164,0.944,2.107,2.108,2.107h4.639l0.2-0.261
					c1.999-2.661,3.052-5.793,3.052-9.086C58.305,41.436,57.251,38.293,55.252,35.643z M54.399,52.762h-3.986
					c-0.441,0-0.803-0.362-0.803-0.803V37.48c0-0.442,0.362-0.794,0.803-0.794h3.986C56.096,39.057,57,41.828,57,44.72
					C57,47.621,56.096,50.392,54.399,52.762z M55.052,35.382h-4.639c-1.165,0-2.108,0.943-2.108,2.099v14.479
					c0,1.164,0.944,2.107,2.108,2.107h4.639l0.2-0.261c1.999-2.661,3.052-5.793,3.052-9.086c0-3.284-1.054-6.427-3.052-9.077
					L55.052,35.382z M54.399,52.762h-3.986c-0.441,0-0.803-0.362-0.803-0.803V37.48c0-0.442,0.362-0.794,0.803-0.794h3.986
					C56.096,39.057,57,41.828,57,44.72C57,47.621,56.096,50.392,54.399,52.762z"/>
			</g>
		</g>
	</g>
	<g>
		<defs>
			<path id="SVGID_1_" d="M43.167,59.123H24.341c-2.396,0-4.345-1.949-4.345-4.345V34.503c0-2.395,1.949-4.344,4.345-4.344h18.827
				c3.246,0,6.235,1.086,8.652,2.896h-1.411c-2.395,0-4.345,1.949-4.345,4.344v14.482c0,2.396,1.95,4.345,4.345,4.345h1.411
				C49.403,58.038,46.413,59.123,43.167,59.123z"/>
		</defs>
		<clipPath id="SVGID_2_">
			<use xlink:href="#SVGID_1_"  overflow="visible"/>
		</clipPath>
		<g clip-path="url(#SVGID_2_)">
			<g>
				<g>
					<rect x="14.976" y="25.139" fill="#959AC8" width="41.864" height="39.005"/>
				</g>
			</g>
		</g>
		<g clip-path="url(#SVGID_2_)">
			<g>
				<g>
					<rect x="-29.086" y="-196.641" fill="none" width="1285.182" height="4168.809"/>
				</g>
			</g>
		</g>
	</g>
	<g>
		<defs>
			<rect id="SVGID_3_" x="24.128" y="34.291" width="16.065" height="20.081"/>
		</defs>
		<clipPath id="SVGID_4_">
			<use xlink:href="#SVGID_3_"  overflow="visible"/>
		</clipPath>
		<g clip-path="url(#SVGID_4_)">
			<defs>
				<rect id="SVGID_5_" x="-29.086" y="-196.641" width="1285.182" height="4168.809"/>
			</defs>
			<clipPath id="SVGID_6_">
				<use xlink:href="#SVGID_5_"  overflow="visible"/>
			</clipPath>
			<g clip-path="url(#SVGID_6_)">
				<g>
					<rect x="19.108" y="29.271" fill="#FFFFFF" width="26.105" height="30.121"/>
				</g>
			</g>
		</g>
	</g>
	<g>
		<defs>
			<rect id="SVGID_7_" x="28.144" y="47.343" width="2.896" height="2.896"/>
		</defs>
		<clipPath id="SVGID_8_">
			<use xlink:href="#SVGID_7_"  overflow="visible"/>
		</clipPath>
		<g clip-path="url(#SVGID_8_)">
			<defs>
				<rect id="SVGID_9_" x="-29.086" y="-196.641" width="1285.182" height="4168.809"/>
			</defs>
			<clipPath id="SVGID_10_">
				<use xlink:href="#SVGID_9_"  overflow="visible"/>
			</clipPath>
			<g clip-path="url(#SVGID_10_)">
				<g>
					<rect x="23.124" y="42.323" fill="#6669A7" width="12.937" height="12.937"/>
				</g>
			</g>
		</g>
	</g>
	<g>
		<defs>
			<rect id="SVGID_11_" x="34.168" y="47.343" width="2.896" height="2.896"/>
		</defs>
		<clipPath id="SVGID_12_">
			<use xlink:href="#SVGID_11_"  overflow="visible"/>
		</clipPath>
		<g clip-path="url(#SVGID_12_)">
			<defs>
				<rect id="SVGID_13_" x="-29.086" y="-196.641" width="1285.182" height="4168.809"/>
			</defs>
			<clipPath id="SVGID_14_">
				<use xlink:href="#SVGID_13_"  overflow="visible"/>
			</clipPath>
			<g clip-path="url(#SVGID_14_)">
				<g>
					<rect x="29.148" y="42.323" fill="#6669A7" width="12.937" height="12.937"/>
				</g>
			</g>
		</g>
	</g>
	<g>
		<path fill="#4D7EDD" d="M84.6,97.993h1.592v-5.183c0-4.854-1.891-9.417-5.324-12.851l-3.137-3.139l-1.125,1.125l3.137,3.138
			c3.133,3.136,4.857,7.301,4.857,11.727V97.993z"/>
	</g>
	<g>
		<path fill="#4D7EDD" d="M43.207,27.997H24.38c-3.634,0-6.586,2.962-6.586,6.587v20.281c0,3.635,2.952,6.587,6.586,6.587h18.826
			c4.719,0,9.257-2.029,12.43-5.573c1.828-2.068,3.083-4.417,3.745-6.968l0.083-0.313v-7.745l-0.083-0.307
			c-0.653-2.52-1.908-4.89-3.625-6.848C52.454,30.024,47.996,27.997,43.207,27.997L43.207,27.997z"/>
	</g>
	<g>
		<path fill="#4D7EDD" d="M62.16,0H61.83C27.732,0,0,27.813,0,62c0,27.29,18.213,51.719,44.279,59.419
			c1.476,0.472,2.981,0.864,4.458,1.165C52.943,123.518,57.341,124,61.83,124h0.331c4.479,0,8.887-0.482,13.072-1.416
			c1.367-0.271,2.813-0.642,4.429-1.135c6.557-1.938,12.61-4.939,18.013-8.766c0.594-0.421,1.186-0.853,1.768-1.305
			c0.342-0.251,0.673-0.512,1.004-0.783c0.441-0.352,0.873-0.702,1.305-1.064C115.486,97.964,124,80.645,124,62
			C124,27.813,96.259,0,62.16,0z M100.285,99.491l-1.438,0.713v9.739c-0.431,0.33-0.863,0.662-1.305,0.974
			c-5.451,3.996-11.616,7.108-18.314,9.086c-1.576,0.482-2.98,0.845-4.316,1.105c-0.703,0.161-1.406,0.301-2.129,0.422
			c-0.432,0.084-0.869,0.15-1.305,0.224V99.181l-3.796-1.898c-1.446-0.723-2.62-1.857-3.394-3.283L57,80.645V67.09
			c0-2.359,1.917-4.277,4.267-4.277c2.36,0,4.277,1.918,4.277,4.277v8.293l3.364,3.364h2.57V48.335h2.901v-7.39h-2.981l0.571-0.975
			c0.644-1.094,1.808-1.776,3.063-1.776c1.957,0,3.543,1.596,3.543,3.553v23.968h1.598V38.847c0-1.959,1.586-3.545,3.543-3.545
			c1.959,0,3.555,1.586,3.555,3.545v26.868h1.587V41.747c0-1.957,1.597-3.553,3.554-3.553c1.948,0,3.545,1.596,3.545,3.553v23.968
			h1.586V48.987c0-1.958,1.597-3.554,3.555-3.554s3.545,1.596,3.545,3.554v43.445C104.643,95.444,102.975,98.146,100.285,99.491z
			 M59.871,47.097v-4.912h12.886v4.912H59.871z M101.75,107.544c-0.432,0.381-0.863,0.753-1.305,1.114v-7.47l0.361-0.182
			c3.404-1.697,5.432-4.899,5.432-8.574V48.987c0-2.831-2.311-5.141-5.141-5.141c-0.883,0-1.748,0.24-2.57,0.713l-0.984,0.572
			v-3.385c0-2.84-2.299-5.14-5.131-5.14c-1.033,0-2.027,0.301-2.881,0.884l-0.703,0.472l-0.281-0.804
			c-0.723-2.067-2.66-3.454-4.83-3.454c-2.168,0-4.105,1.387-4.829,3.454l-0.28,0.804l-0.703-0.472
			c-0.854-0.583-1.848-0.884-2.871-0.884c-2.33,0-4.368,1.587-4.961,3.855l-0.131,0.482H59.47l-0.13-0.482
			c-0.165-0.638-0.392-1.255-0.639-1.865v12.171c0.251-0.634,0.467-1.28,0.639-1.941l0.13-0.492h10.422v29.147l-2.761-2.761V67.09
			c0-3.232-2.631-5.863-5.864-5.863c-3.233,0-5.864,2.631-5.864,5.863v13.957l7.48,13.715c0.934,1.717,2.349,3.073,4.086,3.946
			l2.922,1.456v21.824c-0.435,0.057-0.868,0.117-1.306,0.163c-2.118,0.231-4.267,0.343-6.426,0.343H61.83
			c-4.378,0-8.666-0.462-12.772-1.386c-1.446-0.292-2.892-0.673-4.328-1.136C19.277,112.463,1.506,88.627,1.506,62
			c0-33.354,27.059-60.494,60.324-60.494h0.331c33.266,0,60.334,27.14,60.334,60.494C122.494,79.751,114.582,96.269,101.75,107.544z
			"/>
	</g>
	<g>
		<path fill="#90AEEA" d="M43.207,29.503c3.988,0,7.728,1.549,10.637,4.377h-3.388c-1.993,0-3.615,1.618-3.615,3.605v14.479
			c0,1.993,1.622,3.613,3.615,3.613h3.388c-2.835,2.788-6.659,4.369-10.638,4.369H24.38c-2.801,0-5.081-2.28-5.081-5.081V34.584
			c0-2.803,2.279-5.081,5.081-5.081H43.207"/>
	</g>
	<g>
		<path fill="#FFFFFF" d="M50.456,54.071c-1.165,0-2.109-0.944-2.109-2.107V37.485c0-1.155,0.944-2.1,2.109-2.1h4.639l0.201,0.262
			c1.998,2.65,3.052,5.794,3.052,9.077c0,3.292-1.054,6.426-3.052,9.086l-0.201,0.261H50.456L50.456,54.071z"/>
	</g>
	<g>
		<rect x="24.171" y="35.386" fill="#FFFFFF" width="13.349" height="18.686"/>
		<path fill="#4D7EDD" d="M38.172,54.724H23.518v-19.99h14.654V54.724z M24.823,53.42h12.044V36.039H24.823V53.42z"/>
	</g>
	<g>
		<rect x="59.86" y="42.185" fill="#638EE1" width="13.063" height="4.912"/>
	</g>
</g>
</svg>
