<?xml version="1.0" encoding="UTF-8" standalone="no"?>
<svg width="126px" height="126px" viewBox="0 0 126 126" version="1.1" xmlns="http://www.w3.org/2000/svg" xmlns:xlink="http://www.w3.org/1999/xlink">
    <!-- Generator: Sketch 41 (35326) - http://www.bohemiancoding.com/sketch -->
    <title>Group 15</title>
    <desc>Created with Sketch.</desc>
    <defs></defs>
    <g id="Page-1" stroke="none" stroke-width="1" fill="none" fill-rule="evenodd">
        <g id="Rehab" transform="translate(-31.000000, -193.000000)">
            <g id="Group-15" transform="translate(32.000000, 194.000000)">
                <path d="M103.343408,68.2494764 L104.937325,61.9040479 C107.915908,50.0498092 104.301825,37.3769715 95.5339917,28.84089 L70.899325,4.89043675 C98.6004083,9.16105174 119.863825,33.0831887 119.863825,61.8654347 C119.863825,76.785558 114.152075,90.392834 104.787492,100.638191 L103.343408,68.2494764 Z M4.13824167,61.8654347 C4.13824167,57.3605666 4.67299167,52.9741121 5.659825,48.762704 L30.514075,70.6023047 C28.5171583,74.7442092 22.8364083,87.175071 19.516825,100.959968 C9.97915833,90.6837198 4.13824167,76.9374364 4.13824167,61.8654347 L4.13824167,61.8654347 Z M36.187075,10.3477627 C40.5761583,12.700591 45.572325,13.9516572 50.253325,13.8615599 C53.7356583,13.7096815 57.1456583,15.2850982 59.5171583,17.9494059 L59.5274917,17.9494059 C63.3327417,22.2071499 63.614325,28.6787147 60.173325,33.0059623 C58.8119083,34.715238 57.003575,35.9791753 54.9549917,36.6742121 C52.221825,37.5880568 50.0414917,39.7632645 49.114075,42.4893533 C48.4269083,44.5307021 47.1559083,46.327501 45.440575,47.6866841 C41.100575,51.112958 34.6034917,50.842666 30.3229083,47.0431315 C27.6491583,44.6671353 26.1559917,41.3026423 26.2257417,37.799142 C26.336825,31.7368766 24.562075,25.867677 21.2011583,21.0770715 C25.5799083,16.7369528 30.6561583,13.1227615 36.187075,10.3477627 L36.187075,10.3477627 Z M76.9649917,117.56105 C76.9546583,117.56105 76.9339917,117.56105 76.9236583,117.571347 C75.673325,117.90342 74.4126583,118.194306 73.1416583,118.446579 C73.0099083,118.467172 72.8574917,118.498063 72.7257417,118.516082 C71.6174917,118.727167 70.496325,118.89964 69.3777417,119.038647 C69.1839917,119.069537 68.9824917,119.090131 68.791325,119.110725 C68.690575,119.131318 68.589825,119.141615 68.489075,119.149338 C67.3291583,119.280623 66.156325,119.381017 64.986075,119.442798 C64.9369917,119.442798 64.885325,119.453095 64.8362417,119.453095 C64.652825,119.463392 64.4616583,119.463392 64.2704917,119.471114 C63.211325,119.512302 62.1521583,119.522598 61.0826583,119.502005 C60.9302417,119.502005 60.7674917,119.491708 60.6176583,119.491708 L60.6176583,118.958846 C60.6176583,111.519378 57.4789083,104.409409 51.787825,98.9392124 C49.253575,96.5143062 47.9334917,93.085458 48.1349917,89.5176025 C48.4579083,83.8157265 52.857325,79.0482889 58.3572417,78.4150332 C60.537575,78.1653348 62.7049917,78.5360211 64.652825,79.5013499 C67.2361583,80.7781583 70.325825,80.7678614 72.9091583,79.5013499 C74.8466583,78.5360211 77.0244083,78.1653348 79.1944083,78.4150332 C84.694325,79.0482889 89.0937417,83.8157265 89.4166583,89.5176025 C89.6284917,93.085458 88.298075,96.5143062 85.763825,98.9495092 C80.5274083,103.976942 77.479075,110.481972 77.0864083,117.532734 L76.9649917,117.56105 Z M123.999742,61.8654347 C123.999742,29.1858342 98.388575,2.35483954 66.117575,0.236264408 L66.1072417,0.213096514 L65.3296583,0.174483359 L65.3089917,0.174483359 C64.218825,0.11527652 63.110575,0.084385996 61.9997417,0.084385996 C60.4264917,0.084385996 58.8609917,0.161612307 57.3187417,0.272303353 C57.0862417,0.295471246 56.8537417,0.313490718 56.631575,0.32636177 C49.4369917,0.946746468 42.5834083,2.80017793 36.2981583,5.66527407 L36.256825,5.63180933 L35.257075,6.10546404 C35.055575,6.20585824 34.8747417,6.32684613 34.6732417,6.41694349 C33.4719917,7.00901188 32.2914083,7.65256447 31.1211583,8.31928495 C30.6664917,8.5792802 30.1937417,8.83927544 29.739075,9.1250128 C28.5869083,9.82777222 27.468325,10.5691448 26.367825,11.3465563 C25.9234917,11.6580358 25.4791583,11.9566442 25.0451583,12.2784205 C23.9162417,13.1227615 22.826075,14.0108641 21.756575,14.927283 C21.3819917,15.2387624 21.0099917,15.5476677 20.6457417,15.882315 C19.5349083,16.873386 18.4757417,17.9004959 17.4579083,18.9584964 C17.284825,19.1258201 17.1039917,19.2802727 16.943825,19.4475964 L15.7012417,20.7552952 L15.7322417,20.7964826 C13.0481583,23.8031603 10.6456583,27.0698332 8.58674167,30.5501657 C8.53765833,30.6325404 8.496325,30.7097667 8.44724167,30.7947156 C6.85074167,33.5053592 5.46865833,36.3524358 4.29840833,39.3076293 C4.22865833,39.4929725 4.156325,39.670593 4.086575,39.8507877 C3.520825,41.3026423 3.017075,42.7776649 2.57274167,44.2861522 C2.56240833,44.3350622 2.53140833,44.3788237 2.52365833,44.4303079 L2.149075,45.6839484 L2.16974167,45.7071163 C0.766991667,50.855537 -0.00025833333,56.2742498 -0.00025833333,61.8654347 C-0.00025833333,79.0276952 7.07290833,94.5836485 18.4576583,105.786612 L18.447325,105.827799 L19.2739917,106.610359 C19.5659083,106.883226 19.8604083,107.143221 20.152325,107.40579 C20.284075,107.516481 20.4029083,107.637469 20.5346583,107.74816 C21.152075,108.301615 21.787575,108.852497 22.423075,109.377635 C22.5341583,109.47803 22.6452417,109.568127 22.756325,109.658224 C23.430575,110.201383 24.1074083,110.734244 24.794575,111.256809 C24.8849917,111.316016 24.9754083,111.388094 25.065825,111.457597 C25.7814083,111.990459 26.5202417,112.502727 27.2564917,113.007272 C27.3262417,113.056182 27.3959917,113.097369 27.468325,113.146279 C28.2252417,113.661121 29.002825,114.152796 29.777825,114.62645 C29.839825,114.665064 29.909575,114.706251 29.971575,114.744864 C30.7569083,115.218519 31.5551583,115.67158 32.3611583,116.114344 C32.4334917,116.152957 32.5032417,116.194144 32.5729917,116.235332 C33.3712417,116.667799 34.1772417,117.069376 34.985825,117.460656 C35.0762417,117.51214 35.1769917,117.56105 35.2674083,117.602238 C36.0656583,117.983221 36.853575,118.335887 37.659575,118.678257 C37.791325,118.737464 37.923075,118.788949 38.062575,118.848155 C38.8194917,119.169932 39.597075,119.471114 40.3746583,119.764574 C40.5554917,119.834078 40.7389083,119.893285 40.9197417,119.965363 C41.6559917,120.225358 42.3922417,120.477631 43.1284917,120.709309 C43.3609917,120.78911 43.603825,120.858614 43.836325,120.940988 C44.5312417,121.152074 45.2287417,121.342565 45.9339917,121.533057 C46.2181583,121.605135 46.510075,121.684935 46.7916583,121.764736 C47.4581583,121.926911 48.1246583,122.076215 48.7911583,122.217797 C49.1244083,122.2873 49.4576583,122.367101 49.788325,122.439179 C50.4264083,122.560167 51.0619083,122.670858 51.6974083,122.781549 C52.0694083,122.840756 52.4336583,122.910259 52.8056583,122.961744 C53.4437417,123.051841 54.0689083,123.131641 54.7044083,123.203719 C55.0867417,123.252629 55.461325,123.304113 55.8539917,123.342727 C56.0554917,123.36332 56.267325,123.373617 56.4791583,123.394211 L56.4791583,123.425101 L58.3959917,123.535792 C58.569075,123.543515 58.739575,123.564109 58.9126583,123.574406 C59.940825,123.615593 60.971575,123.646483 61.9997417,123.646483 C63.0279083,123.646483 64.0509083,123.615593 65.0687417,123.564109 C65.3994083,123.553812 65.722325,123.525496 66.0452417,123.494605 C66.3294083,123.484308 66.6109917,123.463715 66.8951583,123.443121 C67.2981583,123.404508 67.7011583,123.383914 68.1041583,123.342727 C68.520075,123.304113 68.9334083,123.242332 69.3467417,123.193422 C69.9409083,123.121345 70.527325,123.062138 71.1214917,122.97204 C71.534825,122.910259 71.9507417,122.840756 72.364075,122.771252 C72.9479083,122.670858 73.534325,122.570464 74.1104083,122.459772 C74.4617417,122.387695 74.805325,122.307894 75.1592417,122.23839 L75.541575,122.145719 C76.0556583,122.037602 76.5619917,121.916614 77.076075,121.785329 C77.440325,121.695232 77.8019917,121.605135 78.1662417,121.502166 C78.6699917,121.363159 79.184075,121.231874 79.6904083,121.079996 L79.7007417,121.072273 L79.711075,121.072273 L80.013325,120.979602 C80.3362417,120.879207 80.648825,120.778813 80.9614083,120.678419 C81.617575,120.467334 82.2737417,120.245952 82.9299083,120.014273 C83.1804917,119.924175 83.4439917,119.823781 83.6971583,119.733684 C84.4024083,119.463392 85.1076583,119.190525 85.794825,118.909936 C85.996325,118.819839 86.197825,118.737464 86.391575,118.657664 C87.1381583,118.335887 87.8847417,118.003814 88.6209917,117.651148 C88.7604917,117.581644 88.902575,117.522437 89.0446583,117.450359 C89.8222417,117.069376 90.5972417,116.675522 91.3644917,116.263648 L91.638325,116.114344 C92.444325,115.681877 93.242575,115.218519 94.0304917,114.744864 L94.180325,114.654767 C94.9992417,114.163092 95.8052417,113.640528 96.6034917,113.107666 C96.621575,113.097369 96.6422417,113.076776 96.6629083,113.066479 C97.4714917,112.52332 98.2671583,111.959568 99.055075,111.3675 L99.0757417,111.357203 C99.8714083,110.765135 100.648992,110.149899 101.405908,109.52694 C101.416242,109.52694 101.416242,109.52694 101.416242,109.516643 C102.415992,108.703192 103.395075,107.858851 104.353492,106.973323 L105.038075,106.319474 L105.038075,106.278286 C116.714742,95.0264126 123.999742,79.2799679 123.999742,61.8654347 L123.999742,61.8654347 Z" id="Fill-13" stroke="#FFFFFF" fill="#4D7EDD"></path>
                <path d="M100.930575,60.9078285 L99.186825,67.8376028 L100.829825,104.579307 C96.7326583,108.270725 92.1214083,111.398391 87.096825,113.810426 L86.9754083,113.872207 C86.2081583,114.242893 85.422825,114.59556 84.6349083,114.927633 C84.492825,114.98684 84.3507417,115.048621 84.2112417,115.097531 C83.524075,115.388417 82.8291583,115.661283 82.121325,115.923852 L81.454825,116.163254 L81.3644083,116.194144 C82.0102417,110.855232 84.5341583,105.856116 88.631325,101.915 C92.0309917,98.6483266 93.8264083,94.0430643 93.544825,89.2756267 C93.1004917,81.6122024 87.1381583,75.1766765 79.6697417,74.3220387 C76.6937417,73.9822429 73.7254917,74.4945108 71.0724083,75.8022096 C69.6386583,76.5152659 67.923325,76.5152659 66.4792417,75.8125065 C63.8261583,74.4945108 60.8501583,73.9719461 57.8819083,74.3220387 C50.416075,75.1766765 44.4511583,81.6122024 44.006825,89.2756267 C43.7252417,94.0430643 45.5206583,98.6483266 48.912575,101.904703 C53.795075,106.59234 56.4791583,112.654605 56.4791583,118.958846 L56.4791583,119.260029 C56.430075,119.249732 56.3784083,119.249732 56.3189917,119.24201 C55.965075,119.211119 55.6111583,119.159635 55.2494917,119.121022 C54.6734083,119.048944 54.089575,118.989737 53.5134917,118.89964 C53.159575,118.848155 52.8056583,118.788949 52.454325,118.727167 C51.8782417,118.626773 51.291825,118.526379 50.7286583,118.415688 C50.3954083,118.356481 50.0621583,118.276681 49.7392417,118.2149 C49.1347417,118.083615 48.5379917,117.944608 47.951575,117.803026 C47.6596583,117.723225 47.3677417,117.651148 47.075825,117.571347 C46.440325,117.401449 45.812575,117.228977 45.1874083,117.038485 C44.944575,116.968982 44.704325,116.889181 44.4614917,116.806807 C43.7846583,116.595721 43.1181583,116.374339 42.4542417,116.134938 C42.2604917,116.06286 42.0796583,116.003653 41.8884917,115.931575 C41.162575,115.661283 40.4444083,115.380694 39.728825,115.076937 C39.6074083,115.028027 39.4859917,114.976543 39.364575,114.927633 C38.589575,114.59556 37.8119917,114.25319 37.055075,113.890226 C36.993075,113.86191 36.9439917,113.831019 36.8819917,113.800129 C31.7876583,111.346906 27.104075,108.160034 22.9681583,104.388816 C26.6597417,87.3243752 34.823075,71.1969473 34.9057417,71.0347721 L35.6419917,69.6163821 L6.87140833,44.345359 C6.892075,44.296449 6.90240833,44.2578358 6.923075,44.2089258 C7.34674167,42.8703365 7.84015833,41.5497665 8.364575,40.2549387 C8.41624167,40.1262282 8.465325,39.9846466 8.527325,39.8507877 C9.062075,38.5533857 9.64590833,37.2997452 10.2736583,36.0538274 C10.364075,35.8787811 10.4544917,35.7088832 10.534575,35.5364111 C12.673575,31.4253972 15.2879083,27.6258627 18.2949083,24.1738466 C20.8369083,28.1201111 22.1802417,32.8360645 22.089825,37.7219157 C22.0097417,42.4249981 24.0066583,46.9427373 27.5794083,50.1115902 C30.6251583,52.8222337 34.5104917,54.1942879 38.3854917,54.1942879 C41.8187417,54.1942879 45.2287417,53.1079711 48.0032417,50.9147438 C50.354075,49.0613124 52.090075,46.5977931 53.0381583,43.8022006 C53.5444917,42.2885649 54.763825,41.078686 56.2776583,40.5689924 C59.0831583,39.6294056 61.5554083,37.8943878 63.412825,35.5570048 C68.086075,29.6878052 67.7424917,20.9406384 62.614575,15.2078719 C59.4964917,11.7198168 55.0867417,9.73767486 50.4754917,9.73767486 L50.1732417,9.73767486 C47.2256583,9.78915907 44.169575,9.22283279 41.263325,8.12879338 C46.2672417,6.18783877 51.5656583,4.90073359 57.0449083,4.42965309 C57.267075,4.40905941 57.4892417,4.38589151 57.7114083,4.37816888 C59.134825,4.26747784 60.5556583,4.208271 61.9997417,4.208271 C62.7876583,4.208271 63.5626583,4.22371626 64.3402417,4.26747784 L92.645825,31.7857866 C100.367408,39.3076293 103.544908,50.4591086 100.930575,60.9078285 L100.930575,60.9078285 Z" id="Path" fill="#90AEEA"></path>
                <path d="M69.768343,69.009862 C62.3883928,69.009862 56.378925,63.0243978 56.378925,55.6705097 C56.378925,48.3027148 62.3883928,42.3144693 69.768343,42.3144693 C77.1594581,42.3144693 83.1689259,48.3027148 83.1689259,55.6705097 C83.1689259,63.0243978 77.1594581,69.009862 69.768343,69.009862" id="Fill-16" stroke="#4D7EDD" stroke-width="3" fill="#FFFFFF"></path>
            </g>
        </g>
    </g>
</svg>