<?xml version="1.0" encoding="utf-8"?>
<!-- Generator: Adobe Illustrator 15.0.0, SVG Export Plug-In . SVG Version: 6.00 Build 0)  -->
<!DOCTYPE svg PUBLIC "-//W3C//DTD SVG 1.1//EN" "http://www.w3.org/Graphics/SVG/1.1/DTD/svg11.dtd">
<svg version="1.1" id="Layer_1" xmlns="http://www.w3.org/2000/svg" xmlns:xlink="http://www.w3.org/1999/xlink" x="0px" y="0px"
	 width="124px" height="124px" viewBox="0 0 124 124" enable-background="new 0 0 124 124" xml:space="preserve">
<g>
	<path fill="#4D7EDD" d="M68.605,0.33C66.486,0.11,64.339,0,62.16,0h-0.332C49.881,0,38.705,3.413,29.247,9.338
		C11.696,20.271,0,39.79,0,62c0,17.681,7.641,34.157,20.11,45.664c6.777,6.255,14.99,11.044,24.178,13.755
		c1.466,0.472,2.972,0.874,4.457,1.165c4.198,0.943,8.596,1.416,13.083,1.416h0.332c4.478,0,8.886-0.473,13.073-1.406
		c1.364-0.281,2.811-0.651,4.428-1.134c3.644-1.085,7.138-2.49,10.452-4.188c0.029-0.01,0.049-0.021,0.069-0.04
		c5.673-2.901,10.814-6.666,15.271-11.085c0.513-0.502,1.024-1.023,1.507-1.546C117.604,93.315,124,78.155,124,62
		C124,29.991,99.682,3.574,68.605,0.33z M58.405,55.915c0-6.978,5.693-12.66,12.69-12.66c6.998,0,12.701,5.683,12.701,12.66
		c0,6.969-5.703,12.641-12.701,12.641C64.099,68.556,58.405,62.884,58.405,55.915z M34.357,8.173
		c5.573,2.962,12.731,6.517,16.979,6.517h0.201c3.213-0.131,6.415,1.285,8.706,3.855l0.17,0.18
		c3.424,4.007,3.634,9.972,0.461,13.967c-1.274,1.597-2.961,2.782-4.889,3.434c-2.963,0.994-5.332,3.354-6.346,6.315
		c-0.644,1.908-1.828,3.595-3.434,4.87c-1.838,1.445-4.197,2.249-6.638,2.249c-2.801,0-5.501-1.024-7.58-2.871
		c-2.52-2.239-3.926-5.413-3.855-8.705c0.101-5.684-3.774-14.82-7.35-20.242C24.83,13.967,29.388,10.733,34.357,8.173z
		 M20.12,105.596C8.544,94.421,1.506,78.768,1.506,62c0-4.92,0.593-9.709,1.716-14.288c3.273,2.872,27.531,23.385,27.531,23.385
		c-2.288,4.818-8.985,15.995-10.623,29.237C19.969,101.64,20.12,105.596,20.12,105.596z M74.921,121.118
		c-3.855,0.864-7.891,1.315-11.987,1.366c-0.01-0.201-0.03-0.383-0.041-0.554c-0.081-1.023-0.13-1.676-0.23-2.067v-0.402
		c0-7.67-3.233-15.011-9.097-20.643c-2.38-2.279-3.635-5.513-3.443-8.876c0.311-5.361,4.438-9.85,9.599-10.442
		c2.048-0.23,4.075,0.111,5.903,1.014c2.741,1.356,6.185,1.366,8.956,0c1.797-0.893,3.865-1.244,5.894-1.014
		c5.171,0.593,9.298,5.081,9.599,10.442c0.201,3.354-1.054,6.597-3.443,8.886c-4.879,4.688-8.063,14.258-8.796,21.587
		C76.799,120.696,75.845,120.927,74.921,121.118z M105.564,68.616l1.566-6.256c3.063-12.158-0.632-25.16-9.638-33.927L72.752,4.388
		l-2.368-2.31c29.388,4.025,52.11,29.368,52.11,59.922c0,15.201-5.805,29.509-15.533,40.393v-2.489L105.564,68.616z"/>
	<path fill="#90AEEA" d="M96.438,29.519L67.934,1.787c-1.897-0.19-3.825-0.281-5.773-0.281h-0.332
		c-9.308,0-18.123,2.129-26.004,5.914c3.624,1.938,10.993,5.763,15.512,5.763h0.151c0.15-0.01,0.312-0.01,0.482-0.01
		c3.393,0,6.716,1.496,9.165,4.116l0.241,0.251c4.058,4.549,4.348,11.467,0.673,16.086c-1.455,1.826-3.383,3.183-5.582,3.925
		c-2.53,0.845-4.539,2.853-5.401,5.372c-0.733,2.188-2.089,4.106-3.926,5.563c-2.108,1.667-4.789,2.58-7.571,2.58
		c-3.172,0-6.225-1.154-8.584-3.253c-2.842-2.53-4.438-6.125-4.357-9.859c0.1-5.473-3.685-13.746-7.189-18.937
		c-7.42,7.35-12.922,16.627-15.764,26.988c1.987,1.889,28.938,24.71,28.938,24.71l-0.251,0.522
		c-1.667,3.443-9.027,15.422-10.744,29.368c-0.181,1.455-0.04,5.563-0.01,6.386c0.01,0.01,0.01,0.01,0.01,0.01
		c6.526,5.884,14.369,10.402,23.113,12.982c1.437,0.462,2.893,0.844,4.328,1.135c3.976,0.884,8.122,1.346,12.36,1.376
		c-0.011-0.142-0.021-0.291-0.032-0.442c-0.029-0.392-0.069-0.914-0.109-1.305h-0.12v-1.286c0-7.259-3.072-14.206-8.636-19.558
		c-2.69-2.581-4.116-6.235-3.895-10.041c0.341-6.085,5.04-11.186,10.923-11.858c2.351-0.271,4.659,0.131,6.748,1.165
		c2.329,1.155,5.271,1.146,7.62,0c2.049-1.023,4.418-1.436,6.728-1.165c5.884,0.673,10.583,5.773,10.934,11.858
		c0.222,3.785-1.204,7.46-3.905,10.051c-4.498,4.326-7.471,13.093-8.283,20.05c10.121-3.031,19.026-8.624,26.064-15.954v-4.076
		l-1.405-31.467l1.627-6.476C108.597,50.353,105.063,37.913,96.438,29.519z M71.096,68.556c-6.997,0-12.69-5.672-12.69-12.641
		c0-6.978,5.693-12.66,12.69-12.66c6.998,0,12.701,5.683,12.701,12.66C83.797,62.884,78.094,68.556,71.096,68.556z"/>
	<path fill="#4D7EDD" d="M71.096,41.748c-7.831,0-14.196,6.356-14.196,14.167c0,7.802,6.365,14.146,14.196,14.146
		c7.832,0,14.207-6.345,14.207-14.146C85.303,48.104,78.928,41.748,71.096,41.748z M71.096,68.556
		c-6.997,0-12.69-5.672-12.69-12.641c0-6.978,5.693-12.66,12.69-12.66c6.998,0,12.701,5.683,12.701,12.66
		C83.797,62.884,78.094,68.556,71.096,68.556z"/>
</g>
</svg>
