<?xml version="1.0" encoding="UTF-8" standalone="no"?>
<svg width="20px" height="24px" viewBox="0 0 20 24" version="1.1" xmlns="http://www.w3.org/2000/svg" xmlns:xlink="http://www.w3.org/1999/xlink">
    <!-- Generator: Sketch 41 (35326) - http://www.bohemiancoding.com/sketch -->
    <title>Page 1 Copy 3</title>
    <desc>Created with Sketch.</desc>
    <defs></defs>
    <g id="Page-1" stroke="none" stroke-width="1" fill="none" fill-rule="evenodd">
        <g id="Reviews" transform="translate(-284.000000, -397.000000)" fill="#4D7EDD">
            <g id="Page-1-Copy-3" transform="translate(275.000000, 393.000000)">
                <path d="M28.2001638,27.2260806 L24.999865,27.2260806 L24.999865,25.6777525 L24.447267,25.6777525 C24.7833258,25.3932928 24.999865,24.9813228 24.999865,24.5161363 C24.999865,23.7966258 24.4883968,23.1958288 23.7999892,23.0229407 L23.7999892,20.0096366 L24.7548859,20.2150991 C26.7833888,20.6511951 28.2001638,22.3604789 28.2001638,24.3716419 L28.2001638,27.2260806 Z M23.3999406,23.74219 C23.8411191,23.74219 24.2001278,24.0891855 24.2001278,24.5161363 C24.2001278,24.9431742 23.8411191,25.2905181 23.3999406,25.2905181 C22.9587622,25.2905181 22.6001134,24.9431742 22.6001134,24.5161363 C22.6001134,24.0891855 22.9587622,23.74219 23.3999406,23.74219 L23.3999406,23.74219 Z M24.2001278,27.2260806 L13.8002142,27.2260806 L13.8002142,25.6777525 L13.000027,25.6777525 L13.000027,27.2260806 L9.80017823,27.2260806 L9.80017823,24.3716419 C9.80017823,22.3604789 11.2169533,20.6511951 13.2450962,20.2150991 L14.1999028,20.0096366 L14.1999028,22.9678082 L13.000027,22.9678082 C12.1176701,22.9678082 11.4001026,23.6625831 11.4001026,24.5161363 L11.4001026,26.4516988 L12.5999784,26.4516988 L12.5999784,25.6777525 L12.2002898,25.6777525 L12.2002898,24.5161363 C12.2002898,24.0891855 12.5588486,23.74219 13.000027,23.74219 L16.1999658,23.74219 C16.6411443,23.74219 17.000153,24.0891855 17.000153,24.5161363 L17.000153,25.6777525 L16.6000144,25.6777525 L16.6000144,26.4516988 L17.7998902,26.4516988 L17.7998902,24.5161363 C17.7998902,23.6622347 17.0824127,22.9678082 16.1999658,22.9678082 L15.00009,22.9678082 L15.00009,19.8374453 L15.7091975,19.6850251 L15.3671087,22.0012027 L19.000126,24.1987538 L22.6329633,22.0012027 L22.2907845,19.6850251 L23.000252,19.8374453 L23.000252,23.0229407 C22.3114844,23.1958288 21.8000162,23.7966258 21.8000162,24.5161363 C21.8000162,25.370125 22.5174937,26.0645515 23.3999406,26.0645515 C23.6927996,26.0645515 23.9635187,25.9825058 24.2001278,25.8495083 L24.2001278,27.2260806 Z M21.4863673,19.7101962 L21.7672563,21.6117037 L19.4311345,23.0243343 L21.4863673,19.7101962 Z M18.5687575,23.0245956 L16.2329957,21.6124005 L16.5135247,19.7101962 L18.5687575,23.0245956 Z M17.000153,18.9896406 L17.000153,18.2819753 C17.6097209,18.5537187 18.2857985,18.7099712 19.000126,18.7099712 C19.7145435,18.7099712 20.3905312,18.5537187 21.000189,18.2819753 L21.000189,18.9896406 L19.000126,22.2156362 L17.000153,18.9896406 Z M15.00009,14.0644644 L15.00009,10.1723488 C15.00009,9.33029248 15.7081176,8.64509829 16.5782345,8.64509829 C17.3281119,8.64509829 17.9788996,9.16158508 18.1257791,9.87290845 L18.2723886,10.5805737 L19.7282235,10.5805737 L19.874473,9.87290845 C20.0214425,9.16158508 20.6721402,8.64509829 21.4220176,8.64509829 C22.2920445,8.64509829 23.000252,9.33029248 23.000252,10.1723488 L23.000252,14.0644644 C23.000252,16.1991313 21.2058383,17.9355894 19.000126,17.9355894 C16.7944138,17.9355894 15.00009,16.1991313 15.00009,14.0644644 L15.00009,14.0644644 Z M14.1999028,10.1723488 L14.1999028,12.944829 C13.6958146,12.4957555 13.4001656,11.8598584 13.4001656,11.1722255 L13.4001656,8.16841495 C13.4001656,7.65506367 13.6947346,7.19266428 14.1696629,6.96368557 C14.6495413,6.73131007 15.0243899,6.33771752 15.2250892,5.85458899 L15.3213889,5.62081993 C15.5337882,5.10642347 16.0410264,4.77406031 16.6134244,4.77406031 L21.6586267,4.77406031 C23.280421,4.77406031 24.6001764,6.05125461 24.6001764,7.62100864 L24.6001764,11.1725738 C24.6001764,11.8602068 24.3045275,12.4961039 23.7999892,12.9451774 L23.7999892,10.1726972 C23.7999892,8.90334168 22.733403,7.87106489 21.4220176,7.87106489 C20.2921615,7.87106489 19.3116149,8.64919186 19.0901257,9.72083662 L19.0725758,9.80662743 L18.9280363,9.80662743 L18.9104863,9.72083662 C18.6889971,8.64919186 17.7085406,7.87106489 16.5782345,7.87106489 C15.2669391,7.87106489 14.1999028,8.90334168 14.1999028,10.1723488 L14.1999028,10.1723488 Z M24.9281353,19.4590948 L21.8000162,18.7865297 L21.8000162,17.8297663 C23.008982,16.9857067 23.7999892,15.6145344 23.7999892,14.0644644 L23.7999892,13.8977602 C24.7899858,13.3228311 25.4000036,12.3042286 25.4000036,11.1725738 L25.4000036,7.62100864 C25.4000036,5.62421672 23.7215995,4.00002691 21.6582667,4.00002691 L16.6134244,4.00002691 C15.7112675,4.00002691 14.9125203,4.52365567 14.5779015,5.33296346 L14.4815118,5.56673252 C14.3549723,5.87366329 14.1169231,6.12371954 13.8114642,6.27100102 C13.0643768,6.63297725 12.5999784,7.36006523 12.5999784,8.16876334 L12.5999784,11.1725738 C12.5999784,12.3038802 13.2099063,13.3231795 14.1999028,13.8977602 L14.1999028,14.0644644 C14.1999028,15.614186 14.9912701,16.9857067 16.1999658,17.8297663 L16.1999658,18.7865297 L13.0721168,19.4587464 C10.6744352,19.9748848 8.99999103,21.9940607 8.99999103,24.3716419 L8.99999103,28.0000269 L28.999991,28.0000269 L28.999991,24.3716419 C28.999991,21.9944962 27.3258169,19.9748848 24.9281353,19.4590948 L24.9281353,19.4590948 Z" id="Fill-1"></path>
            </g>
        </g>
    </g>
</svg>