<?xml version="1.0" encoding="UTF-8" standalone="no"?>
<svg width="25px" height="24px" viewBox="0 0 25 24" version="1.1" xmlns="http://www.w3.org/2000/svg" xmlns:xlink="http://www.w3.org/1999/xlink">
    <!-- Generator: Sketch 41 (35326) - http://www.bohemiancoding.com/sketch -->
    <title>Page 1</title>
    <desc>Created with Sketch.</desc>
    <defs></defs>
    <g id="Page-1" stroke="none" stroke-width="1" fill="none" fill-rule="evenodd">
        <g id="Reviews" transform="translate(-48.000000, -397.000000)" fill="#FFFFFF">
            <g id="Page-1" transform="translate(40.000000, 393.000000)">
                <g transform="translate(8.000000, 4.000000)">
                    <path d="M3.67652943,15.8618674 L4.90205919,15.8618674 L4.90205919,14.6854163 L3.67652943,14.6854163 L3.67652943,15.8618674 Z M5.31038959,13.9011347 L3.26795967,13.9011347 C3.04243252,13.9011347 2.85962927,14.0766258 2.85962927,14.293017 L2.85962927,16.2538646 C2.85962927,16.4706004 3.04243252,16.6460916 3.26795967,16.6460916 L5.31038959,16.6460916 C5.53621593,16.6460916 5.71895935,16.4703707 5.71895935,16.2538646 L5.71895935,14.293017 C5.71895935,14.0766258 5.53597659,13.9011347 5.31038959,13.9011347 L5.31038959,13.9011347 Z" id="Fill-1"></path>
                    <path d="M3.67652943,20.1755024 L4.90205919,20.1755024 L4.90205919,18.9990512 L3.67652943,18.9990512 L3.67652943,20.1755024 Z M5.31038959,18.2145973 L3.26795967,18.2145973 C3.04243252,18.2145973 2.85962927,18.3902608 2.85962927,18.6068243 L2.85962927,20.567557 C2.85962927,20.7840631 3.04243252,20.959784 3.26795967,20.959784 L5.31038959,20.959784 C5.53621593,20.959784 5.71895935,20.7840631 5.71895935,20.567557 L5.71895935,18.6068243 C5.71895935,18.3902608 5.53597659,18.2145973 5.31038959,18.2145973 L5.31038959,18.2145973 Z" id="Fill-3"></path>
                    <path d="M7.35281951,15.8618674 L8.57828943,15.8618674 L8.57828943,14.6854163 L7.35281951,14.6854163 L7.35281951,15.8618674 Z M8.98691902,13.9011347 L6.94448911,13.9011347 C6.71866276,13.9011347 6.53591935,14.0766258 6.53591935,14.293017 L6.53591935,16.2538646 C6.53591935,16.4706004 6.71890211,16.6460916 6.94448911,16.6460916 L8.98691902,16.6460916 C9.21244618,16.6460916 9.39524943,16.4703707 9.39524943,16.2538646 L9.39524943,14.293017 C9.39548878,14.0766258 9.21244618,13.9011347 8.98691902,13.9011347 L8.98691902,13.9011347 Z" id="Fill-4"></path>
                    <path d="M7.35281951,20.1755024 L8.57828943,20.1755024 L8.57828943,18.9990512 L7.35281951,18.9990512 L7.35281951,20.1755024 Z M8.98691902,18.2145973 L6.94448911,18.2145973 C6.71866276,18.2145973 6.53591935,18.3902608 6.53591935,18.6068243 L6.53591935,20.567557 C6.53591935,20.7840631 6.71890211,20.959784 6.94448911,20.959784 L8.98691902,20.959784 C9.21244618,20.959784 9.39524943,20.7840631 9.39524943,20.567557 L9.39524943,18.6068243 C9.39548878,18.3902608 9.21244618,18.2145973 8.98691902,18.2145973 L8.98691902,18.2145973 Z" id="Fill-5"></path>
                    <path d="M15.114143,9.97942796 C14.2132909,9.97942796 13.4802828,9.27574016 13.4802828,8.41092221 C13.4802828,7.54587448 14.2132909,6.84218668 15.114143,6.84218668 C16.0152942,6.84218668 16.7483023,7.54587448 16.7483023,8.41092221 C16.7483023,9.27574016 16.0152942,9.97942796 15.114143,9.97942796 M15.114143,6.05796252 C13.7626555,6.05796252 12.6631433,7.11349423 12.6631433,8.41092221 C12.6631433,9.70835019 13.7626555,10.7638819 15.114143,10.7638819 C16.4656304,10.7638819 17.5651426,9.70835019 17.5651426,8.41092221 C17.5651426,7.11349423 16.4656304,6.05796252 15.114143,6.05796252" id="Fill-6"></path>
                    <path d="M22.7999577,10.5308049 L20.7999771,10.5308049 L20.7999771,6.23519136 L22.5047038,6.23519136 L23.8585125,10.5308049 L22.7999577,10.5308049 Z M20.7999771,23.0270626 L22.4001139,23.0270626 L22.4001139,11.3117424 L20.7999771,11.3117424 L20.7999771,23.0270626 Z M20.0000552,10.9211593 L20.0000552,23.0270626 L18.0000746,23.0270626 L18.0000746,16.3883506 C18.0000746,16.1726947 17.8208363,15.9977675 17.5999965,15.9977675 L13.6000353,15.9977675 C13.3791955,15.9977675 13.2001916,16.1726947 13.2001916,16.3883506 L13.2001916,23.0270626 L11.1999766,23.0270626 L11.1999766,6.00637875 L15.6000159,1.71076517 L20.0000552,6.00637875 L20.0000552,10.9211593 Z M14.0001721,23.0270626 L17.2002113,23.0270626 L17.2002113,16.7789337 L14.0001721,16.7789337 L14.0001721,23.0270626 Z M10.4000547,10.5308049 L1.74165579,10.5308049 L3.09552305,6.23519136 L10.4000547,6.23519136 L10.4000547,10.5308049 Z M3.2001129,23.0270626 L10.4000547,23.0270626 L10.4000547,11.3117424 L3.2001129,11.3117424 L3.2001129,23.0270626 Z M24.7823016,10.8062953 L23.1823991,5.7297443 C23.1307194,5.56597167 22.975739,5.4540251 22.8001921,5.4540251 L20.5658365,5.4540251 L15.8829066,0.882463509 C15.7268128,0.729845497 15.473219,0.729845497 15.3171253,0.882463509 L10.6344297,5.4540251 L2.80003475,5.4540251 C2.62448787,5.4540251 2.46950739,5.56597167 2.4177691,5.7297443 L0.817690892,10.8062953 C0.780366671,10.9249919 0.802808078,11.0534702 0.878335426,11.1533469 C0.953628399,11.2529947 1.07310106,11.3117424 1.20013232,11.3117424 L2.3999566,11.3117424 L2.3999566,23.4174169 C2.3999566,23.6332444 2.5791363,23.808 2.80003475,23.808 L22.7999577,23.808 C23.0210319,23.808 23.2000359,23.6330156 23.2000359,23.4174169 L23.2000359,11.3117424 L24.4000359,11.3117424 C24.52695,11.3117424 24.6464227,11.2529947 24.7218914,11.1533469 C24.7971844,11.0534702 24.8196258,10.9247631 24.7823016,10.8062953 L24.7823016,10.8062953 Z" id="Fill-7"></path>
                </g>
            </g>
        </g>
    </g>
</svg>