<?xml version="1.0" encoding="UTF-8" standalone="no"?>
<svg width="124px" height="126px" viewBox="0 0 124 126" version="1.1" xmlns="http://www.w3.org/2000/svg" xmlns:xlink="http://www.w3.org/1999/xlink">
    <!-- Generator: Sketch 41 (35326) - http://www.bohemiancoding.com/sketch -->
    <title>Page 1</title>
    <desc>Created with Sketch.</desc>
    <defs></defs>
    <g id="Page-1" stroke="none" stroke-width="1" fill="none" fill-rule="evenodd">
        <g id="Reviews" transform="translate(-31.000000, -202.000000)">
            <g id="Group-7" transform="translate(32.000000, 194.000000)">
                <g id="Page-1" transform="translate(0.000000, 9.000000)">
                    <g id="Group-7" transform="translate(13.502173, 31.003468)">
                        <path d="M86.6721068,48.7647134 C86.6696601,48.8054447 86.6000643,60.8930829 86.6000643,60.8930829 L74.1981466,54.1403991 C73.7482206,53.784773 73.1653558,53.6114544 72.5599267,53.7035913 C70.8216628,53.9701705 69.0428919,54.105286 67.2725487,54.105286 C54.9864428,54.105286 44.5796955,47.7694658 41.2121829,39.0976367 C40.4498914,37.0916915 40.0654833,35.1034435 40.0654833,33.0472163 C40.0654833,21.2073366 52.4611482,11.988023 67.2725487,11.988023 C82.0834054,11.988023 94.479614,21.43487 94.479614,33.0472163 C94.479614,38.2504261 87.4558751,47.1385523 87.4558751,47.1385523 C86.9844723,47.5422133 86.7009238,48.1326764 86.6721068,48.7647134 Z" id="Fill-5" fill="#4D7EDD"></path>
                        <path d="M26.7822196,41.4014388 L26.7811736,41.4014388 C25.0772227,41.4014388 23.3664727,41.2717405 21.6941636,41.015046 C21.0955841,40.9242573 20.5194939,41.1028626 20.0812155,41.4646667 L8.18990795,48.3221924 L8.12270179,36.3942751 C8.12348629,36.3510423 8.12270179,36.3064585 8.12060977,36.2632258 C8.09289049,35.6552651 7.82014328,35.0886458 7.36669778,34.7000914 C3.01006451,30.9647813 0.610516682,26.150814 0.610516682,21.1444609 C0.610516682,9.9752784 12.3506758,0.88856375 26.7811736,0.88856375 C37.4721843,0.88856375 47.1375817,6.04920377 51.0805179,13.6422267 C49.7573148,14.3987999 48.5002718,15.2453513 47.3224641,16.1783682 C41.4569608,20.8312936 38.2260962,27.0697802 38.2260962,33.7459986 C38.2260962,35.5625849 38.4682476,37.3462063 38.9339838,39.0752463 C35.1994652,40.6002818 31.0376514,41.4014388 26.7822196,41.4014388" id="Path" fill="#7A9EE6"></path>
                        <path d="M55.8960274,26.9776047 C54.8249743,26.9776047 53.9583465,27.5553853 53.9583465,28.2680136 C53.9583465,28.980642 54.8249743,29.5584226 55.8960274,29.5584226 L78.6628088,29.5584226 C79.7319243,29.5584226 80.6004897,28.980642 80.6004897,28.2680136 C80.6004897,27.5553853 79.7319243,26.9776047 78.6628088,26.9776047 L55.8960274,26.9776047 Z" id="Fill-1" fill="#FFFFFF"></path>
                        <path d="M78.6628088,36.6368062 L55.8960274,36.6368062 C54.8249743,36.6368062 53.9583465,37.2145868 53.9583465,37.9272152 C53.9583465,38.6398435 54.8249743,39.2176241 55.8960274,39.2176241 L78.6628088,39.2176241 C79.7319243,39.2176241 80.6004897,38.6398435 80.6004897,37.9272152 C80.6004897,37.2145868 79.7319243,36.6368062 78.6628088,36.6368062" id="Fill-3" fill="#FFFFFF"></path>
                    </g>
                    <ellipse id="Oval" stroke="#4D7EDD" stroke-width="2" cx="61" cy="62.1315105" rx="60.9785085" ry="61.81889"></ellipse>
                </g>
            </g>
        </g>
    </g>
</svg>