<?xml version="1.0" encoding="UTF-8" standalone="no"?>
<svg width="23px" height="24px" viewBox="0 0 23 24" version="1.1" xmlns="http://www.w3.org/2000/svg" xmlns:xlink="http://www.w3.org/1999/xlink">
    <!-- Generator: Sketch 41 (35326) - http://www.bohemiancoding.com/sketch -->
    <title>Fill 1</title>
    <desc>Created with Sketch.</desc>
    <defs></defs>
    <g id="Page-1" stroke="none" stroke-width="1" fill="none" fill-rule="evenodd">
        <g id="Reviews" transform="translate(-533.000000, -397.000000)" fill="#4D7EDD">
            <path d="M552.194543,405.115971 C551.042188,405.115971 549.97277,405.356423 549.180388,405.776614 C549.114239,403.783412 548.760219,401.925889 548.16615,400.48778 C547.864902,399.758325 547.512955,399.168827 547.124422,398.731725 C551.40303,399.350316 554.728131,402.211113 555.151912,405.745448 C554.365751,405.344306 553.319341,405.115971 552.194543,405.115971 L552.194543,405.115971 Z M535.621073,405.745707 C536.044787,402.211113 539.369955,399.350316 543.648563,398.731725 C543.259964,399.168827 542.908084,399.758325 542.606836,400.48778 C542.012767,401.926148 541.658746,403.783412 541.592598,405.776614 C540.800483,405.356423 539.730798,405.115971 538.578309,405.115971 C537.453578,405.115971 536.407168,405.344306 535.621073,405.745707 L535.621073,405.745707 Z M547.420989,400.776568 C547.977736,402.124289 548.311089,403.874772 548.37697,405.764173 C547.58713,405.351628 546.527477,405.115971 545.386426,405.115971 C544.245508,405.115971 543.185856,405.351628 542.395949,405.764173 C542.46183,403.874772 542.79525,402.124289 543.35193,400.776568 C543.921586,399.397616 544.663069,398.606931 545.386426,398.606931 C546.109917,398.606931 546.851399,399.397616 547.420989,400.776568 L547.420989,400.776568 Z M554.830866,417.29354 C554.830866,417.536518 554.626734,417.734141 554.375917,417.734141 L538.537577,417.734141 C538.391099,417.734141 538.252849,417.66507 538.167638,417.549672 L533.887023,411.744233 C533.816259,411.648337 533.788302,411.531643 533.808367,411.415466 C533.828232,411.299549 533.893846,411.197758 533.992835,411.129464 C534.070688,411.075296 534.161919,411.047176 534.255892,411.047176 C534.280974,411.047176 534.30639,411.049249 534.331739,411.053266 C534.451663,411.072769 534.556471,411.136009 534.627235,411.23171 L538.651815,416.690111 C538.727061,416.792356 538.848724,416.852874 538.978346,416.852874 L543.417811,416.852874 C543.418079,416.852874 543.418413,416.853133 543.418681,416.853133 C543.418815,416.853133 543.419082,416.852874 543.419417,416.852874 L554.375917,416.852874 C554.626734,416.852874 554.830866,417.050561 554.830866,417.29354 L554.830866,417.29354 Z M541.377095,414.364838 L542.638405,416.075342 L539.184752,416.075342 L537.923308,414.364838 L541.377095,414.364838 Z M552.865529,400.349314 C550.959585,398.801573 548.459506,397.916742 545.787734,397.836008 L545.787734,397.388733 C545.787734,397.174135 545.608282,396.999968 545.386426,396.999968 C545.164904,396.999968 544.985118,397.174135 544.985118,397.388733 L544.985118,397.836008 C542.31348,397.916742 539.8134,398.801573 537.907457,400.349314 C535.885936,401.990942 534.772709,404.179499 534.772709,406.511834 C534.772709,406.665721 534.866816,406.805223 535.012089,406.867426 C535.157563,406.929693 535.327116,406.902609 535.444699,406.799132 C536.076758,406.240541 537.277538,405.893503 538.578309,405.893503 C539.879014,405.893503 541.079726,406.240541 541.711786,406.799132 C541.865085,406.934293 542.099449,406.934293 542.252815,406.799132 C542.819328,406.298467 543.842328,405.967951 544.985118,405.904647 L544.985118,416.075342 L543.624552,416.075342 L542.363376,414.364838 L543.246119,414.364838 C543.467707,414.364838 543.647426,414.190736 543.647426,413.976072 C543.647426,413.761473 543.467707,413.587306 543.246119,413.587306 L537.350174,413.587306 L535.280096,410.779899 C535.085194,410.51515 534.795182,410.340011 534.463635,410.286361 C534.132423,410.232711 533.798936,410.307614 533.526248,410.496943 C532.961942,410.887263 532.830715,411.649568 533.233895,412.196108 L537.51451,418.001677 C537.566412,418.072043 537.625806,418.135866 537.69055,418.193014 L537.285631,420.54712 C537.248978,420.758998 537.39686,420.959212 537.615305,420.994655 C537.637778,420.998153 537.659984,420.999968 537.681989,420.999968 C537.874483,420.999968 538.04457,420.865066 538.077277,420.674959 L538.450025,418.508433 C538.479052,418.510441 538.508281,418.511672 538.537577,418.511672 L544.985118,418.511672 L544.985118,420.611202 C544.985118,420.825801 545.164904,420.999968 545.386426,420.999968 C545.608282,420.999968 545.787734,420.825801 545.787734,420.611202 L545.787734,418.511672 L553.607814,418.511672 L553.979826,420.674959 C554.012801,420.865066 554.182621,420.999968 554.375382,420.999968 C554.397387,420.999968 554.419593,420.998153 554.441798,420.994655 C554.660444,420.959212 554.808059,420.758739 554.77174,420.54712 L554.421332,418.510441 C555.093656,418.487375 555.633481,417.950554 555.633481,417.29354 C555.633481,416.621753 555.06931,416.075342 554.375917,416.075342 L545.787734,416.075342 L545.787734,405.904647 C546.930256,405.967951 547.953725,406.298467 548.520103,406.799132 C548.673269,406.934293 548.907833,406.934293 549.060932,406.799132 C549.693259,406.240541 550.894038,405.893503 552.194543,405.893503 C553.495448,405.893503 554.696227,406.240541 555.328287,406.799132 C555.403733,406.865676 555.500715,406.9006 555.598902,406.9006 C555.653547,406.9006 555.708727,406.889715 555.760897,406.867426 C555.90617,406.805223 556.000009,406.665721 556.000009,406.511834 C556.00021,404.179499 554.886982,401.990942 552.865529,400.349314 L552.865529,400.349314 Z" id="Fill-1"></path>
        </g>
    </g>
</svg>