<?xml version="1.0" encoding="utf-8"?>
<!-- Generator: Adobe Illustrator 15.0.0, SVG Export Plug-In . SVG Version: 6.00 Build 0)  -->
<!DOCTYPE svg PUBLIC "-//W3C//DTD SVG 1.1//EN" "http://www.w3.org/Graphics/SVG/1.1/DTD/svg11.dtd">
<svg version="1.1" id="Layer_1" xmlns="http://www.w3.org/2000/svg" xmlns:xlink="http://www.w3.org/1999/xlink" x="0px" y="0px"
	 width="124px" height="124px" viewBox="0 0 124 124" enable-background="new 0 0 124 124" xml:space="preserve">
<g>
	<g>
		<path fill="#4D7EDD" d="M103.861,96.021l-13.665-7.453c-0.304-0.239-0.677-0.343-1.065-0.285
			c-1.779,0.273-3.604,0.412-5.421,0.412c-12.264,0-23.313-6.393-26.868-15.548c-0.809-2.132-1.202-4.206-1.202-6.348
			c0-12.075,12.593-21.898,28.07-21.898s28.07,9.823,28.07,21.898c0,5.423-6.92,14.242-7.215,14.614l-0.101,0.105
			c-0.314,0.27-0.505,0.669-0.525,1.096c-0.002,0.215-0.07,12.147-0.07,12.147L103.861,96.021z M91.076,87.344l11.293,6.149
			c0.064-10.901,0.066-10.933,0.067-10.958c0.036-0.803,0.396-1.569,0.987-2.106c0.566-0.729,6.851-8.925,6.851-13.63
			c0-11.244-11.917-20.392-26.564-20.392s-26.563,9.147-26.563,20.392c0,1.956,0.359,3.855,1.102,5.808
			c3.334,8.583,13.805,14.582,25.462,14.582c1.741,0,3.489-0.134,5.194-0.395C89.689,86.673,90.46,86.881,91.076,87.344z"/>
	</g>
	<g>
		<path fill="#4D7EDD" d="M67.112,46.972c-4.228-8.153-13.444-13.214-24.057-13.214c-14.9,0-27.03,9.458-27.03,21.085
			c0,5.252,2.501,10.292,7.049,14.188c0.291,0.251,0.473,0.633,0.492,1.034l0.08,13.374l13.053-7.54l0.111-0.07
			c0.28-0.231,0.662-0.341,1.023-0.281c1.717,0.261,3.475,0.392,5.222,0.392c4.669,0,7.962-0.953,11.485-2.39l0.613-0.251
			l-0.171-0.643c-0.462-1.687-0.692-3.424-0.692-5.151c0-6.476,3.143-12.53,8.855-17.049c1.135-0.902,2.379-1.746,3.675-2.489
			l0.632-0.351L67.112,46.972z M62.203,49.271c-6.064,4.819-9.418,11.296-9.418,18.233c0,1.637,0.2,3.283,0.572,4.891
			c-3.123,1.234-6.146,2.037-10.302,2.037c-1.677,0-3.354-0.13-5.001-0.381c-0.772-0.111-1.546,0.101-2.158,0.572l-10.764,6.216
			l-0.061-10.674v-0.171c-0.039-0.813-0.411-1.587-1.023-2.108c-4.207-3.604-6.517-8.233-6.517-13.043
			c0-10.793,11.446-19.578,25.523-19.578c9.769,0,18.272,4.488,22.38,11.768C64.301,47.715,63.217,48.468,62.203,49.271z"/>
	</g>
	<g>
		<path fill="#90AEEA" d="M65.436,47.032c-1.135,0.683-2.219,1.436-3.232,2.238c-6.064,4.819-9.418,11.296-9.418,18.233
			c0,1.637,0.2,3.283,0.572,4.891c-3.123,1.234-6.146,2.037-10.302,2.037c-1.677,0-3.354-0.13-5.001-0.381
			c-0.772-0.111-1.546,0.101-2.158,0.572l-10.764,6.216l-0.061-10.674v-0.171c-0.039-0.813-0.411-1.587-1.023-2.108
			c-4.207-3.604-6.517-8.233-6.517-13.043c0-10.793,11.446-19.578,25.523-19.578C52.824,35.265,61.328,39.753,65.436,47.032z"/>
	</g>
	<g>
		<path fill="#4D7EDD" d="M62.16,124h-0.326c-4.484,0-8.889-0.476-13.088-1.415c-1.479-0.3-2.983-0.693-4.459-1.167
			C18.219,113.724,0,89.288,0,62C0,27.813,27.738,0,61.834,0h0.326C96.26,0,124,27.813,124,62c0,27.277-18.232,51.726-44.337,59.453
			c-1.613,0.486-3.063,0.858-4.428,1.134C71.049,123.524,66.645,124,62.16,124z M61.834,1.506C28.568,1.506,1.506,28.644,1.506,62
			c0,26.625,17.775,50.467,43.225,57.979c1.439,0.463,2.891,0.842,4.329,1.134c4.107,0.918,8.4,1.382,12.774,1.382h0.326
			c4.373,0,8.668-0.464,12.762-1.38c1.333-0.27,2.738-0.63,4.31-1.104c25.474-7.542,43.263-31.396,43.263-58.011
			c0-33.356-27.065-60.494-60.334-60.494H61.834z"/>
	</g>
	<g>
		<path fill="#4D7EDD" d="M94.271,61.234H73.148c-0.415,0-0.752-0.338-0.752-0.753c0-0.416,0.337-0.753,0.752-0.753h21.123
			c0.416,0,0.753,0.337,0.753,0.753C95.024,60.896,94.688,61.234,94.271,61.234z"/>
	</g>
	<g>
		<path fill="#4D7EDD" d="M94.271,67.714H73.148c-0.415,0-0.752-0.338-0.752-0.754c0-0.415,0.337-0.753,0.752-0.753h21.123
			c0.416,0,0.753,0.338,0.753,0.753C95.024,67.376,94.688,67.714,94.271,67.714z"/>
	</g>
	<g>
		<path fill="#4D7EDD" d="M94.271,73.737H73.148c-0.415,0-0.752-0.337-0.752-0.753c0-0.415,0.337-0.753,0.752-0.753h21.123
			c0.416,0,0.753,0.338,0.753,0.753C95.024,73.4,94.688,73.737,94.271,73.737z"/>
	</g>
	<g>
		<path fill="#FFFFFF" d="M48.838,52.976H31.48c-0.415,0-0.752-0.338-0.752-0.753c0-0.416,0.337-0.753,0.752-0.753h17.357
			c0.416,0,0.753,0.337,0.753,0.753C49.591,52.638,49.254,52.976,48.838,52.976z"/>
	</g>
	<g>
		<path fill="#FFFFFF" d="M48.838,59.453H31.48c-0.415,0-0.752-0.337-0.752-0.753c0-0.415,0.337-0.753,0.752-0.753h17.357
			c0.416,0,0.753,0.338,0.753,0.753C49.591,59.116,49.254,59.453,48.838,59.453z"/>
	</g>
</g>
</svg>
