<?xml version="1.0" encoding="utf-8"?>
<!-- Generator: Adobe Illustrator 15.0.0, SVG Export Plug-In . SVG Version: 6.00 Build 0)  -->
<!DOCTYPE svg PUBLIC "-//W3C//DTD SVG 1.1//EN" "http://www.w3.org/Graphics/SVG/1.1/DTD/svg11.dtd">
<svg version="1.1" id="Layer_1" xmlns="http://www.w3.org/2000/svg" xmlns:xlink="http://www.w3.org/1999/xlink" x="0px" y="0px"
	 width="124px" height="124px" viewBox="0 0 124 124" enable-background="new 0 0 124 124" xml:space="preserve">
<g>
	<g>
		<path fill="#4D7EDD" d="M89.643,66.359c-5.331,0-9.85,3.976-10.512,9.257l-0.071,0.573H62.252v-9.77l0.492-0.121
			c1.316-0.332,2.42-1.154,3.123-2.34L84.05,33.246c0.944-1.576,0.954-3.483,0.04-5.09c-0.913-1.605-2.56-2.559-4.407-2.559h-3.614
			l-0.171-0.373c-0.724-1.506-2.199-2.449-3.845-2.449c-2.109,0-7.1,1.667-7.1,4.277c0,2.609,4.99,4.266,7.1,4.266
			c2.098,0,3.905-1.576,4.206-3.665l0.08-0.562h3.344c1.295,0,2.45,0.684,3.093,1.807c0.642,1.136,0.632,2.471-0.03,3.584
			L64.563,63.206c-0.644,1.095-1.798,1.737-3.063,1.737c-1.274,0-2.43-0.652-3.082-1.757L39.722,32.493
			c-0.663-1.123-0.673-2.458-0.03-3.594c0.643-1.123,1.797-1.807,3.103-1.807h3.855l0.08,0.562c0.312,2.089,2.119,3.665,4.207,3.665
			c2.108,0,7.089-1.657,7.089-4.266c0-2.61-4.98-4.277-7.089-4.277c-1.626,0-3.133,0.964-3.836,2.449l-0.18,0.373h-4.127
			c-1.848,0-3.494,0.953-4.418,2.559c-0.913,1.598-0.894,3.514,0.061,5.111l18.686,30.693c0.703,1.186,1.807,2.008,3.122,2.34
			l0.492,0.121v9.77H47.423c-8.173,0-14.83,6.646-14.83,14.81c0,8.173,6.657,14.819,14.83,14.819s14.829-6.646,14.829-14.819V77.705
			H79.06l0.071,0.562c0.662,5.292,5.181,9.278,10.512,9.278c5.844,0,10.604-4.76,10.604-10.603
			C100.246,71.109,95.486,66.359,89.643,66.359z M60.736,90.839c0,7.25-5.902,13.143-13.153,13.143s-13.152-5.893-13.152-13.143
			c0-7.242,5.901-13.134,13.152-13.134h13.153V90.839z M89.643,86.028c-5.021,0-9.096-4.077-9.096-9.086
			c0-5.011,4.075-9.087,9.096-9.087c5.011,0,9.098,4.076,9.098,9.087C98.74,81.951,94.653,86.028,89.643,86.028z"/>
	</g>
	<g>
		<path fill="#90AEEA" d="M72.049,24.188c-1.721,0-5.296,1.368-5.652,2.661l-0.055,0.2l0.056,0.199
			c0.359,1.293,3.933,2.66,5.651,2.66c1.579,0,2.863-1.284,2.863-2.86C74.912,25.472,73.628,24.188,72.049,24.188z"/>
		<path fill="#90AEEA" d="M50.94,24.188c-1.577,0-2.86,1.283-2.86,2.86c0,1.576,1.283,2.86,2.86,2.86
			c1.726,0,5.301-1.371,5.648-2.666l0.052-0.193l-0.052-0.194C56.245,25.56,52.668,24.188,50.94,24.188z"/>
	</g>
	<g>
		<defs>
			<path id="SVGID_1_" d="M89.64,71.324c-3.106,0-5.624,2.52-5.624,5.621c0,3.103,2.518,5.622,5.624,5.622
				c3.107,0,5.628-2.52,5.628-5.622C95.268,73.844,92.747,71.324,89.64,71.324"/>
		</defs>
		<use xlink:href="#SVGID_1_"  overflow="visible" fill-rule="evenodd" clip-rule="evenodd" fill="#4D7EDD"/>
		<clipPath id="SVGID_2_">
			<use xlink:href="#SVGID_1_"  overflow="visible"/>
		</clipPath>
		<g clip-path="url(#SVGID_2_)">
			<defs>
				<rect id="SVGID_3_" x="-32.316" y="-192.738" width="1285.182" height="2381.584"/>
			</defs>
			<use xlink:href="#SVGID_3_"  overflow="visible" fill="#4D7EDD"/>
			<clipPath id="SVGID_4_">
				<use xlink:href="#SVGID_3_"  overflow="visible"/>
			</clipPath>
			<g clip-path="url(#SVGID_4_)">
				<rect x="78.995" y="66.304" fill="#4D7EDD" width="21.293" height="21.284"/>
			</g>
		</g>
	</g>
	<g>
		<defs>
			<path id="SVGID_5_" d="M89.642,81.155c-2.313,0-4.195-1.881-4.195-4.19c0-2.307,1.883-4.176,4.195-4.176
				c2.312,0,4.184,1.869,4.184,4.176C93.825,79.274,91.953,81.155,89.642,81.155"/>
		</defs>
		<use xlink:href="#SVGID_5_"  overflow="visible" fill-rule="evenodd" clip-rule="evenodd" fill="#90AEEA"/>
		<clipPath id="SVGID_6_">
			<use xlink:href="#SVGID_5_"  overflow="visible"/>
		</clipPath>
		<g clip-path="url(#SVGID_6_)">
			<defs>
				<rect id="SVGID_7_" x="-91.894" y="-324.466" width="1913.033" height="3545.061"/>
			</defs>
			<use xlink:href="#SVGID_7_"  overflow="visible" fill="#90AEEA"/>
			<clipPath id="SVGID_8_">
				<use xlink:href="#SVGID_7_"  overflow="visible"/>
			</clipPath>
			<g clip-path="url(#SVGID_8_)">
				<rect x="77.975" y="65.316" fill="#90AEEA" width="23.322" height="23.312"/>
			</g>
		</g>
	</g>
	<g>
		<path fill="#4D7EDD" d="M62.161,124h-0.328c-4.486,0-8.89-0.477-13.088-1.417c-1.484-0.301-2.989-0.693-4.458-1.166
			C18.219,113.725,0,89.288,0,62C0,27.813,27.739,0,61.833,0h0.328C96.259,0,124,27.813,124,62
			c0,27.277-18.231,51.725-44.337,59.454c-1.61,0.486-3.061,0.856-4.428,1.133C71.049,123.523,66.645,124,62.161,124z M61.833,1.506
			C28.568,1.506,1.506,28.644,1.506,62c0,26.625,17.775,50.467,43.225,57.979c1.434,0.46,2.885,0.839,4.329,1.132
			c4.104,0.919,8.397,1.384,12.773,1.384h0.328c4.373,0,8.666-0.465,12.76-1.381c1.337-0.271,2.742-0.631,4.311-1.104
			c25.474-7.541,43.263-31.396,43.263-58.01c0-33.356-27.065-60.494-60.333-60.494H61.833z"/>
	</g>
</g>
</svg>
