<?xml version="1.0" encoding="UTF-8" standalone="no"?>
<svg width="128px" height="128px" viewBox="0 0 128 128" version="1.1" xmlns="http://www.w3.org/2000/svg" xmlns:xlink="http://www.w3.org/1999/xlink">
    <!-- Generator: Sketch 41 (35326) - http://www.bohemiancoding.com/sketch -->
    <title>Group 4</title>
    <desc>Created with Sketch.</desc>
    <defs></defs>
    <g id="Page-1" stroke="none" stroke-width="1" fill="none" fill-rule="evenodd">
        <g id="Services" transform="translate(-30.000000, -192.000000)">
            <g id="Group-4" transform="translate(32.000000, 194.000000)">
                <path d="M89.4658145,83 C84.8266426,83 81.0546875,79.234 81.0546875,74.59825 C81.0546875,69.97125 84.8266426,66.1965 89.4658145,66.1965 C94.0997305,66.1965 97.8786934,69.97125 97.8786934,74.59825 C97.8786934,79.234 94.0997305,83 89.4658145,83 L89.4658145,83 Z M60.03125,88.59825 C60.03125,95.551 54.3724414,101.1965 47.4189395,101.1965 C40.4654375,101.1965 34.8066289,95.551 34.8066289,88.59825 C34.8066289,81.6525 40.4654375,76 47.4189395,76 L60.03125,76 L60.03125,88.59825 Z M89.4658145,63.40175 C83.7579512,63.40175 79.0451973,67.6805 78.3514238,73.1965 L62.8378789,73.1965 L62.8378789,64.625 C64.2955039,64.26275 65.5534062,63.3405 66.347041,62 L84.4552285,31.41 C85.5169121,29.625 85.5309277,27.48475 84.5042832,25.6805 C83.4776387,23.87625 81.6223203,22.8035 79.542752,22.8035 L76.3612051,22.8035 C75.5658184,21.148 73.896207,20 71.9462832,20 C69.7072871,20 64.2324336,21.715 64.2324336,24.90175 C64.2324336,28.07975 69.7072871,29.8035 71.9462832,29.8035 C74.4095293,29.8035 76.4365391,27.97125 76.7781699,25.59825 L79.542752,25.59825 C80.5974277,25.59825 81.5417305,26.146 82.0673164,27.06825 C82.5876465,27.9835 82.5806387,29.079 82.0392852,29.98725 L63.9328496,60.579 C63.4055117,61.46625 62.4682168,62 61.4345645,62 C60.3939043,62 59.4636172,61.46625 58.9222637,60.565 L40.3077617,29.98725 C39.7681602,29.079 39.7611523,27.9835 40.2814824,27.06825 C40.8070684,26.146 41.7513711,25.59825 42.8060469,25.59825 L46.0839512,25.59825 C46.4343418,27.97125 48.4595996,29.8035 50.9228457,29.8035 C53.1600898,29.8035 58.6279355,28.07975 58.6279355,24.90175 C58.6279355,21.715 53.1600898,20 50.9228457,20 C48.9729219,20 47.2945508,21.148 46.5079238,22.8035 L42.8060469,22.8035 C40.7317344,22.8035 38.878168,23.87625 37.8445156,25.6805 C36.8178711,27.48475 36.8388945,29.625 37.905834,31.42225 L56.5203359,62.007 C57.3139707,63.3405 58.573625,64.26275 60.03125,64.625 L60.03125,73.1965 L47.4189395,73.1965 C38.9184629,73.1965 32,80.109 32,88.59825 C32,97.08925 38.9184629,104 47.4189395,104 C55.9176641,104 62.8378789,97.08925 62.8378789,88.59825 L62.8378789,76 L78.3514238,76 C79.0451973,81.516 83.7579512,85.8035 89.4658145,85.8035 C95.6449531,85.8035 100.674811,80.7775 100.674811,74.59825 C100.674811,68.426 95.6449531,63.40175 89.4658145,63.40175 L89.4658145,63.40175 Z" id="Fill-1" fill="#4D7EDD"></path>
                <path d="M71.9459328,27 C70.2132512,27 67.2366828,25.61225 67.0387121,24.90175 C67.2366828,24.18425 70.2132512,22.8035 71.9459328,22.8035 C73.1022219,22.8035 74.0465246,23.73975 74.0465246,24.90175 C74.0465246,26.05675 73.1022219,27 71.9459328,27 L71.9459328,27 Z" id="Path" fill="#7A9EE6"></path>
                <path d="M50.9224953,22.8035 C52.653425,22.8035 55.6317453,24.18425 55.8227082,24.90175 C55.6317453,25.61225 52.653425,27 50.9224953,27 C49.7591984,27 48.8219035,26.05675 48.8219035,24.90175 C48.8219035,23.73975 49.7591984,22.8035 50.9224953,22.8035 L50.9224953,22.8035 Z" id="Path" fill="#7A9EE6"></path>
                <path d="M89.4654641,68.99965 C86.3715148,68.99965 83.862718,71.50915 83.862718,74.5979 C83.862718,77.6884 86.3715148,80.1979 89.4654641,80.1979 C92.5594133,80.1979 95.0699621,77.6884 95.0699621,74.5979 C95.0699621,71.50915 92.5594133,68.99965 89.4654641,68.99965" id="Fill-4" fill="#4D7EDD"></path>
                <path d="M89.4654641,77.4014 C87.9184895,77.4014 86.6588352,76.14315 86.6588352,74.5979 C86.6588352,73.0544 87.9184895,71.80315 89.4654641,71.80315 C91.0124387,71.80315 92.2633332,73.0544 92.2633332,74.5979 C92.2633332,76.14315 91.0124387,77.4014 89.4654641,77.4014" id="Path" fill="#7A9EE6"></path>
                <circle id="Oval" stroke="#4D7EDD" stroke-width="2.5" cx="62" cy="62" r="62"></circle>
            </g>
        </g>
    </g>
</svg>