<?xml version="1.0" encoding="UTF-8" standalone="no"?>
<svg width="32px" height="32px" viewBox="0 0 32 32" version="1.1" xmlns="http://www.w3.org/2000/svg" xmlns:xlink="http://www.w3.org/1999/xlink">
    <!-- Generator: Sketch 41 (35326) - http://www.bohemiancoding.com/sketch -->
    <title>Fill 18 Copy</title>
    <desc>Created with Sketch.</desc>
    <defs></defs>
    <g id="Page-1" stroke="none" stroke-width="1" fill="none" fill-rule="evenodd" opacity="0.802819293">
        <g id="-index" transform="translate(-948.000000, -376.000000)" fill="#215ED5">
            <g id="Group-7" transform="translate(936.000000, 243.000000)">
                <path d="M28,163.932 C22.7606667,163.932 18.1486667,161.218667 15.482,157.127333 C16.4793333,157.127333 17.3253333,157.056667 17.7106667,157.020667 C17.7606667,157.056667 17.8153333,157.093333 17.8673333,157.13 L17.8673333,157.494667 C17.8673333,157.676667 17.9606667,157.848667 18.1173333,157.945333 C19.0886667,158.554667 20.1746667,159.004667 21.4633333,159.330667 C21.466,159.330667 21.466,159.333333 21.4686667,159.333333 C21.474,159.335333 21.4793333,159.335333 21.4866667,159.338 C21.6693333,159.382667 21.862,159.426667 22.0546667,159.468667 C22.138,159.486667 22.2213333,159.504667 22.3046667,159.520667 C22.4633333,159.552 22.6273333,159.583333 22.794,159.609333 C22.922,159.632667 23.0493333,159.653333 23.1773333,159.671333 C23.318,159.695333 23.4606667,159.716 23.6066667,159.736667 C23.818,159.762667 24.0313333,159.788667 24.242,159.812 C24.31,159.82 24.3726667,159.828 24.44,159.835333 L24.4426667,159.835333 C24.448,159.838 24.4533333,159.838 24.4586667,159.838 L24.4793333,159.838 L24.482,159.840667 C24.7133333,159.864 24.9453333,159.885333 25.18,159.903333 L25.198,159.903333 C25.216,159.906 25.232,159.906 25.25,159.908667 C25.2606667,159.908667 25.2706667,159.911333 25.2786667,159.911333 C25.4893333,159.926667 25.7006667,159.942667 25.9113333,159.955333 C25.9246667,159.958 25.9346667,159.958 25.9453333,159.958 L25.9586667,159.958 C25.9713333,159.960667 25.982,159.960667 25.9946667,159.960667 L25.9973333,159.960667 C26.0106667,159.963333 26.0233333,159.963333 26.0366667,159.963333 C26.526,159.994667 27.0153333,160.018 27.4973333,160.038667 L27.5106667,160.038667 C27.6846667,160.046667 27.8566667,160.054667 28.0286667,160.062 L28.094,160.064667 C28.9193333,160.098667 29.7733333,160.135333 30.586,160.197333 C30.844,160.216 31.094,160.226 31.3333333,160.226 C31.508,160.226 31.672,160.142667 31.7706667,160 C31.8413333,159.900667 31.87,159.783333 31.8646667,159.666667 C33.0726667,159.580667 34.0026667,159.205333 34.638,158.546667 C35.354,157.802 35.4533333,156.918667 35.466,156.578 C35.7733333,155.838 37.3753333,151.635333 35.974,147.238667 C35.508,145.780667 35.0106667,142.997333 34.9346667,142.565333 C35.052,139.783333 34.3466667,137.723333 32.8306667,136.436667 C30.8073333,134.715333 28.0053333,134.96 27.1066667,135.096667 C27,134.95 26.8513333,134.666667 26.7186667,134.125333 C27.1433333,134.088 27.568,134.068 28,134.068 C36.2346667,134.068 42.932,140.765333 42.932,149 C42.932,157.234 36.2346667,163.932 28,163.932 L28,163.932 Z M16.138,139.942667 L19.4013333,152.481333 C19.138,152.424 18.8773333,152.343333 18.6273333,152.226 C18.4633333,152.148 18.268,152.161333 18.1146667,152.26 C18.0413333,152.307333 17.982,152.372 17.9373333,152.445333 C17.8226667,152.369333 17.706,152.296667 17.6013333,152.210667 C16.724,151.486667 15.2033333,150.705333 13.0966667,149.890667 C13.078,149.596 13.068,149.299333 13.068,149 C13.068,145.596667 14.2133333,142.458667 16.138,139.942667 L16.138,139.942667 Z M27.888,158.986667 L25.5393333,153.182 C25.94,153.023333 26.888,152.679333 28.1513333,152.424 L29.086,155.020667 L30.5653333,159.124667 C29.7653333,159.067333 28.94,159.033333 28.1406667,159 L28.0753333,158.997333 C28.0133333,158.992 27.9506667,158.989333 27.888,158.986667 L27.888,158.986667 Z M18.932,156.854 L18.932,153.473333 C19.094,153.518 19.2553333,153.552 19.4166667,153.578 C19.5053333,153.593333 19.5986667,153.606667 19.698,153.622 L20.8486667,158.046667 C20.146,157.814667 19.5153333,157.530667 18.9346667,157.192667 L18.9346667,156.854 L18.932,156.854 Z M14.8413333,156.049333 C14.8226667,156.018 14.8073333,155.984 14.792,155.952667 C14.6173333,155.624667 14.4586667,155.291333 14.31,154.955333 C14.292,154.911333 14.2706667,154.869333 14.2526667,154.828 C14.1013333,154.473333 13.9686667,154.116667 13.8486667,153.754667 C13.8253333,153.692667 13.8046667,153.63 13.784,153.564667 C13.6666667,153.197333 13.5626667,152.825333 13.474,152.447333 C13.4606667,152.400667 13.4506667,152.354 13.44,152.307333 C13.3486667,151.903333 13.2706667,151.494667 13.216,151.083333 C14.9373333,151.778667 16.208,152.445333 16.922,153.033333 C17.2033333,153.265333 17.518,153.466 17.8673333,153.635333 L17.8673333,155.932 C17.8466667,155.932 17.8253333,155.934667 17.802,155.937333 C17.7893333,155.937333 16.396,156.104 14.8413333,156.049333 L14.8413333,156.049333 Z M23.18,158.596 C23.1746667,158.593333 23.1693333,158.593333 23.164,158.593333 C22.7813333,158.530667 22.406,158.458 22.0366667,158.372 L20.638,153.007333 L16.9793333,138.947333 C17.07,138.846667 17.1586667,138.744667 17.2526667,138.648667 C17.2966667,138.600667 17.3413333,138.552 17.388,138.508 C17.4086667,138.484667 17.432,138.458667 17.456,138.434 C17.5206667,138.37 17.5886667,138.309333 17.6533333,138.244667 C17.82,138.088 17.9866667,137.934 18.1586667,137.783333 L26.276,157.851333 L26.716,158.932 C26.69,158.932 26.664,158.929333 26.638,158.929333 C26.3073333,158.911333 25.974,158.890667 25.6406667,158.866667 C25.5833333,158.862 25.5286667,158.859333 25.4713333,158.854 C25.112,158.828 24.7553333,158.796667 24.396,158.757333 C24.3566667,158.752 24.318,158.747333 24.2786667,158.742 C23.9086667,158.702667 23.5413333,158.653333 23.18,158.596 L23.18,158.596 Z M25.6533333,134.254667 C25.87,135.206 26.1846667,135.802 26.6326667,136.106667 C26.7526667,136.19 26.9033333,136.218667 27.044,136.186667 C27.0753333,136.182 30.1486667,135.554667 32.1406667,137.25 C33.4013333,138.32 33.982,140.112 33.8673333,142.574667 C33.8646667,142.614 33.8673333,142.653333 33.8753333,142.69 C33.896,142.822 34.4346667,145.918667 34.9586667,147.562667 C36.344,151.903333 34.466,156.205333 34.448,156.25 C34.414,156.325333 34.3986667,156.414 34.4013333,156.494667 C34.4033333,156.526 34.4273333,157.236667 33.8593333,157.82 C33.37,158.32 32.5806667,158.585333 31.5153333,158.614 L29.9606667,154.304667 L29.406,152.76 C29.4893333,152.75 29.5726667,152.739333 29.6586667,152.728667 C29.8753333,152.705333 30.0546667,152.554667 30.1146667,152.346 C30.172,152.135333 30.0986667,151.911333 29.9273333,151.778667 C29.9013333,151.757333 27.232,149.622 28.5106667,145.421333 C28.518,145.398667 28.5233333,145.374667 28.5286667,145.348667 C28.6433333,144.622667 28.4973333,143.114 27.1093333,142.626667 C26.8306667,142.530667 26.5286667,142.677333 26.43,142.956 C26.3333333,143.234667 26.4793333,143.539333 26.758,143.635333 C27.5806667,143.924667 27.5,144.958667 27.4793333,145.151333 C26.604,148.062667 27.3726667,150.124667 28.156,151.335333 C26.7006667,151.609333 25.6066667,152.004667 25.1406667,152.192667 L19.0233333,137.083333 C19.1013333,137.023333 19.1746667,136.962667 19.2526667,136.905333 C19.3826667,136.812667 19.5133333,136.718667 19.646,136.626667 C19.896,136.458667 20.1533333,136.296 20.414,136.142667 C20.5393333,136.07 20.6666667,135.997333 20.794,135.924667 C21.078,135.767333 21.37,135.62 21.664,135.482 C21.7653333,135.434 21.8673333,135.388 21.9713333,135.341333 C22.302,135.195333 22.638,135.059333 22.9793333,134.936667 C23.0393333,134.916667 23.0966667,134.898667 23.156,134.876667 C23.9633333,134.600667 24.7966667,134.39 25.6533333,134.254667 L25.6533333,134.254667 Z M28,133 C27.328,133 26.6666667,133.046 26.018,133.126667 L26.0133333,133.126667 C26.0026667,133.129333 25.9893333,133.129333 25.9793333,133.132667 C25.75,133.161333 25.5206667,133.195333 25.294,133.234667 C25.2633333,133.238667 25.232,133.244667 25.2033333,133.25 C24.9893333,133.289333 24.776,133.330667 24.5653333,133.374667 C24.5133333,133.388 24.4606667,133.401333 24.4086667,133.411333 C24.2213333,133.456 24.0366667,133.5 23.8513333,133.548667 C23.7606667,133.572 23.672,133.598667 23.5833333,133.625333 C23.44,133.666667 23.294,133.708 23.1513333,133.754667 C23.0026667,133.802 22.8566667,133.850667 22.7106667,133.903333 C22.6273333,133.932 22.5413333,133.958667 22.4606667,133.988667 C20.43,134.736667 18.57,135.895333 16.9866667,137.401333 C16.9766667,137.408 16.9686667,137.418667 16.9586667,137.427333 C16.6326667,137.738667 16.318,138.065333 16.0153333,138.405333 C16.008,138.416667 15.9973333,138.427333 15.9866667,138.436667 C15.9846667,138.44 15.982,138.445333 15.9766667,138.45 C15.8853333,138.554667 15.792,138.658 15.7033333,138.765333 C15.6953333,138.773333 15.6926667,138.786667 15.6873333,138.793333 C13.3853333,141.568 12,145.125333 12,149 C12,149.44 12.0233333,149.874667 12.0573333,150.304667 L12.0573333,150.309333 C12.0573333,150.314667 12.06,150.317333 12.06,150.322667 C12.0806667,150.593333 12.1093333,150.864 12.146,151.132667 C12.1486667,151.153333 12.1513333,151.171333 12.1533333,151.19 C12.1873333,151.44 12.2293333,151.69 12.276,151.934667 C12.284,151.976 12.2893333,152.015333 12.2966667,152.054667 C12.3386667,152.276 12.388,152.492 12.44,152.708 C12.4533333,152.773333 12.4686667,152.835333 12.4846667,152.900667 C12.5313333,153.088 12.5833333,153.276 12.638,153.460667 C12.664,153.546667 12.6846667,153.632667 12.7106667,153.718667 C12.7606667,153.88 12.818,154.038667 12.8726667,154.2 C12.956,154.442667 13.0466667,154.682 13.1406667,154.921333 C13.182,155.023333 13.2213333,155.13 13.2653333,155.231333 C13.3253333,155.372 13.3906667,155.512667 13.456,155.653333 C13.5053333,155.76 13.552,155.866667 13.604,155.973333 C13.6693333,156.112 13.742,156.247333 13.8126667,156.382667 C13.8673333,156.486667 13.922,156.590667 13.9766667,156.695333 C14.0026667,156.739333 14.0233333,156.786 14.0493333,156.830667 C14.0573333,156.843333 14.07,156.856667 14.078,156.869333 C16.8306667,161.718667 22.0366667,165 28,165 C36.8226667,165 44,157.822667 44,149 C44,140.177333 36.8226667,133 28,133 L28,133 Z" id="Fill-18-Copy"></path>
            </g>
        </g>
    </g>
</svg>