<?xml version="1.0" encoding="UTF-8" standalone="no"?>
<svg width="16px" height="16px" viewBox="0 0 16 16" version="1.1" xmlns="http://www.w3.org/2000/svg" xmlns:xlink="http://www.w3.org/1999/xlink">
    <!-- Generator: Sketch 41 (35326) - http://www.bohemiancoding.com/sketch -->
    <title>Page 1</title>
    <desc>Created with Sketch.</desc>
    <defs></defs>
    <g id="Page-1" stroke="none" stroke-width="1" fill="none" fill-rule="evenodd">
        <g id="News" transform="translate(-497.000000, -670.000000)" fill="#4D7EDD">
            <g id="Page-1" transform="translate(497.000000, 670.000000)">
                <g id="Group-22">
                    <path d="M12.604898,3.93142857 C12.604898,4.36408163 12.2522449,4.71477551 11.8202449,4.71477551 C11.3875918,4.71477551 11.036898,4.36408163 11.036898,3.93142857 C11.036898,3.49910204 11.3875918,3.14840816 11.8202449,3.14840816 C11.9413878,3.14840816 12.0537143,3.17779592 12.1559184,3.22612245 L11.635102,3.74661224 C11.5332245,3.8484898 11.5332245,4.01436735 11.635102,4.11657143 C11.6863673,4.1675102 11.7539592,4.19297959 11.8202449,4.19297959 C11.8878367,4.19297959 11.9541224,4.1675102 12.0050612,4.11657143 L12.525551,3.59608163 C12.5738776,3.69828571 12.604898,3.81028571 12.604898,3.93142857 L12.604898,3.93142857 Z M14.1706122,7.55526531 L6.87657143,15.0478367 C6.7204898,15.2035918 6.46840816,15.2035918 6.31232653,15.0478367 L0.965387755,9.70089796 C0.809632653,9.54514286 0.809632653,9.29273469 0.966693878,9.13567347 L8.46057143,1.58073469 L13.8026122,1.58073469 L12.5395918,2.84342857 C12.3332245,2.70563265 12.0853878,2.62530612 11.8202449,2.62530612 C11.100898,2.62530612 10.5141224,3.21077551 10.5141224,3.93142857 C10.5141224,4.65208163 11.100898,5.23755102 11.8202449,5.23755102 C12.540898,5.23755102 13.1263673,4.65208163 13.1263673,3.93142857 C13.1263673,3.66628571 13.0460408,3.41877551 12.909551,3.21208163 L14.1706122,1.94938776 L14.1706122,7.55526531 Z M15.6618776,0.0897959184 C15.56,-0.0124081633 15.395102,-0.0124081633 15.2932245,0.0897959184 L14.3240816,1.05795918 L8.24244898,1.05795918 L0.597061224,8.76734694 C0.422040816,8.94204082 0.326367347,9.17289796 0.326367347,9.41910204 C0.326367347,9.66530612 0.422040816,9.89746939 0.597061224,10.0708571 L5.94269388,15.4164898 C6.12228571,15.5964082 6.35706122,15.6862041 6.59281633,15.6862041 C6.83020408,15.6862041 7.06759184,15.5964082 7.24881633,15.4132245 L14.6937143,7.76816327 L14.6937143,1.42759184 L15.6618776,0.459755102 C15.7640816,0.35755102 15.7640816,0.191673469 15.6618776,0.0897959184 L15.6618776,0.0897959184 Z" id="Fill-1"></path>
                    <path d="M9.09054694,10.3252571 L6.31993469,13.0961959 C6.21675102,13.1997061 6.21675102,13.3642776 6.31993469,13.4661551 C6.36989388,13.5170939 6.43748571,13.5428898 6.50377143,13.5428898 C6.57136327,13.5428898 6.63764898,13.5170939 6.68858776,13.4661551 L9.4592,10.6958694 C9.56107755,10.5936653 9.56107755,10.4277878 9.4592,10.3252571 C9.35699592,10.2237061 9.19242449,10.2237061 9.09054694,10.3252571" id="Fill-4"></path>
                    <path d="M10.0127673,9.40114286 C9.96574694,9.45077551 9.93766531,9.51967347 9.93766531,9.58726531 C9.93766531,9.65485714 9.96574694,9.72244898 10.0127673,9.77240816 C10.0620735,9.81942857 10.1296653,9.84816327 10.1972571,9.84816327 C10.2690939,9.84816327 10.3366857,9.81942857 10.3840327,9.77240816 C10.4310531,9.72244898 10.4591347,9.65746939 10.4591347,9.58726531 C10.4591347,9.51608163 10.4310531,9.4484898 10.3840327,9.40114286 C10.2896653,9.30481633 10.1097469,9.30481633 10.0127673,9.40114286" id="Fill-6"></path>
                    <path d="M7.79719184,7.18527347 C7.89906939,7.08339592 7.89906939,6.91882449 7.79719184,6.81662041 C7.69498776,6.71474286 7.53041633,6.71474286 7.42853878,6.81662041 L4.65694694,9.58723265 C4.55474286,9.68943673 4.55474286,9.85400816 4.65694694,9.95719184 C4.70788571,10.007151 4.77547755,10.0339265 4.84176327,10.0339265 C4.9093551,10.0339265 4.97564082,10.007151 5.02690612,9.95719184 L7.79719184,7.18527347 Z" id="Fill-8"></path>
                    <path d="M6.87373061,10.3252571 C6.92466939,10.376849 6.9909551,10.4023184 7.05854694,10.4023184 C7.12483265,10.4023184 7.19242449,10.376849 7.2436898,10.3252571 L9.09054694,8.47905306 C9.19275102,8.37684898 9.19275102,8.21227755 9.09054694,8.11007347 C8.98866939,8.00819592 8.82311837,8.00819592 8.72058776,8.11007347 L6.87373061,9.95725714 C6.77185306,10.0594612 6.77185306,10.2237061 6.87373061,10.3252571" id="Fill-10"></path>
                    <path d="M5.39653878,11.4343184 L5.02690612,11.8042776 C4.92470204,11.9061551 4.92470204,12.0720327 5.02690612,12.1729306 C5.0778449,12.2238694 5.14413061,12.2493388 5.21172245,12.2493388 C5.27800816,12.2493388 5.3456,12.2238694 5.39653878,12.1729306 L5.76519184,11.8042776 C5.86739592,11.7020735 5.86739592,11.5358694 5.76519184,11.4343184 C5.66331429,11.3317878 5.49874286,11.3317878 5.39653878,11.4343184" id="Fill-12"></path>
                    <path d="M5.58034286,6.44705306 C5.47813878,6.34484898 5.31356735,6.34484898 5.2116898,6.44705306 L2.44140408,9.21733878 C2.3392,9.3188898 2.3392,9.48542041 2.44140408,9.58729796 C2.49234286,9.63823673 2.55862857,9.66403265 2.62491429,9.66403265 C2.69250612,9.66403265 2.75879184,9.63823673 2.80973061,9.58729796 L5.58034286,6.81668571 C5.68222041,6.71480816 5.68222041,6.54893061 5.58034286,6.44705306" id="Fill-14"></path>
                    <path d="M6.31905306,5.96858776 C6.38893061,5.96858776 6.45554286,5.94050612 6.50386939,5.89315918 C6.5508898,5.84352653 6.58027755,5.77593469 6.58027755,5.70834286 C6.58027755,5.63683265 6.5508898,5.56924082 6.50386939,5.52189388 C6.40819592,5.42654694 6.22958367,5.42654694 6.13652245,5.52189388 C6.0868898,5.57185306 6.05750204,5.63683265 6.05750204,5.70834286 C6.05750204,5.77593469 6.0868898,5.84352653 6.13260408,5.89315918 C6.18386939,5.94050612 6.25146122,5.96858776 6.31905306,5.96858776" id="Fill-16"></path>
                    <path d="M3.91836735,10.3252571 C3.86873469,10.3729306 3.84326531,10.440849 3.84326531,10.5120327 C3.84326531,10.5796245 3.86873469,10.6472163 3.91836735,10.6945633 C3.968,10.7441959 4.03330612,10.7735837 4.10318367,10.7735837 C4.17208163,10.7735837 4.23967347,10.7441959 4.28963265,10.6945633 C4.33665306,10.6449306 4.36473469,10.5796245 4.36473469,10.5120327 C4.36473469,10.440849 4.33665306,10.3755429 4.28702041,10.3252571 C4.19004082,10.2295837 4.01534694,10.2295837 3.91836735,10.3252571" id="Fill-18"></path>
                    <path d="M6.50383673,11.065698 C6.55346939,11.0160653 6.5802449,10.9484735 6.5802449,10.8808816 C6.5802449,10.8119837 6.55346939,10.7443918 6.50383673,10.6944327 C6.40816327,10.5987592 6.22955102,10.5987592 6.13257143,10.6944327 C6.08685714,10.7443918 6.05746939,10.8119837 6.05746939,10.8808816 C6.05746939,10.9484735 6.08685714,11.0160653 6.13257143,11.065698 C6.18253061,11.1130449 6.25142857,11.1414531 6.31902041,11.1414531 C6.38889796,11.1414531 6.4555102,11.1130449 6.50383673,11.065698" id="Fill-20"></path>
                </g>
            </g>
        </g>
    </g>
</svg>