<?xml version="1.0" encoding="UTF-8" standalone="no"?>
<svg width="32px" height="32px" viewBox="0 0 32 32" version="1.1" xmlns="http://www.w3.org/2000/svg" xmlns:xlink="http://www.w3.org/1999/xlink">
    <!-- Generator: Sketch 41 (35326) - http://www.bohemiancoding.com/sketch -->
    <title>Group 178 Copy</title>
    <desc>Created with Sketch.</desc>
    <defs>
        <polygon id="path-1" points="0.19604898 32 31.6148245 32 31.6148245 0.000266666667 0.19604898 0.000266666667 0.19604898 32"></polygon>
    </defs>
    <g id="Page-1" stroke="none" stroke-width="1" fill="none" fill-rule="evenodd" opacity="0.802819293">
        <g id="-index" transform="translate(-948.000000, -333.000000)">
            <g id="Group-7" transform="translate(936.000000, 243.000000)">
                <g id="Group-178-Copy" transform="translate(12.000000, 90.000000)">
                    <mask id="mask-2" fill="white">
                        <use xlink:href="#path-1"></use>
                    </mask>
                    <g id="Clip-177"></g>
                    <path d="M15.9413551,30.9336 L15.908702,30.9336 L15.908702,30.9269333 C15.8956408,30.9269333 15.8825796,30.9336 15.8695184,30.9336 C7.80421224,30.9336 1.24094694,24.2336 1.24094694,16.0002667 C1.24094694,11.0269333 3.63768163,6.6136 7.30788571,3.90693333 C7.76502857,3.56026667 8.24829388,3.24693333 8.74462041,2.96693333 C9.66543673,2.4336 10.6515592,2.00693333 11.6833959,1.6936 C13.0091102,1.28693333 14.4131918,1.06693333 15.8695184,1.06693333 L15.9413551,1.06693333 C17.3976816,1.06693333 18.8017633,1.28693333 20.1274776,1.6936 C21.1593143,2.00693333 22.1454367,2.4336 23.0662531,2.96693333 C23.6082939,3.26693333 24.1242122,3.60693333 24.6140082,3.98693333 C28.2254367,6.70026667 30.5699265,11.0802667 30.5699265,16.0002667 C30.5699265,24.2336 24.0131918,30.9336 15.9413551,30.9336 M22.948702,1.6936 C21.8580898,1.12693333 20.6825796,0.6936 19.4613551,0.4136 C18.5405388,0.186933333 17.5870694,0.0536 16.6074776,0.0136 C16.3854367,0.00693333333 16.1633959,0.000266666667 15.9413551,0.000266666667 L15.8695184,0.000266666667 C15.6997224,0.000266666667 15.5299265,0.000266666667 15.3601306,0.0136 C14.3282939,0.0402666667 13.3225796,0.180266667 12.3495184,0.4136 C11.1282939,0.6936 9.95931429,1.12693333 8.86217143,1.6936 C3.72257959,4.32026667 0.19604898,9.74693333 0.19604898,16.0002667 C0.19604898,24.8202667 7.22298776,32.0002667 15.8695184,32.0002667 L15.9413551,32.0002667 C24.5878857,32.0002667 31.6148245,24.8202667 31.6148245,16.0002667 C31.6148245,9.74693333 28.0882939,4.32026667 22.948702,1.6936" id="Fill-176" fill="#215ED5" mask="url(#mask-2)"></path>
                    <path d="M25.4301388,18.1132667 L20.3101388,22.4539333 C19.6701388,23.1132667 18.6774857,23.2606 17.9525878,22.8139333 C17.5934041,22.5939333 17.3387102,22.2872667 17.1885061,21.9006 C16.9860571,21.3672667 16.5419755,20.9872667 16.0064653,20.8672667 L16.0064653,20.8332667 L15.6538122,20.8332667 L15.6538122,20.8672667 C15.118302,20.9872667 14.6742204,21.3672667 14.4717714,21.9006 C14.3215673,22.2872667 14.0668735,22.5939333 13.7142204,22.8066 C12.9827918,23.2606 11.9901388,23.1132667 11.3174857,22.4206 L6.38687347,18.0732667 C5.79911837,17.4666 5.64891429,16.2999333 6.07993469,15.6272667 C6.5109551,14.9466 7.98687347,14.5939333 8.80973061,14.8139333 C9.88728163,15.1066 11.0758531,14.7606 11.9117714,13.9132667 L12.3623837,13.4539333 C12.6627918,13.2666 12.9893224,13.1739333 13.3289143,13.1739333 L15.3599347,13.1739333 C15.3599347,13.5266 15.6342204,13.8139333 15.9803429,13.8139333 C16.3264653,13.8139333 16.6072816,13.5266 16.6072816,13.1739333 L18.9191184,13.1739333 C19.128098,13.1739333 19.3240163,13.2072667 19.5134041,13.2732667 L19.7550367,13.5799333 C20.5125878,14.5406 21.7403429,14.9806 23.0399347,14.7732667 C23.8170776,14.6472667 25.3060571,15.0939333 25.6978939,15.7072667 C26.1746286,16.4539333 26.0440163,17.4806 25.4301388,18.1132667 M26.7493224,15.0139333 C25.9917714,13.8332667 23.928098,13.3406 22.8440163,13.5139333 C21.9885061,13.6472667 21.2048327,13.3739333 20.728098,12.7799333 L20.2840163,12.2132667 L20.1403429,12.1539333 C19.7550367,11.9806 19.3436082,11.9006 18.9191184,11.9006 L16.6072816,11.9006 L16.6072816,9.34726667 L20.3558531,9.34726667 C20.7019755,9.34726667 20.9827918,9.05993333 20.9827918,8.70726667 C20.9827918,8.35326667 20.7019755,8.07326667 20.3558531,8.07326667 L16.6072816,8.07326667 L16.6072816,6.79393333 L21.6097306,6.79393333 C21.9558531,6.79393333 22.2301388,6.51393333 22.2301388,6.15393333 C22.2301388,5.79993333 21.9558531,5.51993333 21.6097306,5.51993333 L16.6072816,5.51993333 L16.6072816,4.23993333 L24.1109551,4.23993333 C24.3134041,4.23993333 24.4962612,4.1406 24.6138122,3.98726667 C24.6921796,3.87993333 24.7378939,3.74726667 24.7378939,3.59993333 C24.7378939,3.25326667 24.4570776,2.9666 24.1109551,2.9666 L16.6072816,2.9666 L16.6072816,1.69393333 L22.9485061,1.69393333 C21.8578939,1.12726667 20.6823837,0.693933333 19.4611592,0.413933333 L16.6072816,0.413933333 L16.6072816,0.0139333333 C16.3852408,0.0066 16.1632,0.0006 15.9411592,0.0006 L15.8693224,0.0006 C15.6995265,0.0006 15.5297306,0.0006 15.3599347,0.0139333333 L15.3599347,0.413933333 L12.3493224,0.413933333 C11.128098,0.693933333 9.95911837,1.12726667 8.86197551,1.69393333 L15.3599347,1.69393333 L15.3599347,2.9666 L7.85626122,2.9666 C7.51013878,2.9666 7.22932245,3.25326667 7.22932245,3.59993333 C7.22932245,3.71326667 7.2554449,3.8206 7.3076898,3.9066 C7.41217959,4.1066 7.62115918,4.23993333 7.85626122,4.23993333 L15.3599347,4.23993333 L15.3599347,5.51993333 L10.3574857,5.51993333 C10.0113633,5.51993333 9.73054694,5.79993333 9.73054694,6.15393333 C9.73054694,6.51393333 10.0113633,6.79393333 10.3574857,6.79393333 L15.3599347,6.79393333 L15.3599347,8.07326667 L11.6113633,8.07326667 C11.2652408,8.07326667 10.9844245,8.35326667 10.9844245,8.70726667 C10.9844245,9.05993333 11.2652408,9.34726667 11.6113633,9.34726667 L15.3599347,9.34726667 L15.3599347,11.9006 L13.3289143,11.9006 C12.728098,11.9006 12.1468735,12.0732667 11.6374857,12.4132667 L11.0301388,13.0072667 C10.5076898,13.5406 9.78279184,13.7539333 9.12973061,13.5799333 C7.98034286,13.2666 5.85789388,13.6332667 5.02850612,14.9332667 C4.2709551,16.1206 4.48646531,17.9332667 5.53789388,19.0072667 L10.4619755,23.3599333 C11.5264653,24.4399333 13.1264653,24.6666 14.360751,23.9006 C14.9485061,23.5406 15.3860571,23.0072667 15.6342204,22.3672667 C15.6734041,22.2732667 15.7452408,22.1932667 15.8301388,22.1472667 C15.9215673,22.1932667 15.9934041,22.2666 16.0260571,22.3672667 C16.2742204,23.0072667 16.7117714,23.5406 17.2995265,23.9006 C17.7958531,24.2072667 18.3444245,24.3532667 18.8995265,24.3532667 C19.7223837,24.3532667 20.5452408,24.0266 21.1525878,23.4006 L26.2725878,19.0532667 C27.3436082,17.9606 27.5460571,16.2606 26.7493224,15.0139333" id="Fill-170" fill="#215ED5" mask="url(#mask-2)"></path>
                    <path d="M10.8268408,18.9153333 C10.1372082,18.9153333 9.57884082,18.3453333 9.57884082,17.6413333 C9.57884082,16.9366667 10.1372082,16.3633333 10.8268408,16.3633333 C11.5171265,16.3633333 12.0781061,16.9366667 12.0781061,17.6413333 C12.0781061,18.3453333 11.5171265,18.9153333 10.8268408,18.9153333 L10.8268408,18.9153333 Z M10.8268408,15.0893333 C9.44757551,15.0893333 8.32757551,16.2326667 8.32757551,17.6413333 C8.32757551,19.0493333 9.44757551,20.1926667 10.8268408,20.1926667 C12.2061061,20.1926667 13.3267592,19.0493333 13.3267592,17.6413333 C13.3267592,16.2326667 12.2061061,15.0893333 10.8268408,15.0893333 L10.8268408,15.0893333 Z" id="Fill-172" fill="#215ED5" mask="url(#mask-2)"></path>
                    <path d="M20.7978449,18.9153333 C20.1082122,18.9153333 19.5465796,18.3453333 19.5465796,17.6413333 C19.5465796,16.9366667 20.1082122,16.3633333 20.7978449,16.3633333 C21.4848653,16.3633333 22.046498,16.9366667 22.046498,17.6413333 C22.046498,18.3453333 21.4848653,18.9153333 20.7978449,18.9153333 L20.7978449,18.9153333 Z M20.7978449,15.0893333 C19.4185796,15.0893333 18.2953143,16.2326667 18.2953143,17.6413333 C18.2953143,19.0493333 19.4185796,20.1926667 20.7978449,20.1926667 C22.174498,20.1926667 23.2977633,19.0493333 23.2977633,17.6413333 C23.2977633,16.2326667 22.174498,15.0893333 20.7978449,15.0893333 L20.7978449,15.0893333 Z" id="Fill-174" fill="#215ED5" mask="url(#mask-2)"></path>
                </g>
            </g>
        </g>
    </g>
</svg>