<?xml version="1.0" encoding="utf-8"?>
<!-- Generator: Adobe Illustrator 15.0.0, SVG Export Plug-In . SVG Version: 6.00 Build 0)  -->
<!DOCTYPE svg PUBLIC "-//W3C//DTD SVG 1.1//EN" "http://www.w3.org/Graphics/SVG/1.1/DTD/svg11.dtd">
<svg version="1.1" id="Layer_1" xmlns="http://www.w3.org/2000/svg" xmlns:xlink="http://www.w3.org/1999/xlink" x="0px" y="0px"
	 width="124px" height="124px" viewBox="0 0 124 124" enable-background="new 0 0 124 124" xml:space="preserve">
<g>
	<g>
		<path fill="#4D7EDD" d="M62.161,124h-0.327c-4.484,0-8.888-0.476-13.087-1.415c-1.479-0.3-2.983-0.692-4.458-1.167
			C18.218,113.723,0,89.287,0,62C0,27.813,27.738,0,61.833,0h0.327C96.26,0,124,27.813,124,62c0,27.277-18.232,51.725-44.337,59.453
			c-1.613,0.486-3.063,0.858-4.428,1.134C71.049,123.524,66.645,124,62.161,124z M61.833,1.506C28.569,1.506,1.506,28.644,1.506,62
			c0,26.625,17.775,50.467,43.225,57.979c1.439,0.463,2.89,0.842,4.329,1.134c4.107,0.918,8.4,1.382,12.774,1.382h0.327
			c4.373,0,8.667-0.464,12.761-1.38c1.333-0.27,2.738-0.63,4.31-1.104c25.474-7.541,43.263-31.395,43.263-58.01
			c0-33.356-27.064-60.494-60.333-60.494H61.833z"/>
	</g>
	<g>
		<g>
			<rect x="82.658" y="99.551" fill="#4D7EDD" width="1.557" height="19.558"/>
		</g>
		<g>
			<path fill="#4D7EDD" d="M26.03,111.076V93.799c0-8.063,5.673-14.912,13.786-16.648l4.568-0.982v13.001h-5.352
				c-2.962,0-5.371,2.33-5.371,5.181v6.657h3.092v-1.456h-1.536V94.35c0-2.048,1.717-3.714,3.815-3.714h12.25
				c2.108,0,3.815,1.666,3.815,3.714v5.201H53.57v1.456h3.083V94.35c0-2.851-2.409-5.181-5.372-5.181H45.94V75.826l4.367-0.935
				l-1.395,9.165l13.093,7.91l13.083-7.91l-1.385-9.165l4.367,0.935v13.395l-0.573,0.14c-2.369,0.593-4.026,2.65-4.026,4.989
				c0,2.852,2.41,5.172,5.373,5.172c0.934,0,1.836-0.241,2.699-0.724l0.443-0.251l0.381-0.332c1.195-1.004,1.848-2.379,1.848-3.865
				c0-2.339-1.646-4.396-4.017-4.989l-0.572-0.14V76.168l4.567,0.982c8.113,1.736,13.777,8.585,13.777,16.648v17.277h1.557V93.799
				c0-8.746-6.166-16.176-14.99-18.074l-12.572-2.701v-4.467h-1.557l0.076,5.676L62,87.916l-8.428-13.684l0.019-5.676h-1.556v4.467
				l-12.561,2.701c-8.836,1.898-15.001,9.328-15.001,18.074v17.277H26.03z"/>
		</g>
		<g>
			<rect x="39.786" y="99.551" fill="#4D7EDD" width="1.556" height="19.558"/>
		</g>
		<g>
			<path fill="#4D7EDD" d="M82.016,41.557l-0.32-0.11v-6.557c0-4.449-2.481-13.073-11.879-13.897l-0.441-0.039l-0.02-0.421
				c-0.01-0.393-0.131-0.774-0.353-1.126c-0.884-1.345-3.363-2.087-6.998-2.087c-7.48,0-13.032,1.998-16.526,5.944
				c-5.402,6.115-4.298,15.13-3.836,17.751c0.021,0.08,0.03,0.14,0.03,0.21l0.05,0.341l-0.271,0.231
				c-1.024,0.563-1.667,1.596-1.667,2.7v4.811c0,1.455,1.023,2.701,2.489,3.051l0.251,0.061l0.101,0.231
				c0.381,0.943,3.755,9.317,6.115,12.701l0.21,0.311c1.567,2.25,4.197,6.024,13.053,6.024c8.866,0,11.476-3.784,13.043-6.044
				l0.2-0.291c2.1-2.982,4.98-9.87,6.115-12.701l0.109-0.231l0.252-0.061c1.465-0.351,2.49-1.596,2.49-3.051v-4.811
				C84.215,43.174,83.331,41.989,82.016,41.557z M70.83,43.787h-5.051c-1.766,0-3.202,1.335-3.272,3.001h-1.014
				c-0.071-1.666-1.506-3.001-3.273-3.001H53.16c-1.426,0-2.681,0.882-3.113,2.198l-0.21,0.643l-3.283-2.35l0.15-0.341
				c0.964-2.229,1.858-5.553,2.109-7.902l0.05-0.422l0.431-0.01c3.504-0.061,15.302-0.492,20.353-3.504l0.582-0.341l0.17,0.632
				c1.125,4.157,7.018,11.085,7.079,11.146l0.321,0.38l-3.625,2.731l-0.221-0.663C73.521,44.669,72.266,43.787,70.83,43.787z
				 M72.588,46.918v1.205c0,1.587-1.346,2.872-3.012,2.872h-2.53c-1.667,0-3.032-1.285-3.032-2.872v-1.205
				c0.01-0.933,0.803-1.686,1.766-1.686h5.051C71.805,45.232,72.588,45.985,72.588,46.918z M59.977,46.918v1.205
				c0,1.587-1.356,2.872-3.023,2.872h-2.53c-1.667,0-3.012-1.285-3.012-2.872v-1.205c0-0.933,0.783-1.686,1.747-1.686h5.061
				C59.184,45.232,59.977,45.985,59.977,46.918z M82.699,49.309c0,0.934-0.794,1.687-1.769,1.687c-0.32,0-0.612,0.2-0.713,0.462
				c0,0.01-0.02,0.07-0.06,0.16c-1.175,2.912-4.116,9.992-6.176,12.934l-0.211,0.311c-1.484,2.139-3.734,5.382-11.767,5.382
				c-8.042,0-10.292-3.243-11.788-5.392l-0.2-0.301c-2.46-3.505-6.206-12.993-6.236-13.083c-0.11-0.281-0.401-0.472-0.713-0.472
				c-0.974,0-1.767-0.753-1.767-1.687v-4.811c0-0.421,0.182-0.833,0.502-1.165l0.523-0.502l0.301,0.643
				c0.332,0.713,1.044,1.586,2.55,1.728l0.14,0.02l4.599,3.283l0.03,0.191c0.301,2.139,2.229,3.754,4.478,3.754h2.53
				c2.46,0,4.468-1.876,4.539-4.207h1.014c0.071,2.33,2.079,4.207,4.539,4.207h2.53c2.238,0,4.166-1.616,4.478-3.754l0.03-0.191
				l6.847-5.121c0.062-0.03,0.11-0.09,0.142-0.141l0.301-0.401l0.402,0.211c0.562,0.301,0.924,0.853,0.924,1.445V49.309z"/>
		</g>
		<g>
			<path fill="#638EE1" d="M67.623,21.335c-0.115,0.219-0.101,0.488,0.037,0.704c0.137,0.214,0.38,0.341,0.649,0.341
				c11.722,0,11.856,11.995,11.856,12.505v7.238l-1.188,0.892l-0.316-0.359c-0.289-0.334-7.07-8.247-7.07-12.581
				c0-0.329-0.23-0.619-0.561-0.703c-0.313-0.084-0.672,0.055-0.854,0.327c-2.047,3.248-14.619,4.458-22.062,4.458
				c-0.416,0-0.753,0.326-0.753,0.728c0,1.963-0.955,5.901-2.045,8.428l-0.216,0.516l-0.501-0.285
				c-0.475-0.269-0.747-0.778-0.767-1.43c0-0.305-0.204-0.522-0.39-0.619l-0.236-0.136L43.191,41.1c0-0.143-0.03-0.37-0.07-0.683
				l-0.006-0.046c-0.325-2.662-1.311-10.764,3.772-16.256c3.236-3.493,8.317-5.29,15.103-5.339h0.21
				c4.376,0,5.352,1.163,5.501,1.395C67.9,20.485,67.875,20.866,67.623,21.335z"/>
		</g>
		<g>
			<defs>
				<path id="SVGID_1_" d="M78.832,90.248c2.365,0,4.29,1.861,4.29,4.149c0,2.29-1.925,4.153-4.29,4.153s-4.288-1.863-4.288-4.153
					C74.544,92.109,76.467,90.248,78.832,90.248z"/>
			</defs>
			<use xlink:href="#SVGID_1_"  overflow="visible" fill-rule="evenodd" clip-rule="evenodd" fill="#90AEEA"/>
			<clipPath id="SVGID_2_">
				<use xlink:href="#SVGID_1_"  overflow="visible"/>
			</clipPath>
			<g clip-path="url(#SVGID_2_)">
				<defs>
					<rect id="SVGID_3_" x="-75.934" y="-299.306" width="1800.104" height="2878.765"/>
				</defs>
				<use xlink:href="#SVGID_3_"  overflow="visible" fill="#90AEEA"/>
				<clipPath id="SVGID_4_">
					<use xlink:href="#SVGID_3_"  overflow="visible"/>
				</clipPath>
				<g clip-path="url(#SVGID_4_)">
					<rect x="67.512" y="83.217" fill="#90AEEA" width="22.643" height="20.83"/>
				</g>
			</g>
		</g>
		<g>
			<defs>
				<polygon id="SVGID_5_" points="51.883,74.232 50.5,83.592 62,90.546 				"/>
			</defs>
			<use xlink:href="#SVGID_5_"  overflow="visible" fill-rule="evenodd" clip-rule="evenodd" fill="#90AEEA"/>
			<clipPath id="SVGID_6_">
				<use xlink:href="#SVGID_5_"  overflow="visible"/>
			</clipPath>
			<g clip-path="url(#SVGID_6_)">
				<defs>
					<rect id="SVGID_7_" x="-1467.987" y="-264.043" width="1652.643" height="2642.941"/>
				</defs>
				<use xlink:href="#SVGID_7_"  overflow="visible" fill="#90AEEA"/>
				<clipPath id="SVGID_8_">
					<use xlink:href="#SVGID_7_"  overflow="visible"/>
				</clipPath>
				<g clip-path="url(#SVGID_8_)">
					<rect x="44.045" y="67.776" fill="#90AEEA" width="24.41" height="29.226"/>
				</g>
			</g>
		</g>
		<g>
			<defs>
				<polygon id="SVGID_9_" points="72.116,74.232 73.498,83.592 62,90.546 				"/>
			</defs>
			<use xlink:href="#SVGID_9_"  overflow="visible" fill-rule="evenodd" clip-rule="evenodd" fill="#90AEEA"/>
			<clipPath id="SVGID_10_">
				<use xlink:href="#SVGID_9_"  overflow="visible"/>
			</clipPath>
			<g clip-path="url(#SVGID_10_)">
				<defs>
					<rect id="SVGID_11_" x="-60.653" y="-264.028" width="1652.575" height="2642.828"/>
				</defs>
				<use xlink:href="#SVGID_11_"  overflow="visible" fill="#90AEEA"/>
				<clipPath id="SVGID_12_">
					<use xlink:href="#SVGID_11_"  overflow="visible"/>
				</clipPath>
				<g clip-path="url(#SVGID_12_)">
					<rect x="55.544" y="67.777" fill="#90AEEA" width="24.41" height="29.225"/>
				</g>
			</g>
		</g>
	</g>
</g>
</svg>
