<?xml version="1.0" encoding="utf-8"?>
<!-- Generator: Adobe Illustrator 15.0.0, SVG Export Plug-In . SVG Version: 6.00 Build 0)  -->
<!DOCTYPE svg PUBLIC "-//W3C//DTD SVG 1.1//EN" "http://www.w3.org/Graphics/SVG/1.1/DTD/svg11.dtd">
<svg version="1.1" id="Layer_1" xmlns="http://www.w3.org/2000/svg" xmlns:xlink="http://www.w3.org/1999/xlink" x="0px" y="0px"
	 width="124px" height="124px" viewBox="0 0 124 124" enable-background="new 0 0 124 124" xml:space="preserve">
<g>
	<g>
		<g>
			<path fill="#4D7EDD" d="M46.086,99.542v22.4c-0.393-0.101-0.793-0.212-1.185-0.341v-22.06H46.086z"/>
			<path fill="#4D7EDD" d="M84.069,77.925l-11.105-2.461v-4.136c-0.382,0.29-0.763,0.583-1.175,0.834v2.067l-7.479,3.735
				l-7.471-3.735l-0.181-2.811c-0.312-0.121-0.622-0.241-0.924-0.393c-0.08,0.01-0.161,0.01-0.241,0l0.161,0.122v4.315
				l-12.259,2.752V55.184H15.331v36.125H22.3l0.182,0.502c0.391,1.114,1.063,2.129,1.938,2.933l0.28,0.271l-1.667,12.039l2.4-0.955
				l3.936-1.314l1.185,0.471l1.175,0.463l4.106,1.616l-1.807-12.329l0.281-0.261c0.873-0.804,1.546-1.818,1.938-2.933l0.181-0.502
				h6.969V79.284l0.42-0.038l7.813,14.312v29.589c0.422,0.07,0.843,0.142,1.274,0.191c2.912,0.442,5.896,0.662,8.927,0.662h0.331
				c0.553,0,1.104-0.011,1.657-0.021c0.392-0.01,0.792-0.029,1.185-0.05c3.495-0.149,6.938-0.612,10.23-1.345
				c0.222-0.051,0.453-0.092,0.684-0.151c0.352-0.079,0.713-0.16,1.084-0.261V93.558l7.771-14.238l0.592,0.202
				c6.346,2.099,10.613,8.021,10.613,14.729v19.589c0.402-0.262,0.794-0.522,1.185-0.805V94.251
				C97.161,86.348,91.78,79.641,84.069,77.925z M42.221,90.134h-5.543v-0.753c0-4.037-3.283-7.32-7.31-7.32
				c-4.036,0-7.319,3.283-7.319,7.32v0.753h-5.532V56.367h25.704V90.134z M71.96,75.454l-3.905,7.18l-2.842-3.796L71.96,75.454z
				 M67.432,83.769l-3.122,5.723l-3.113-5.723l3.113-4.157L67.432,83.769z M63.416,78.838l-2.842,3.786l-3.916-7.17L63.416,78.838z"
				/>
			<path fill="#4D7EDD" d="M83.718,99.542v20.542c-0.392,0.15-0.784,0.292-1.176,0.433V99.542H83.718z"/>
			<path fill="#4D7EDD" d="M31.728,97.784v18.314c-0.392-0.222-0.782-0.442-1.175-0.673V97.784H31.728z"/>
		</g>
		<g>
			<path fill="#4D7EDD" d="M41.226,35.229l6.586,2.059l-0.1,0.643c-0.081,0.542-0.12,1.024-0.12,1.477v10.231h33.443V39.406
				c0-0.452-0.039-0.935-0.129-1.477l-0.101-0.643l7.109-2.218v5.352l-0.502,0.181c-1.307,0.46-2.188,1.695-2.188,3.071v3.284h6.565
				v-3.284c0-1.376-0.883-2.611-2.188-3.071L89.1,40.421V32.92c0-1.065-0.683-1.988-1.696-2.31L69.74,25.098
				c-3.504-1.104-7.359-1.104-10.853,0L41.226,30.61c-1.014,0.321-1.697,1.244-1.697,2.31
				C39.528,33.984,40.212,34.908,41.226,35.229z"/>
		</g>
	</g>
	<g>
		<path fill="#638EE1" d="M33.031,96.069l-0.93,0.366c-1.728,0.68-3.604,0.681-5.336,0l-0.902-0.355l-1.16,9.296l4.724-1.575
			l4.499,1.585L33.031,96.069z"/>
	</g>
	<g>
		<path fill="#90AEEA" d="M87.145,31.771l-17.657-5.519c-3.298-1.029-6.859-1.029-10.156,0l-17.663,5.52
			c-0.516,0.165-0.862,0.639-0.862,1.179c0,0.543,0.349,1.017,0.867,1.181l17.658,5.519c1.638,0.512,3.348,0.771,5.077,0.771
			c1.73,0,3.439-0.259,5.079-0.771l17.663-5.519c0.516-0.166,0.862-0.641,0.862-1.181C88.013,32.41,87.665,31.936,87.145,31.771z"/>
	</g>
	<g>
		<path fill="#90AEEA" d="M79.947,39.441c0-0.283-0.029-0.572-0.059-0.858l-0.097-0.914l-9.954,3.108
			c-3.514,1.102-7.343,1.102-10.859,0l-9.944-3.108l-0.102,0.906c-0.032,0.288-0.062,0.579-0.062,0.866v9.049h31.076V39.441z"/>
	</g>
	<g>
		<path fill="#638EE1" d="M29.435,83.281c-3.527,0-6.396,2.754-6.396,6.141c0,3.386,2.869,6.141,6.396,6.141
			c3.528,0,6.397-2.755,6.397-6.141C35.832,86.035,32.963,83.281,29.435,83.281z"/>
	</g>
	<g>
		<path fill="#90AEEA" d="M63.817,90.827v33.152c-0.553,0.01-1.104,0.021-1.657,0.021h-0.331c-3.031,0-6.015-0.22-8.927-0.662
			V93.217l-7.761-14.229l10.895-2.419L63.817,90.827z"/>
	</g>
	<g>
		<path fill="#90AEEA" d="M83.677,78.988l-7.761,14.229v29.217c-0.23,0.06-0.462,0.101-0.684,0.151
			c-3.292,0.732-6.735,1.195-10.23,1.345V90.827l7.781-14.258L83.677,78.988z"/>
	</g>
	<g>
		<path fill="#4D7EDD" d="M81.586,48.887l-0.2-0.069h-5.121c0.812,1.048,1.409,1.75,1.427,1.768l0.275,0.326l-3.11,2.345
			l-0.189-0.569c-0.372-1.129-1.448-1.887-2.68-1.887h-4.334c-1.517,0-2.749,1.146-2.809,2.575h-0.87
			c-0.061-1.43-1.292-2.575-2.809-2.575h-4.344c-1.224,0-2.3,0.758-2.671,1.887l-0.181,0.552l-2.817-2.017l0.13-0.293
			c0.269-0.622,0.529-1.351,0.77-2.111c0,0-4.013-0.327-5.276,0.276c-0.905,0.432-1.431,1.369-1.431,2.317v4.127
			c0,1.249,0.879,2.318,2.137,2.62l0.216,0.051l0.086,0.198c0.327,0.81,3.223,7.996,5.248,10.899l0.181,0.268
			c1.345,1.93,3.6,5.17,11.201,5.17c7.608,0,9.848-3.249,11.192-5.188l0.172-0.25c1.801-2.56,4.274-8.47,5.247-10.899l0.095-0.198
			l0.216-0.051c1.258-0.302,2.137-1.371,2.137-2.62v-4.127C83.473,50.273,82.714,49.257,81.586,48.887z M66.137,53.487
			c0.009-0.801,0.689-1.447,1.517-1.447h4.334c0.835,0,1.508,0.646,1.508,1.447v1.034c0,1.361-1.155,2.464-2.585,2.464h-2.17
			c-1.432,0-2.604-1.103-2.604-2.464V53.487z M55.324,53.487c0-0.801,0.671-1.447,1.498-1.447h4.344
			c0.827,0,1.509,0.646,1.509,1.447v1.034c0,1.361-1.165,2.464-2.595,2.464h-2.171c-1.432,0-2.585-1.103-2.585-2.464V53.487z
			 M82.173,55.538c0,0.801-0.683,1.447-1.518,1.447c-0.275,0-0.525,0.173-0.612,0.396c0,0.01-0.018,0.061-0.051,0.139
			c-1.008,2.498-3.532,8.572-5.301,11.097l-0.181,0.268c-1.274,1.836-3.204,4.618-10.097,4.618c-6.901,0-8.833-2.782-10.116-4.627
			l-0.172-0.259c-2.11-3.007-5.325-11.149-5.352-11.226c-0.094-0.241-0.343-0.406-0.611-0.406c-0.836,0-1.517-0.646-1.517-1.447
			v-4.127c0-0.361,0.155-0.715,0.431-1l0.448-0.431l0.259,0.551c0.284,0.612,0.896,1.362,2.188,1.483l0.12,0.018l3.947,2.816
			l0.025,0.164c0.259,1.835,1.912,3.222,3.844,3.222h2.171c2.11,0,3.834-1.61,3.895-3.61h0.87c0.06,2,1.783,3.61,3.896,3.61h2.17
			c1.922,0,3.576-1.387,3.842-3.222l0.027-0.164l5.876-4.394c0.052-0.026,0.095-0.078,0.121-0.121l0.258-0.344l0.346,0.181
			c0.481,0.258,0.793,0.731,0.793,1.24V55.538z"/>
	</g>
	<g>
		<path fill="#4D7EDD" d="M38.13,63.502h-8.05c-0.416,0-0.753-0.337-0.753-0.753s0.337-0.753,0.753-0.753h8.05
			c0.416,0,0.753,0.337,0.753,0.753S38.546,63.502,38.13,63.502z"/>
	</g>
	<g>
		<path fill="#4D7EDD" d="M38.13,68.836H20.74c-0.416,0-0.754-0.337-0.754-0.753s0.338-0.753,0.754-0.753h17.39
			c0.416,0,0.753,0.337,0.753,0.753S38.546,68.836,38.13,68.836z"/>
	</g>
	<g>
		<path fill="#4D7EDD" d="M38.13,73.795H20.74c-0.416,0-0.754-0.337-0.754-0.753c0-0.415,0.338-0.753,0.754-0.753h17.39
			c0.416,0,0.753,0.338,0.753,0.753C38.883,73.458,38.546,73.795,38.13,73.795z"/>
	</g>
	<g>
		<path fill="#4D7EDD" d="M38.13,78.176H20.739c-0.416,0-0.754-0.337-0.754-0.753c0-0.415,0.338-0.753,0.754-0.753H38.13
			c0.416,0,0.753,0.338,0.753,0.753C38.883,77.839,38.546,78.176,38.13,78.176z"/>
	</g>
	<g>
		<path fill="#4D7EDD" d="M62.16,0h-0.331C27.731,0,0,27.813,0,61.99c0,22.189,12.039,42.481,30.553,53.436
			c0.393,0.23,0.783,0.451,1.175,0.673c3.926,2.208,8.133,4.006,12.562,5.311c0.201,0.07,0.41,0.131,0.612,0.192
			c0.392,0.129,0.792,0.24,1.185,0.341c0.884,0.251,1.776,0.461,2.661,0.643c0.953,0.211,1.907,0.4,2.881,0.562
			c0.422,0.07,0.843,0.142,1.274,0.191c2.912,0.442,5.896,0.662,8.927,0.662h0.331c0.553,0,1.104-0.011,1.657-0.021
			c0.392-0.01,0.792-0.029,1.185-0.05c3.495-0.149,6.938-0.612,10.23-1.345c0.222-0.051,0.453-0.092,0.684-0.151
			c0.352-0.079,0.713-0.16,1.084-0.261c0.844-0.201,1.728-0.442,2.661-0.723c0.975-0.292,1.928-0.603,2.881-0.934
			c0.392-0.141,0.784-0.282,1.176-0.433c4.357-1.626,8.464-3.725,12.259-6.244c0.402-0.262,0.794-0.522,1.185-0.805
			C113.557,101.659,124,82.634,124,61.99C124,27.813,96.259,0,62.16,0z M97.161,111.198c-0.391,0.282-0.792,0.563-1.185,0.823
			c-3.785,2.601-7.892,4.77-12.259,6.446c-0.392,0.16-0.784,0.302-1.176,0.452c-1.094,0.391-2.199,0.753-3.313,1.084
			c-0.782,0.23-1.516,0.442-2.229,0.613c-0.371,0.1-0.732,0.189-1.084,0.271c-0.342,0.08-0.674,0.15-0.994,0.222
			c-3.203,0.711-6.536,1.153-9.92,1.314c-0.393,0.021-0.793,0.04-1.185,0.05c-0.553,0.01-1.104,0.02-1.657,0.02h-0.331
			c-3.031,0-6.015-0.22-8.927-0.673c-0.432-0.06-0.853-0.129-1.274-0.209c-0.863-0.142-1.717-0.313-2.57-0.502
			c-0.994-0.202-1.978-0.442-2.972-0.724c-0.393-0.11-0.793-0.231-1.185-0.361c-0.061-0.01-0.11-0.03-0.171-0.051
			c-4.609-1.355-8.966-3.253-13.003-5.603c-0.401-0.23-0.782-0.461-1.175-0.702C12.922,102.885,1.506,83.326,1.506,61.99
			c0-33.354,27.06-60.484,60.323-60.484h0.331c33.266,0,60.333,27.13,60.333,60.484C122.493,81.77,112.665,100.034,97.161,111.198z"
			/>
	</g>
</g>
</svg>
