<?xml version="1.0" encoding="UTF-8"?>
<svg width="32px" height="32px" viewBox="0 0 32 32" version="1.1" xmlns="http://www.w3.org/2000/svg" xmlns:xlink="http://www.w3.org/1999/xlink">
    <!-- Generator: Sketch 41 (35326) - http://www.bohemiancoding.com/sketch -->
    <title>Page 1 Copy 3</title>
    <desc>Created with Sketch.</desc>
    <defs></defs>
    <g id="Page-1" stroke="none" stroke-width="1" fill="none" fill-rule="evenodd" opacity="0.802819293">
        <g id="Resort" transform="translate(-32.000000, -1398.000000)" fill="#4D7EDD">
            <g id="Group-10" transform="translate(25.000000, 1184.000000)">
                <g id="Page-1-Copy-3" transform="translate(7.000000, 214.000000)">
                    <path d="M19.8922449,30.3203333 C19.5467755,30.4263333 19.2,30.5203333 18.8473469,30.593 C17.8481633,30.8203333 16.8097959,30.9336667 15.7518367,30.9336667 L15.6734694,30.9336667 C14.6155102,30.9336667 13.5771429,30.8203333 12.5786122,30.593 C12.2259592,30.5203333 11.8733061,30.4263333 11.5265306,30.313 C5.47265306,28.4936667 1.04555102,22.7596667 1.04555102,16.0003333 C1.04555102,7.76633333 7.60816327,1.067 15.6734694,1.067 L15.7518367,1.067 C23.8177959,1.067 30.3810612,7.76633333 30.3810612,16.0003333 C30.3810612,22.767 25.9526531,28.4936667 19.8922449,30.3203333 M15.7518367,0.000333333333 L15.6734694,0.000333333333 C7.03412245,0.000333333333 0,7.18033333 0,16.0003333 C0,23.3536667 4.89142857,29.5663333 11.5265306,31.4263333 C11.8733061,31.527 12.2259592,31.613 12.5786122,31.687 C13.5771429,31.893 14.6155102,32.0003333 15.6734694,32.0003333 L15.7518367,32.0003333 C16.8097959,32.0003333 17.8481633,31.893 18.8473469,31.687 C19.2,31.613 19.5467755,31.527 19.8922449,31.4263333 C26.5338776,29.5736667 31.4253061,23.3536667 31.4253061,16.0003333 C31.4253061,7.18033333 24.3924898,0.000333333333 15.7518367,0.000333333333" id="Fill-1"></path>
                    <g id="Page-1" transform="translate(3.111111, 4.000000)">
                        <path d="M19.585742,12.1468611 C18.917942,12.1468611 18.322942,12.4565833 17.923942,12.9329722 L15.374542,11.6690833 C15.402542,11.5065833 15.423542,11.3385278 15.423542,11.1649167 C15.423542,10.2704722 14.969942,9.48852778 14.281142,9.01075 L15.916342,4.43158333 C17.113342,4.43158333 18.087742,3.46075 18.087742,2.27325 C18.087742,1.08436111 17.107742,0.113527778 15.910742,0.113527778 C14.713742,0.113527778 13.733742,1.08436111 13.733742,2.27325 C13.733742,3.08713889 14.192942,3.78713889 14.866342,4.15519444 L13.291342,8.59269444 C13.121942,8.56075 12.958142,8.53852778 12.783142,8.53852778 C11.387342,8.53852778 10.250542,9.62463889 10.156742,10.98575 L5.67814195,12.0274167 C5.39954195,11.1538056 4.58474195,10.5079722 3.61174195,10.5079722 C2.41334195,10.5079722 1.43474195,11.4801944 1.43474195,12.6676944 C1.43474195,13.86075 2.41334195,14.8274167 3.61174195,14.8274167 C4.65614195,14.8274167 5.53674195,14.0885278 5.73834195,13.1121389 L10.310742,12.0496389 C10.671942,13.0315833 11.601542,13.7371389 12.706142,13.7746389 L12.973542,19.8399167 C12.301542,20.2038056 11.831142,20.9093611 11.831142,21.7274167 C11.831142,22.9163056 12.809742,23.8871389 14.008142,23.8871389 C15.210742,23.8871389 16.183742,22.9163056 16.183742,21.7274167 C16.183742,20.5621389 15.248542,19.6176944 14.083742,19.5746389 L13.816342,13.5676944 C14.275542,13.37325 14.663342,13.0524167 14.947542,12.6510278 L17.453542,13.8940833 C17.431142,14.0288056 17.408742,14.1649167 17.408742,14.3065833 C17.408742,15.4940833 18.388742,16.4649167 19.591342,16.4649167 C20.788342,16.4649167 21.768342,15.4940833 21.768342,14.3065833 C21.768342,13.1176944 20.788342,12.1468611 19.585742,12.1468611" id="Fill-1"></path>
                    </g>
                </g>
            </g>
        </g>
    </g>
</svg>