<?xml version="1.0" encoding="UTF-8"?>
<svg width="32px" height="32px" viewBox="0 0 32 32" version="1.1" xmlns="http://www.w3.org/2000/svg" xmlns:xlink="http://www.w3.org/1999/xlink">
    <!-- Generator: Sketch 41 (35326) - http://www.bohemiancoding.com/sketch -->
    <title>Page 1</title>
    <desc>Created with Sketch.</desc>
    <defs>
        <polygon id="path-1" points="16.0000667 32 32 32 32 0 16.0000667 0 0.000133333333 0 0.000133333333 32"></polygon>
    </defs>
    <g id="Page-1" stroke="none" stroke-width="1" fill="none" fill-rule="evenodd">
        <g id="Resort" transform="translate(-32.000000, -1342.000000)">
            <g id="Group-10" transform="translate(25.000000, 1184.000000)">
                <g id="Page-1" transform="translate(7.000000, 158.000000)">
                    <mask id="mask-2" fill="white">
                        <use xlink:href="#path-1"></use>
                    </mask>
                    <g id="Clip-2"></g>
                    <path d="M20.7994667,30.138 L20.7994667,24.534 C20.7994667,23.7133333 20.4894667,22.966 19.9841333,22.4013333 L21.3334667,22.4013333 C24.5674667,22.4013333 27.2008,19.768 27.2008,16.534 C27.2008,14.1693333 25.7941333,12.1273333 23.7761333,11.2006667 C25.7214667,10.3046667 27.0914667,8.38 27.1901333,6.12733333 C29.5154667,8.76066667 30.9321333,12.2186667 30.9321333,16 C30.9321333,22.5546667 26.6848,28.1326667 20.7994667,30.138 M1.06813333,16 C1.06813333,11.2653333 3.28413333,7.044 6.72946667,4.30733333 C7.29213333,4.974 7.98213333,5.508 8.7608,5.86466667 C6.73946667,6.794 5.33346667,8.836 5.33346667,11.2006667 C5.33346667,13.5626667 6.7368,15.604 8.75813333,16.534 C6.7368,17.4606667 5.33346667,19.5026667 5.33346667,21.8673333 C5.33346667,25.1013333 7.96613333,27.7346667 11.2008,27.7346667 L13.8674667,27.7346667 L13.8674667,30.7786667 C6.6408,29.7393333 1.06813333,23.5106667 1.06813333,16 M26.1328,5.86733333 C26.1328,8.51333333 23.9794667,10.6666667 21.3334667,10.6666667 L10.1328,10.6666667 C9.8388,10.6666667 9.5988,10.906 9.5988,11.2006667 C9.5988,11.4946667 9.8388,11.7346667 10.1328,11.7346667 L21.3334667,11.7346667 C23.9794667,11.7346667 26.1328,13.8853333 26.1328,16.534 C26.1328,19.18 23.9794667,21.3333333 21.3334667,21.3333333 L10.6668,21.3333333 C10.3728,21.3333333 10.1328,21.5726667 10.1328,21.8673333 C10.1328,22.1613333 10.3728,22.4013333 10.6668,22.4013333 L17.5988,22.4013333 C18.7761333,22.4013333 19.7341333,23.3566667 19.7341333,24.534 L19.7341333,30.458 C19.3621333,30.5546667 18.9868,30.6326667 18.6094667,30.7006667 C18.5754667,30.706 18.5388,30.7133333 18.5028,30.7186667 C18.1354667,30.7813333 17.7681333,30.8306667 17.3981333,30.8646667 C17.3514667,30.87 17.3021333,30.8726667 17.2554667,30.8773333 C16.9268,30.9033333 16.5988,30.9193333 16.2708,30.9273333 C16.2108,30.9273333 16.1514667,30.9293333 16.0914667,30.932 C15.7368,30.932 15.3828,30.922 15.0288,30.8986667 C14.9974667,30.896 14.9661333,30.8933333 14.9348,30.8906667 L14.9348,27.2006667 C14.9348,26.906 14.6954667,26.6666667 14.4014667,26.6666667 L11.2008,26.6666667 C8.5548,26.6666667 6.40146667,24.5126667 6.40146667,21.8673333 C6.40146667,19.2186667 8.5548,17.068 11.2008,17.068 L22.4008,17.068 C22.6954667,17.068 22.9348,16.828 22.9348,16.534 C22.9348,16.2393333 22.6954667,16 22.4008,16 L11.2008,16 C8.55213333,16 6.40146667,13.8466667 6.40146667,11.2006667 C6.40146667,8.552 8.55213333,6.40133333 11.2008,6.40133333 L22.4008,6.40133333 C22.6954667,6.40133333 22.9321333,6.16133333 22.9321333,5.86733333 C22.9321333,5.57266667 22.6954667,5.33333333 22.4008,5.33333333 L11.2008,5.33333333 C9.8048,5.33333333 8.4868,4.72133333 7.57813333,3.67466667 C7.66413333,3.61733333 7.7528,3.56 7.8388,3.50266667 C8.0028,3.396 8.1668,3.28933333 8.33613333,3.19 C8.47946667,3.104 8.6228,3.02066667 8.7708,2.94 C8.90146667,2.86733333 9.03413333,2.79666667 9.1668,2.72933333 C9.40346667,2.604 9.64346667,2.48933333 9.88813333,2.38 C10.0234667,2.318 10.1561333,2.258 10.2941333,2.20066667 C10.4508,2.13533333 10.6094667,2.07266667 10.7708,2.01333333 C10.9248,1.956 11.0808,1.90133333 11.2368,1.84866667 C11.4534667,1.776 11.6721333,1.708 11.8961333,1.64333333 C12.0754667,1.594 12.2581333,1.54133333 12.4401333,1.49733333 C12.5728,1.466 12.7081333,1.43466667 12.8441333,1.40333333 C13.1068,1.34866667 13.3728,1.29666667 13.6408,1.25533333 C13.7268,1.23933333 13.8154667,1.22933333 13.9034667,1.216 C14.1748,1.17733333 14.4454667,1.14866667 14.7188,1.12533333 C14.8154667,1.11733333 14.9088,1.10933333 15.0054667,1.10133333 C15.3334667,1.08333333 15.6668,1.068 16.0001333,1.068 C16.2441333,1.068 16.4894667,1.07266667 16.7314667,1.086 C16.8174667,1.08866667 16.9034667,1.09666667 16.9894667,1.104 C17.1461333,1.112 17.3021333,1.12533333 17.4581333,1.138 C17.5601333,1.14866667 17.6588,1.16133333 17.7601333,1.17466667 C17.8981333,1.19 18.0388,1.206 18.1768,1.22666667 C18.2814667,1.242 18.3828,1.26066667 18.4868,1.276 C18.6221333,1.29933333 18.7554667,1.32266667 18.8881333,1.34866667 C18.9894667,1.37 19.0888,1.39066667 19.1874667,1.41133333 C19.3254667,1.44266667 19.4634667,1.474 19.5988,1.508 C19.6901333,1.53133333 19.7841333,1.55466667 19.8748,1.578 C20.0181333,1.61733333 20.1641333,1.65866667 20.3074667,1.70066667 C20.3854667,1.72666667 20.4661333,1.75 20.5468,1.776 C20.7028,1.82533333 20.8594667,1.88 21.0128,1.93466667 C21.0754667,1.956 21.1408,1.97933333 21.2028,2.00266667 C21.3774667,2.068 21.5494667,2.13533333 21.7214667,2.208 C21.7628,2.224 21.8074667,2.242 21.8488,2.26066667 C22.0468,2.344 22.2394667,2.432 22.4321333,2.52333333 L22.4841333,2.54933333 C23.7861333,3.18 24.9841333,3.992 26.0441333,4.956 C26.1041333,5.26533333 26.1328,5.57 26.1328,5.86733333 M32.0001333,16 C32.0001333,11.3986667 30.0441333,7.24733333 26.9248,4.32533333 C26.9114667,4.31266667 26.9034667,4.294 26.8908,4.28133333 C25.8981333,3.35933333 24.8021333,2.578 23.6381333,1.94266667 C23.6221333,1.93466667 23.6068,1.92733333 23.5908,1.91933333 C23.3854667,1.80733333 23.1794667,1.70333333 22.9688,1.59866667 C22.9374667,1.58333333 22.9034667,1.57 22.8721333,1.552 C22.6794667,1.46066667 22.4841333,1.37266667 22.2888,1.28933333 C22.2394667,1.268 22.1874667,1.24733333 22.1354667,1.22666667 C21.9581333,1.15133333 21.7788,1.08066667 21.5961333,1.01333333 C21.5288,0.986666667 21.4581333,0.960666667 21.3908,0.937333333 C21.2241333,0.877333333 21.0574667,0.82 20.8908,0.768 C20.8074667,0.739333333 20.7214667,0.713333333 20.6381333,0.687333333 C20.4814667,0.640666667 20.3281333,0.596666667 20.1721333,0.554666667 C20.0728,0.528666667 19.9768,0.502666667 19.8774667,0.479333333 C19.7314667,0.44 19.5834667,0.406 19.4348,0.374666667 C19.3281333,0.351333333 19.2214667,0.328 19.1148,0.307333333 C18.9714667,0.278666667 18.8254667,0.252666667 18.6794667,0.229333333 C18.5674667,0.208 18.4581333,0.19 18.3461333,0.174666667 C18.1981333,0.151333333 18.0494667,0.135333333 17.8981333,0.117333333 C17.7888,0.104 17.6821333,0.0886666667 17.5701333,0.078 C17.4034667,0.06 17.2368,0.0493333333 17.0674667,0.0393333333 C16.9768,0.034 16.8828,0.0233333333 16.7914667,0.018 C16.5288,0.008 16.2654667,0 16.0001333,0 C15.6201333,0 15.2421333,0.018 14.8701333,0.044 C14.7734667,0.052 14.6774667,0.0573333333 14.5808,0.0653333333 C14.2268,0.0966666667 13.8748,0.138 13.5261333,0.192666667 C13.4274667,0.206 13.3308,0.226666667 13.2348,0.244666667 C12.9741333,0.289333333 12.7134667,0.341333333 12.4588,0.401333333 C12.3281333,0.43 12.1954667,0.458666667 12.0654667,0.492 C11.7654667,0.568 11.4688,0.651333333 11.1774667,0.744666667 C11.0208,0.794 10.8674667,0.848666667 10.7108,0.903333333 C10.5234667,0.968666667 10.3361333,1.03933333 10.1488,1.112 C9.9248,1.20066667 9.70346667,1.294 9.4848,1.39333333 C9.29413333,1.47933333 9.1068,1.56533333 8.92213333,1.656 C8.76813333,1.732 8.6148,1.81 8.46346667,1.89066667 C8.20346667,2.03133333 7.94813333,2.17466667 7.69546667,2.328 C7.5628,2.41133333 7.43213333,2.49733333 7.29946667,2.58333333 C7.12013333,2.70066667 6.94013333,2.82266667 6.76546667,2.948 C6.67746667,3.01066667 6.58346667,3.06533333 6.4948,3.13 C6.4868,3.13533333 6.48213333,3.146 6.47413333,3.15333333 C2.54946667,6.07266667 0.000133333333,10.742 0.000133333333,16 C0.000133333333,24.2626667 6.2968,31.0833333 14.3414667,31.914 L14.3468,31.914 C14.3488,31.9166667 14.3514667,31.9166667 14.3568,31.9166667 C14.8961333,31.9713333 15.4454667,32 16.0001333,32 C16.3414667,32 16.6794667,31.9846667 17.0154667,31.9633333 C17.0961333,31.958 17.1748,31.9533333 17.2554667,31.9453333 C17.5521333,31.9246667 17.8461333,31.8933333 18.1381333,31.8513333 C18.1794667,31.8466667 18.2214667,31.844 18.2654667,31.836 C18.9768,31.7346667 19.6748,31.586 20.3514667,31.3933333 L20.4141333,31.3773333 C20.4168,31.3773333 20.4221333,31.3726667 20.4248,31.3726667 C27.1014667,29.448 32.0001333,23.2866667 32.0001333,16" id="Fill-1" fill="#4D7EDD" mask="url(#mask-2)"></path>
                </g>
            </g>
        </g>
    </g>
</svg>