<?xml version="1.0" encoding="UTF-8"?>
<svg width="32px" height="32px" viewBox="0 0 32 32" version="1.1" xmlns="http://www.w3.org/2000/svg" xmlns:xlink="http://www.w3.org/1999/xlink">
    <!-- Generator: Sketch 41 (35326) - http://www.bohemiancoding.com/sketch -->
    <title>Page 1 Copy 6</title>
    <desc>Created with Sketch.</desc>
    <defs></defs>
    <g id="Page-1" stroke="none" stroke-width="1" fill="none" fill-rule="evenodd" opacity="0.802819293">
        <g id="Resort" transform="translate(-641.000000, -1398.000000)" fill="#4D7EDD">
            <g id="Group-10" transform="translate(25.000000, 1184.000000)">
                <g id="Page-1-Copy-6" transform="translate(616.000000, 214.000000)">
                    <path d="M15.5550796,24.7322826 C14.3506404,23.1731091 11.426293,19.9035446 7.43174779,18.811801 C7.54907469,18.4595897 7.67941276,18.1116562 7.81603014,17.7651114 C9.48332791,18.8606328 12.2638169,19.555611 15.5555321,19.555611 C18.8434006,19.555611 21.6277364,18.864466 23.2975232,17.7717779 C23.4331223,18.1159338 23.5624987,18.4619786 23.6788639,18.811801 C19.6838096,19.9035446 16.7594622,23.1731091 15.5550796,24.7322826 Z M23.1043921,1.84599771 C22.7423419,1.6786696 22.3108233,1.83227591 22.1403768,2.18687595 C19.1943064,8.33529495 20.886778,12.1997853 22.5236975,15.9376685 C22.593675,16.0969413 22.6622383,16.2557697 22.7317632,16.4150425 C21.4920807,17.3526799 18.838083,18.1334333 15.5550796,18.1334333 C12.2696437,18.1334333 9.6180219,17.3517355 8.37935764,16.4131537 C8.44837346,16.2547697 8.51693671,16.0969413 8.58646167,15.9376685 C10.2233812,12.1997853 11.915287,8.33529495 8.96972575,2.18687595 C8.79882674,1.83177593 8.36776072,1.67772519 8.00571051,1.84599771 C7.6436603,2.01332581 7.48871413,2.4371459 7.65865145,2.79269035 C10.3280929,8.36184968 8.83599346,11.7688543 7.25654944,15.3754083 C5.54382568,19.2868417 3.77272133,23.3314375 7.68999142,29.8714554 C7.82519454,30.097115 8.06703276,30.2222222 8.3151503,30.2222222 C8.43966162,30.2222222 8.56615291,30.1909454 8.68155642,30.1241142 C9.02669209,29.9250093 9.14107733,29.4889118 8.93883835,29.1504224 C6.71635922,25.4395383 6.4972057,22.663014 7.04752201,20.1837581 C11.2303333,21.3333333 14.2420253,25.3375971 14.8314317,26.1742931 L14.8314317,29.5106889 C14.8314317,29.9036766 15.1553535,30.2217778 15.5555321,30.2217778 C15.9557108,30.2217778 16.2796325,29.9036766 16.2796325,29.5106889 L16.2796325,26.1729043 C16.8902528,25.3072647 19.8913662,21.324278 24.0626371,20.1799249 C24.613406,22.6606807 24.3956668,25.4376495 22.1722825,29.1504224 C21.9699869,29.4884118 22.0844288,29.9245649 22.4295644,30.1241142 C22.5449114,30.1909454 22.6714026,30.2222222 22.795914,30.2222222 C23.0440881,30.2222222 23.2859263,30.097115 23.4210729,29.8714554 C27.3383995,23.3314375 25.5672952,19.2872861 23.8545714,15.3754083 C22.2741091,11.7688543 20.7820097,8.36184968 23.4515077,2.79269035 C23.6213884,2.4371459 23.4664423,2.01332581 23.1043921,1.84599771 Z M15.30629,14.2222222 C15.8061926,14.2222222 16.2114438,13.8242531 16.2114438,13.3333333 C16.2114438,12.8424136 15.8061926,12.4444444 15.30629,12.4444444 C14.8063873,12.4444444 14.4011362,12.8424136 14.4011362,13.3333333 C14.4011362,13.8242531 14.8063873,14.2222222 15.30629,14.2222222 Z" id="Fill-1" stroke="#FFFFFF" stroke-width="0.4"></path>
                    <path d="M19.8922449,30.3203333 C19.5467755,30.4263333 19.2,30.5203333 18.8473469,30.593 C17.8481633,30.8203333 16.8097959,30.9336667 15.7518367,30.9336667 L15.6734694,30.9336667 C14.6155102,30.9336667 13.5771429,30.8203333 12.5786122,30.593 C12.2259592,30.5203333 11.8733061,30.4263333 11.5265306,30.313 C5.47265306,28.4936667 1.04555102,22.7596667 1.04555102,16.0003333 C1.04555102,7.76633333 7.60816327,1.067 15.6734694,1.067 L15.7518367,1.067 C23.8177959,1.067 30.3810612,7.76633333 30.3810612,16.0003333 C30.3810612,22.767 25.9526531,28.4936667 19.8922449,30.3203333 M15.7518367,0.000333333333 L15.6734694,0.000333333333 C7.03412245,0.000333333333 0,7.18033333 0,16.0003333 C0,23.3536667 4.89142857,29.5663333 11.5265306,31.4263333 C11.8733061,31.527 12.2259592,31.613 12.5786122,31.687 C13.5771429,31.893 14.6155102,32.0003333 15.6734694,32.0003333 L15.7518367,32.0003333 C16.8097959,32.0003333 17.8481633,31.893 18.8473469,31.687 C19.2,31.613 19.5467755,31.527 19.8922449,31.4263333 C26.5338776,29.5736667 31.4253061,23.3536667 31.4253061,16.0003333 C31.4253061,7.18033333 24.3924898,0.000333333333 15.7518367,0.000333333333" id="Fill-1"></path>
                </g>
            </g>
        </g>
    </g>
</svg>