<?xml version="1.0" encoding="UTF-8"?>
<svg width="32px" height="32px" viewBox="0 0 32 32" version="1.1" xmlns="http://www.w3.org/2000/svg" xmlns:xlink="http://www.w3.org/1999/xlink">
    <!-- Generator: Sketch 41 (35326) - http://www.bohemiancoding.com/sketch -->
    <title>Page 1 Copy 4</title>
    <desc>Created with Sketch.</desc>
    <defs></defs>
    <g id="Page-1" stroke="none" stroke-width="1" fill="none" fill-rule="evenodd" opacity="0.802819293">
        <g id="Resort" transform="translate(-32.000000, -1510.000000)" fill="#4D7EDD">
            <g id="Group-10" transform="translate(25.000000, 1184.000000)">
                <g id="Page-1-Copy-4" transform="translate(7.000000, 326.000000)">
                    <path d="M19.8922449,30.3203333 C19.5467755,30.4263333 19.2,30.5203333 18.8473469,30.593 C17.8481633,30.8203333 16.8097959,30.9336667 15.7518367,30.9336667 L15.6734694,30.9336667 C14.6155102,30.9336667 13.5771429,30.8203333 12.5786122,30.593 C12.2259592,30.5203333 11.8733061,30.4263333 11.5265306,30.313 C5.47265306,28.4936667 1.04555102,22.7596667 1.04555102,16.0003333 C1.04555102,7.76633333 7.60816327,1.067 15.6734694,1.067 L15.7518367,1.067 C23.8177959,1.067 30.3810612,7.76633333 30.3810612,16.0003333 C30.3810612,22.767 25.9526531,28.4936667 19.8922449,30.3203333 M15.7518367,0.000333333333 L15.6734694,0.000333333333 C7.03412245,0.000333333333 0,7.18033333 0,16.0003333 C0,23.3536667 4.89142857,29.5663333 11.5265306,31.4263333 C11.8733061,31.527 12.2259592,31.613 12.5786122,31.687 C13.5771429,31.893 14.6155102,32.0003333 15.6734694,32.0003333 L15.7518367,32.0003333 C16.8097959,32.0003333 17.8481633,31.893 18.8473469,31.687 C19.2,31.613 19.5467755,31.527 19.8922449,31.4263333 C26.5338776,29.5736667 31.4253061,23.3536667 31.4253061,16.0003333 C31.4253061,7.18033333 24.3924898,0.000333333333 15.7518367,0.000333333333" id="Fill-1"></path>
                    <path d="M23.6670401,8.60474965 C22.6980401,6.50674965 20.7760401,5.43274965 19.3000401,5.12774965 C15.7450401,4.38974965 13.0380401,4.88174965 11.2530401,6.57674965 C8.22504007,9.45174965 8.98704007,14.6947496 9.02204007,14.9167496 C9.05804007,15.1317496 9.26504007,15.2847496 9.47904007,15.2487496 C9.69804007,15.2177496 9.84704007,15.0107496 9.81104007,14.7957496 C9.80404007,14.7447496 9.08104007,9.74174965 11.8040401,7.15574965 C13.3900401,5.65174965 15.8580401,5.23374965 19.1360401,5.91274965 C20.4210401,6.17874965 22.0930401,7.11274965 22.9400401,8.94474965 C24.0070401,11.2487496 23.4800401,14.4597496 21.4170401,18.2297496 C20.8540401,19.2567496 20.6400401,20.1157496 20.4170401,21.0297496 C20.1710401,22.0377496 19.8900401,23.1827496 19.0620401,24.8427496 C18.5690401,25.8227496 16.8970401,26.5067496 15.2410401,26.3937496 C14.4750401,26.3427496 12.6240401,26.0217496 11.9680401,24.1197496 C11.1940401,22.7687496 10.2180401,20.2917496 10.8740401,19.4007496 C11.2570401,18.8897496 12.2020401,18.9797496 12.9170401,19.1397496 C13.0890401,19.2447496 13.2960401,20.0257496 13.4210401,20.4947496 C13.7180401,21.6157496 14.0690401,22.8697496 14.9830401,22.8037496 C15.0420401,22.8037496 16.3930401,22.9167496 16.9330401,22.0027496 C17.3620401,21.2797496 17.1360401,20.2367496 16.2410401,18.8187496 C16.9400401,18.1467496 18.7220401,16.1987496 17.8780401,14.4797496 C17.6160401,13.9407496 16.7680401,13.1947496 15.6980401,13.1947496 L15.6710401,13.1947496 C15.0650401,13.2017496 14.2530401,13.4597496 13.5420401,14.5187496 C13.2220401,13.5457496 12.8310401,11.8547496 13.3900401,10.5807496 C13.7060401,9.86274965 14.2800401,9.37774965 15.1400401,9.10074965 C15.7800401,8.89374965 17.9250401,8.68674965 19.1750401,9.84674965 C20.1900401,10.7877496 20.4290401,12.4287496 19.8780401,14.7257496 C19.8310401,14.9447496 19.9640401,15.1557496 20.1750401,15.2097496 C20.3940401,15.2647496 20.6040401,15.1277496 20.6590401,14.9127496 C21.2800401,12.3157496 20.9640401,10.4167496 19.7220401,9.26074965 C18.0770401,7.73774965 15.4990401,8.14774965 14.8970401,8.33874965 C13.8190401,8.68674965 13.0650401,9.33074965 12.6550401,10.2607496 C11.6790401,12.4797496 13.0460401,15.5107496 13.1080401,15.6357496 C13.1710401,15.7807496 13.3150401,15.8697496 13.4720401,15.8697496 C13.6240401,15.8697496 13.7680401,15.7807496 13.8350401,15.6397496 C14.3230401,14.5737496 14.9600401,14.0067496 15.6790401,13.9947496 L15.6980401,13.9947496 C16.3780401,13.9947496 16.9910401,14.4877496 17.1590401,14.8307496 C17.7760401,16.0887496 16.1430401,17.8697496 15.4600401,18.4477496 C15.3080401,18.5807496 15.2760401,18.8077496 15.3860401,18.9757496 C16.4990401,20.6317496 16.4010401,21.3267496 16.2450401,21.5927496 C15.9640401,22.0647496 15.0650401,22.0067496 14.9870401,22.0067496 C14.6510401,21.9987496 14.3660401,20.9437496 14.1940401,20.2877496 C13.9400401,19.3307496 13.7180401,18.5027496 13.1080401,18.3617496 C11.7100401,18.0457496 10.7410401,18.2367496 10.2330401,18.9287496 C9.05404007,20.5217496 11.0420401,24.1117496 11.2410401,24.4477496 C11.7960401,26.0617496 13.2330401,27.0617496 15.1900401,27.1897496 C15.3350401,27.2017496 15.4750401,27.2057496 15.6120401,27.2057496 C17.4680401,27.2057496 19.1790401,26.3967496 19.7760401,25.1977496 C20.6470401,23.4597496 20.9400401,22.2687496 21.1980401,21.2177496 C21.4170401,20.3227496 21.6080401,19.5497496 22.1200401,18.6117496 C24.3390401,14.5577496 24.8620401,11.1907496 23.6670401,8.60474965" id="Fill-1" stroke="#4D7EDD" stroke-width="0.4"></path>
                </g>
            </g>
        </g>
    </g>
</svg>