<?xml version="1.0" encoding="UTF-8"?>
<svg width="32px" height="32px" viewBox="0 0 32 32" version="1.1" xmlns="http://www.w3.org/2000/svg" xmlns:xlink="http://www.w3.org/1999/xlink">
    <!-- Generator: Sketch 41 (35326) - http://www.bohemiancoding.com/sketch -->
    <title>Page 1 Copy 7</title>
    <desc>Created with Sketch.</desc>
    <defs></defs>
    <g id="Page-1" stroke="none" stroke-width="1" fill="none" fill-rule="evenodd" opacity="0.802819293">
        <g id="Resort" transform="translate(-641.000000, -1342.000000)" fill="#4D7EDD">
            <g id="Group-10" transform="translate(25.000000, 1184.000000)">
                <g id="Page-1-Copy-7" transform="translate(616.000000, 158.000000)">
                    <path d="M23.9991111,8 L7.99911111,8 L7.99911111,6.22233333 L8.88844444,6.22233333 C8.88844444,6.46779167 9.08765278,6.66666667 9.33244444,6.66666667 C9.57852778,6.66666667 9.77777778,6.46779167 9.77777778,6.22233333 L11.5551111,6.22233333 C11.5551111,6.46779167 11.7543194,6.66666667 11.9991111,6.66666667 C12.2451944,6.66666667 12.4444444,6.46779167 12.4444444,6.22233333 L14.2217778,6.22233333 C14.2217778,6.46779167 14.4209861,6.66666667 14.6657778,6.66666667 C14.9118611,6.66666667 15.1111111,6.46779167 15.1111111,6.22233333 L16.8884444,6.22233333 C16.8884444,6.46779167 17.0876528,6.66666667 17.3324444,6.66666667 C17.5785278,6.66666667 17.7777778,6.46779167 17.7777778,6.22233333 L19.5551111,6.22233333 C19.5551111,6.46779167 19.7543194,6.66666667 19.9991111,6.66666667 C20.2451944,6.66666667 20.4444444,6.46779167 20.4444444,6.22233333 L22.2217778,6.22233333 C22.2217778,6.46779167 22.4209861,6.66666667 22.6657778,6.66666667 C22.9118611,6.66666667 23.1111111,6.46779167 23.1111111,6.22233333 L23.9991111,6.22233333 L23.9991111,8 Z M22.5212778,15.2291667 C22.0889861,15.8951667 21.4679028,16.4791667 20.6892361,16.8951667 C20.0056528,17.25975 19.3611111,17.4199167 18.7413194,17.4199167 C17.3702361,17.4199167 16.1228194,16.63475 14.8611111,15.5397083 C13.7022778,14.5341667 12.3715278,13.6910833 10.9184028,13.6910833 C10.4249028,13.6910833 9.91711111,13.7884167 9.39756944,14.0094583 L9.06423611,8.889 L22.9353194,8.889 L22.5212778,15.2291667 Z M10.1657778,25.778 L9.46006944,14.9642083 C9.94706944,14.70575 10.4249028,14.5800833 10.9184028,14.5800833 C11.4535694,14.5800833 12.0030278,14.7272083 12.5954861,15.0299583 C13.1215278,15.2982083 13.6709861,15.68425 14.2777778,16.2109583 C15.4027778,17.1881667 16.9275278,18.30925 18.7413194,18.30925 C19.5290694,18.30925 20.3246528,18.097 21.1071944,17.6790417 C21.6019861,17.4147083 22.0421111,17.0917917 22.4236111,16.7259167 L21.8337778,25.778 L10.1657778,25.778 Z M24.8884444,5.33333333 L7.11111111,5.33333333 L7.11111111,8.889 L8.17361111,8.889 L9.33244444,26.6666667 L22.6657778,26.6666667 L23.8259444,8.889 L24.8884444,8.889 L24.8884444,5.33333333 L24.8884444,5.33333333 Z" id="urine"></path>
                    <path d="M20.1865363,30.32 C19.8410669,30.426 19.4942914,30.52 19.1416383,30.5926667 C18.1424546,30.82 17.1040873,30.9333333 16.0461281,30.9333333 L15.9677608,30.9333333 C14.9098016,30.9333333 13.8714342,30.82 12.8729036,30.5926667 C12.5202506,30.52 12.1675975,30.426 11.820822,30.3126667 C5.76694444,28.4933333 1.3398424,22.7593333 1.3398424,16 C1.3398424,7.766 7.90245465,1.06666667 15.9677608,1.06666667 L16.0461281,1.06666667 C24.1120873,1.06666667 30.6753526,7.766 30.6753526,16 C30.6753526,22.7666667 26.2469444,28.4933333 20.1865363,30.32 M16.0461281,0 L15.9677608,0 C7.32841383,0 0.294291383,7.18 0.294291383,16 C0.294291383,23.3533333 5.18571995,29.566 11.820822,31.426 C12.1675975,31.5266667 12.5202506,31.6126667 12.8729036,31.6866667 C13.8714342,31.8926667 14.9098016,32 15.9677608,32 L16.0461281,32 C17.1040873,32 18.1424546,31.8926667 19.1416383,31.6866667 C19.4942914,31.6126667 19.8410669,31.5266667 20.1865363,31.426 C26.8281689,29.5733333 31.7195975,23.3533333 31.7195975,16 C31.7195975,7.18 24.6867812,0 16.0461281,0" id="Fill-1"></path>
                </g>
            </g>
        </g>
    </g>
</svg>