<?xml version="1.0" encoding="UTF-8"?>
<svg width="32px" height="32px" viewBox="0 0 32 32" version="1.1" xmlns="http://www.w3.org/2000/svg" xmlns:xlink="http://www.w3.org/1999/xlink">
    <!-- Generator: Sketch 41 (35326) - http://www.bohemiancoding.com/sketch -->
    <title>Page 1 Copy 5</title>
    <desc>Created with Sketch.</desc>
    <defs></defs>
    <g id="Page-1" stroke="none" stroke-width="1" fill="none" fill-rule="evenodd" opacity="0.802819293">
        <g id="Resort" transform="translate(-641.000000, -1454.000000)" fill="#4D7EDD">
            <g id="Group-10" transform="translate(25.000000, 1184.000000)">
                <g id="Page-1-Copy-5" transform="translate(616.000000, 270.000000)">
                    <path d="M19.8922449,30.3203333 C19.5467755,30.4263333 19.2,30.5203333 18.8473469,30.593 C17.8481633,30.8203333 16.8097959,30.9336667 15.7518367,30.9336667 L15.6734694,30.9336667 C14.6155102,30.9336667 13.5771429,30.8203333 12.5786122,30.593 C12.2259592,30.5203333 11.8733061,30.4263333 11.5265306,30.313 C5.47265306,28.4936667 1.04555102,22.7596667 1.04555102,16.0003333 C1.04555102,7.76633333 7.60816327,1.067 15.6734694,1.067 L15.7518367,1.067 C23.8177959,1.067 30.3810612,7.76633333 30.3810612,16.0003333 C30.3810612,22.767 25.9526531,28.4936667 19.8922449,30.3203333 M15.7518367,0.000333333333 L15.6734694,0.000333333333 C7.03412245,0.000333333333 0,7.18033333 0,16.0003333 C0,23.3536667 4.89142857,29.5663333 11.5265306,31.4263333 C11.8733061,31.527 12.2259592,31.613 12.5786122,31.687 C13.5771429,31.893 14.6155102,32.0003333 15.6734694,32.0003333 L15.7518367,32.0003333 C16.8097959,32.0003333 17.8481633,31.893 18.8473469,31.687 C19.2,31.613 19.5467755,31.527 19.8922449,31.4263333 C26.5338776,29.5736667 31.4253061,23.3536667 31.4253061,16.0003333 C31.4253061,7.18033333 24.3924898,0.000333333333 15.7518367,0.000333333333" id="Fill-1"></path>
                    <g id="face-mask" transform="translate(2.823764, 4.889222)">
                        <path d="M21.6200717,14.7540358 C21.6200717,17.612043 20.2002151,20.2650753 17.8220072,21.8504086 C16.4162867,22.7879713 14.7806452,23.2831541 13.0909534,23.2831541 L12.6864086,23.2831541 C10.9967168,23.2831541 9.36107527,22.7879713 7.95535484,21.8508244 C5.57756272,20.2650753 4.15770609,17.612043 4.15770609,14.7540358 L4.15770609,9.56272401 C4.15770609,6.41409319 8.20024373,3.989319 11.6245305,2.50002867 C12.4876703,2.68379928 21.6200717,4.72731183 21.6200717,8.7311828 L21.6200717,14.7540358 Z M25.7777778,5.43453763 C25.7777778,3.4276129 24.996129,1.54084588 23.5771039,0.121820789 L22.9892043,0.70972043 C24.2510681,1.97158423 24.9462366,3.64963441 24.9462366,5.43453763 C24.9462366,7.95701792 24.0648029,10.3431254 22.4516129,12.2456918 L22.4516129,8.7311828 C22.4516129,4.81628674 15.7701792,2.68338351 12.9454337,1.95661649 C14.8305376,1.22278136 16.2803297,0.828630824 16.3223226,0.817405018 L16.1077849,0.0141362007 C15.5859928,0.153003584 3.32616487,3.49205735 3.32616487,9.56272401 L3.32616487,12.2461075 C1.71297491,10.3435412 0.831541219,7.95743369 0.831541219,5.43495341 C0.831541219,3.64963441 1.52670968,1.97158423 2.78857348,0.70972043 L2.20067384,0.121820789 C0.781648746,1.54084588 0,3.4276129 0,5.43453763 C0,8.47132616 1.1812043,11.3268387 3.32616487,13.4763728 L3.32616487,14.7540358 C3.32616487,17.8910251 4.88447312,20.8026667 7.49426523,22.5422509 C7.89091039,22.806681 8.30418638,23.0378495 8.7311828,23.2370036 L8.7311828,25.7777778 L9.56272401,25.7777778 L9.56272401,23.573362 C10.5597419,23.926767 11.6124731,24.1146953 12.6868244,24.1146953 L13.0913692,24.1146953 C14.1657204,24.1146953 15.2184516,23.926767 16.2154695,23.573362 L16.2154695,25.7777778 L17.0470108,25.7777778 L17.0470108,23.2374194 C17.4735914,23.0382652 17.8872832,22.8070968 18.2839283,22.5426667 C20.8933047,20.8026667 22.4516129,17.8910251 22.4516129,14.7540358 L22.4516129,13.4763728 C24.5961577,11.3268387 25.7777778,8.47174194 25.7777778,5.43453763 L25.7777778,5.43453763 Z" id="Fill-1"></path>
                        <path d="M19.9569892,14.5519713 C19.9569892,18.449405 16.7863226,21.6200717 12.8888889,21.6200717 C8.9914552,21.6200717 5.82078853,18.449405 5.82078853,14.5519713 L5.82078853,10.3942652 C5.82078853,7.87261649 7.87261649,5.82078853 10.3942652,5.82078853 L15.3835125,5.82078853 C17.9051613,5.82078853 19.9569892,7.87261649 19.9569892,10.3942652 L19.9569892,14.5519713 Z M15.3835125,4.98924731 L10.3942652,4.98924731 C7.41402151,4.98924731 4.98924731,7.41402151 4.98924731,10.3942652 L4.98924731,14.5519713 C4.98924731,18.908 8.53286022,22.4516129 12.8888889,22.4516129 C17.2449176,22.4516129 20.7885305,18.908 20.7885305,14.5519713 L20.7885305,10.3942652 C20.7885305,7.41402151 18.3637563,4.98924731 15.3835125,4.98924731 L15.3835125,4.98924731 Z" id="Fill-4"></path>
                        <path d="M7.48387097,11.2258065 C7.48387097,10.0687168 9.07502509,9.97849462 9.56272401,9.97849462 C10.0504229,9.97849462 11.6415771,10.0687168 11.6415771,11.2258065 C11.6415771,11.7135054 11.4918996,13.3046595 9.56272401,13.3046595 C7.63354839,13.3046595 7.48387097,11.7135054 7.48387097,11.2258065 Z M12.4731183,11.2258065 C12.4731183,9.94356989 11.3576057,9.14695341 9.56272401,9.14695341 C7.76784229,9.14695341 6.65232975,9.94356989 6.65232975,11.2258065 C6.65232975,12.5683297 7.41443728,14.1362007 9.56272401,14.1362007 C11.7110108,14.1362007 12.4731183,12.5683297 12.4731183,11.2258065 L12.4731183,11.2258065 Z" id="Fill-5"></path>
                        <path d="M11.4798423,11.554681 L10.9759283,10.89319 C10.9717706,10.8969319 10.5090179,11.2258065 9.56272401,11.2258065 C8.61643011,11.2258065 8.15367742,10.8969319 8.14951971,10.89319 L7.64560573,11.554681 C7.71171326,11.6062366 8.3307957,12.0573477 9.56272401,12.0573477 C10.7946523,12.0573477 11.4137348,11.6062366 11.4798423,11.554681" id="Fill-6"></path>
                        <path d="M16.2150538,13.3046595 C14.2858781,13.3046595 14.1362007,11.7135054 14.1362007,11.2258065 C14.1362007,10.0687168 15.7273548,9.97849462 16.2150538,9.97849462 C16.7027527,9.97849462 18.2939068,10.0687168 18.2939068,11.2258065 C18.2939068,11.7135054 18.1442294,13.3046595 16.2150538,13.3046595 Z M16.2150538,9.14695341 C14.420172,9.14695341 13.3046595,9.94356989 13.3046595,11.2258065 C13.3046595,12.5683297 14.066767,14.1362007 16.2150538,14.1362007 C18.3633405,14.1362007 19.125448,12.5683297 19.125448,11.2258065 C19.125448,9.94356989 18.0099355,9.14695341 16.2150538,9.14695341 L16.2150538,9.14695341 Z" id="Fill-7"></path>
                        <path d="M16.2150538,11.2258065 C15.2687599,11.2258065 14.8060072,10.8969319 14.8018495,10.89319 L14.2979355,11.554681 C14.364043,11.6062366 14.9831254,12.0573477 16.2150538,12.0573477 C17.4469821,12.0573477 18.0660645,11.6062366 18.132172,11.554681 L17.6282581,10.89319 C17.6241004,10.8969319 17.1613477,11.2258065 16.2150538,11.2258065" id="Fill-8"></path>
                        <path d="M12.8888889,19.5412186 C10.9983799,19.5412186 9.97849462,18.4701935 9.97849462,17.4623656 C9.97849462,16.5418495 11.5459498,16.2150538 12.8888889,16.2150538 C14.2314122,16.2150538 15.7992832,16.5418495 15.7992832,17.4623656 C15.7992832,18.4701935 14.7793978,19.5412186 12.8888889,19.5412186 Z M12.8888889,15.3835125 C10.5456057,15.3835125 9.14695341,16.1605878 9.14695341,17.4623656 C9.14695341,18.873491 10.4582939,20.3727599 12.8888889,20.3727599 C15.3194839,20.3727599 16.6308244,18.873491 16.6308244,17.4623656 C16.6308244,16.1605878 15.232172,15.3835125 12.8888889,15.3835125 L12.8888889,15.3835125 Z" id="Fill-9"></path>
                        <polygon id="Fill-10" points="10.8100358 18.2939068 14.9677419 18.2939068 14.9677419 17.4623656 10.8100358 17.4623656"></polygon>
                        <path d="M22.5430824,4.41756272 L23.1921004,3.89784946 C22.8407742,3.4587957 22.4067097,3.05383513 21.8653763,2.65926882 L21.3755986,3.33073835 C21.8495771,3.6766595 22.2424803,4.04253763 22.5430824,4.41756272" id="Fill-11"></path>
                        <path d="M20.9964158,2.09548387 C19.5008889,1.23317563 18.0415341,0.859397849 17.9795842,0.844014337 L17.7762724,1.65060932 C17.7904086,1.65435125 19.1894767,2.01357706 20.5806452,2.81601434 L20.9964158,2.09548387" id="Fill-12"></path>
                        <path d="M1.70715412,5.21792115 L2.44972043,5.59294624 C2.45138351,5.58962007 2.61311828,5.27405018 2.9594552,4.82834409 L2.30253763,4.31819355 C1.90298208,4.83333333 1.71546953,5.20253763 1.70715412,5.21792115" id="Fill-13"></path>
                        <path d="M5.20336918,2.85093907 L4.77554122,2.13789247 C4.16061649,2.50709677 3.59142652,2.94698208 3.0825233,3.44507527 L3.66460215,4.0387957 C4.12693907,3.58602151 4.64457348,3.18646595 5.20336918,2.85093907" id="Fill-14"></path>
                    </g>
                </g>
            </g>
        </g>
    </g>
</svg>