<?xml version="1.0" encoding="UTF-8" standalone="no"?>
<svg width="16px" height="14px" viewBox="0 0 16 14" version="1.1" xmlns="http://www.w3.org/2000/svg" xmlns:xlink="http://www.w3.org/1999/xlink">
    <!-- Generator: Sketch 41 (35326) - http://www.bohemiancoding.com/sketch -->
    <title>Fill 1</title>
    <desc>Created with Sketch.</desc>
    <defs></defs>
    <g id="Page-1" stroke="none" stroke-width="1" fill="none" fill-rule="evenodd">
        <g id="News_2" transform="translate(-108.000000, -1198.000000)" fill="#90AEEA">
            <g id="Page-1" transform="translate(32.000000, 1196.000000)">
                <path d="M91.558392,2.85310168 C90.9234713,3.2350672 90.2222222,3.51278166 89.4725359,3.66158816 C88.8751432,3.01358776 88.0216004,2.60869565 87.0768559,2.60869565 C85.2654776,2.60869565 83.7953417,4.10281673 83.7953417,5.94516232 C83.7953417,6.20687143 83.8237059,6.46079415 83.8799978,6.70520017 C81.1518028,6.56591037 78.7334315,5.23876402 77.1136202,3.21776412 C76.8308515,3.71219967 76.669394,4.28622939 76.669394,4.89702817 C76.669394,6.05417174 77.2488954,7.07548612 78.1299296,7.67417273 C77.5927562,7.65816738 77.0852561,7.50633284 76.642339,7.25803362 L76.642339,7.29912844 C76.642339,8.9161014 77.7738504,10.2653092 79.2762778,10.5707086 C79.0013637,10.649005 78.7111766,10.6879369 78.4113893,10.6879369 C78.2001855,10.6879369 77.9937817,10.6680384 77.7934872,10.6291065 C78.2115311,11.9540899 79.4228986,12.9191693 80.8598702,12.9446913 C79.7366498,13.8405584 78.3201876,14.3739259 76.7828506,14.3739259 C76.5184094,14.3739259 76.2561501,14.3587857 76,14.3280727 C77.452681,15.2732535 79.1789669,15.826087 81.0318006,15.826087 C87.0703104,15.826087 90.3714613,10.7424416 90.3714613,6.33275135 C90.3714613,6.18783804 90.3684067,6.04249216 90.3627339,5.90060689 C91.0042001,5.42996307 91.5610102,4.84252346 92,4.17332679 C91.4117711,4.43892909 90.7790323,4.61844856 90.1148748,4.69847531 C90.7929962,4.28622939 91.3131511,3.63217292 91.558392,2.85310168" id="Fill-1"></path>
            </g>
        </g>
    </g>
</svg>