<?xml version="1.0" encoding="utf-8"?>
<!-- Generator: Adobe Illustrator 15.0.0, SVG Export Plug-In . SVG Version: 6.00 Build 0)  -->
<!DOCTYPE svg PUBLIC "-//W3C//DTD SVG 1.1//EN" "http://www.w3.org/Graphics/SVG/1.1/DTD/svg11.dtd">
<svg version="1.1" id="Layer_1" xmlns="http://www.w3.org/2000/svg" xmlns:xlink="http://www.w3.org/1999/xlink" x="0px" y="0px"
	 width="124px" height="124px" viewBox="0 0 124 124" enable-background="new 0 0 124 124" xml:space="preserve">
<g>
	<path fill="#4D7EDD" d="M62,124C27.813,124,0,96.187,0,62C0,27.812,27.813,0,62,0s62,27.812,62,62C124,96.187,96.188,124,62,124z
		 M62,1.482C28.63,1.482,1.482,28.63,1.482,62S28.63,122.518,62,122.518S122.518,95.37,122.518,62S95.37,1.482,62,1.482z"/>
</g>
<g>
	<g>
		<polygon fill="#4D7EDD" points="44.833,86.984 44.833,37.014 94.979,61.684 		"/>
	</g>
	<g>
		<polygon fill="#90AEEA" points="46.314,39.395 46.314,84.577 91.655,61.699 		"/>
	</g>
</g>
</svg>
