<?xml version="1.0" encoding="UTF-8" standalone="no"?>
<svg width="20px" height="12px" viewBox="0 0 20 12" version="1.1" xmlns="http://www.w3.org/2000/svg" xmlns:xlink="http://www.w3.org/1999/xlink">
    <!-- Generator: Sketch 41 (35326) - http://www.bohemiancoding.com/sketch -->
    <title>Page 1</title>
    <desc>Created with Sketch.</desc>
    <defs></defs>
    <g id="Page-1" stroke="none" stroke-width="1" fill="none" fill-rule="evenodd">
        <g id="News_2" transform="translate(-64.000000, -1199.000000)" fill="#90AEEA">
            <g id="Page-1" transform="translate(32.000000, 1196.000000)">
                <path d="M50.4100515,7.39767986 C51.6114443,5.80109204 52.1313772,4.7807704 51.9718621,4.33614009 L51.9089183,4.23152119 C51.8675306,4.17001448 51.7597502,4.11253157 51.5867266,4.05993471 C51.4128408,4.00820009 51.190382,4.0004399 50.9199249,4.0340674 L47.9210415,4.05533608 C47.8514872,4.04872554 47.7819328,4.0498752 47.7135282,4.05993471 C47.6436864,4.07114388 47.5988498,4.08120339 47.5775811,4.0912629 C47.5563124,4.10247206 47.539355,4.11051967 47.5258465,4.1171302 L47.4844588,4.14845839 C47.4496816,4.17001448 47.4114555,4.2059413 47.3697804,4.25853816 C47.3283927,4.31027278 47.2924659,4.37091725 47.2654489,4.44047157 C46.9386586,5.28029688 46.5681812,6.06177704 46.1505679,6.78347497 C45.8947689,7.21344713 45.6576519,7.58737346 45.4432407,7.90295463 C45.2276797,8.21824839 45.046896,8.45191642 44.9020391,8.60022233 C44.7563199,8.74939048 44.6238218,8.86952976 44.5059818,8.95949051 C44.3878544,9.05031351 44.2981811,9.08853964 44.2352373,9.0738815 C44.1722935,9.06037302 44.1139484,9.04686453 44.0579025,9.03249381 C43.9613312,8.97069968 43.8828671,8.88533756 43.8242345,8.7775571 C43.7647397,8.66977665 43.7256513,8.53497922 43.7040952,8.37115293 C43.6839762,8.20818888 43.6704677,8.06793058 43.6681684,7.94894096 C43.6638572,7.83110099 43.6661565,7.66497539 43.672767,7.44941447 C43.679665,7.23500322 43.6839762,7.08899663 43.6839762,7.01254436 C43.6839762,6.74869781 43.6885748,6.46243292 43.6986343,6.15374969 C43.7098435,5.84391681 43.7176037,5.59903961 43.7256513,5.41940552 C43.7322619,5.23862177 43.7357108,5.04777851 43.7357108,4.84572608 C43.7357108,4.64482331 43.723352,4.48760756 43.6986343,4.37206691 C43.6750664,4.25853816 43.6379899,4.14730873 43.5897042,4.03952828 C43.5414186,3.93174782 43.469565,3.84868502 43.3764426,3.78919021 C43.2821707,3.73084505 43.1663426,3.68370907 43.027234,3.64893191 C42.6590559,3.5658691 42.1908576,3.52103243 41.6214894,3.51298482 C40.3304233,3.49976376 39.5006575,3.58282656 39.1324794,3.7633229 C38.9864728,3.83977517 38.8551244,3.94410665 38.7372844,4.0754551 C38.6116843,4.22950929 38.5947268,4.3125721 38.6846876,4.32608058 C39.1011512,4.38758729 39.396326,4.53819252 39.5704992,4.77387245 L39.6320059,4.89861036 C39.6814412,4.98943336 39.7297269,5.14894843 39.7780125,5.37801783 C39.8262981,5.60708722 39.8579137,5.8594372 39.8722845,6.13794189 C39.9070616,6.64436633 39.9070616,7.07778746 39.8722845,7.43935497 C39.8375073,7.80063505 39.8050295,8.08143907 39.7737013,8.28234184 C39.7420857,8.48439426 39.6949497,8.64735831 39.6331556,8.77180881 C39.5704992,8.89769638 39.5288241,8.97386124 39.5075554,9.00087821 C39.4862867,9.02904483 39.4693293,9.04686453 39.4558208,9.05376248 C39.3649978,9.08738998 39.2718755,9.10520969 39.1741545,9.10520969 C39.0775832,9.10520969 38.9597433,9.05692404 38.8203472,8.95949051 C38.6812386,8.86291922 38.5375313,8.72927146 38.3880757,8.55854722 C38.2389076,8.38897263 38.0704827,8.15099339 37.8830884,7.84460948 C37.6954067,7.54023747 37.5014019,7.17866997 37.3002117,6.76220629 L37.1340861,6.4601336 C37.0297546,6.26612878 36.887197,5.98302545 36.7064132,5.61139844 C36.5256295,5.23977143 36.3661144,4.8816529 36.2281554,4.53359388 C36.1721096,4.38758729 36.0890468,4.27779494 35.9778173,4.20019301 L35.9260827,4.17001448 C35.8913056,4.14184786 35.8352597,4.11253157 35.7588075,4.08120339 C35.6823552,4.0498752 35.6027414,4.02716945 35.5196786,4.01279872 L32.6668018,4.0340674 C32.375076,4.0340674 32.1773348,4.10017275 32.0730033,4.23152119 L32.0313282,4.29446498 C32.0100595,4.32924214 32,4.38557539 32,4.46059059 C32,4.53819252 32.0212687,4.63131483 32.0629438,4.74254426 C32.4794075,5.72147821 32.931798,6.665635 33.4212649,7.57386497 C33.9107319,8.48439426 34.3363929,9.21643912 34.6968107,9.77201144 C35.0583782,10.3278712 35.4265562,10.8509657 35.8016322,11.3438816 C36.1764208,11.8367976 36.424747,12.153241 36.5457485,12.2914874 C36.6670374,12.430596 36.7624591,12.5349275 36.8320134,12.6036196 L37.0926984,12.8539576 C37.258824,13.0212329 37.5034138,13.2198364 37.8258929,13.4535044 C38.1489468,13.6857353 38.5059157,13.9148047 38.8990988,14.1392755 C39.2908448,14.3660456 39.747834,14.5491286 40.2674795,14.6916863 C40.7885621,14.8342439 41.2949865,14.8917268 41.7887647,14.8635602 L42.9855589,14.8635602 C43.2292864,14.8434411 43.4123695,14.7669889 43.5379696,14.6344908 L43.5796447,14.5827561 C43.6066617,14.5413684 43.6333912,14.477275 43.6569592,14.389901 C43.6816769,14.3033892 43.6940357,14.2079676 43.6940357,14.1044983 C43.6874252,13.8058746 43.7098435,13.5365672 43.7615781,13.2974383 C43.8130253,13.0571597 43.8725202,12.8775256 43.9389129,12.755087 C44.0050183,12.6337981 44.0791712,12.5317659 44.162234,12.4487031 C44.2452968,12.3644907 44.3047916,12.3150554 44.3395688,12.2969482 C44.374346,12.2802782 44.4025126,12.2679194 44.4226316,12.2610214 C44.5890446,12.2049756 44.7853488,12.2587221 45.0109692,12.4216862 C45.2365896,12.5855124 45.4489889,12.7864152 45.6464427,13.0255441 C45.844184,13.2658227 46.0821632,13.5348427 46.3595182,13.8328916 C46.6377355,14.1315153 46.8803134,14.3539742 47.0892638,14.4996933 L47.2967771,14.6250061 C47.4361731,14.7074941 47.6158072,14.7839463 47.8379787,14.8535006 C48.0604375,14.923055 48.255592,14.9408747 48.422005,14.9060975 L51.0872001,14.8635602 C51.3510467,14.8635602 51.5565481,14.8210228 51.701405,14.7333614 C51.8471242,14.6479992 51.9347856,14.551428 51.9618026,14.4470965 C51.9899692,14.3436272 51.9919811,14.2257873 51.9672635,14.0932892 C51.9425458,13.9619407 51.9189778,13.8705429 51.8945476,13.8182334 C51.86983,13.7656366 51.8471242,13.7228118 51.8270052,13.6880347 C51.4789462,13.0626206 50.816743,12.2957986 49.8375217,11.386419 L49.796134,11.3450313 C49.3414442,10.9216696 49.0606402,10.6371292 48.9428002,10.4905478 C48.7272393,10.2131928 48.6789536,9.93267617 48.7967936,9.64756094 C48.8798564,9.43200003 49.1919886,8.97731021 49.7331902,8.28234184 C50.0171558,7.91531346 50.2427762,7.6198513 50.4100515,7.39767986 Z"></path>
            </g>
        </g>
    </g>
</svg>